<?xml version="1.0" encoding="utf-8"?>
<!-- Generator: Adobe Illustrator 27.2.0, SVG Export Plug-In . SVG Version: 6.00 Build 0)  -->
<svg version="1.1" id="Layer_1" xmlns="http://www.w3.org/2000/svg" xmlns:xlink="http://www.w3.org/1999/xlink" x="0px" y="0px"
	 viewBox="0 0 30 30" style="enable-background:new 0 0 30 30;" xml:space="preserve">
<style type="text/css">
	.st0{opacity:0.5;fill:#CFB384;}
</style>
<path class="st0" d="M15,0C6.71,0,0,6.72,0,15c0,8.29,6.71,15,15,15c8.28,0,15-6.71,15-15C30,6.72,23.28,0,15,0z M19.58,10.96
	l-0.32,3.57h-3.57v12.28h-4.58V14.54H8.66v-3.57h2.44V7.28c0-3.25,3.17-4.13,5.5-4.09c2.33,0.04,3.5,0.4,3.5,0.4l-0.56,3.65
	c0,0-3.85-1.45-3.85,1.49v2.25H19.58z"/>
</svg>
