<?xml version="1.0" encoding="utf-8"?>
<!-- Generator: Adobe Illustrator 27.2.0, SVG Export Plug-In . SVG Version: 6.00 Build 0)  -->
<svg version="1.1" id="Layer_1" xmlns="http://www.w3.org/2000/svg" xmlns:xlink="http://www.w3.org/1999/xlink" x="0px" y="0px"
	 viewBox="0 0 30 30" style="enable-background:new 0 0 30 30;" xml:space="preserve">
<style type="text/css">
	.st0{fill:#CFB384;}
</style>
<g>
	<path class="st0" d="M6.34,24.34c0,1.83,1.49,3.33,3.33,3.33h11.21c1.83,0,3.33-1.49,3.33-3.33V5.37c0-1.83-1.49-3.33-3.33-3.33
		H9.67c-1.83,0-3.33,1.49-3.33,3.33V24.34z M17.96,3.19l-0.11,0.29c-0.04,0.11-0.08,0.23-0.1,0.36l-0.12,0.62
		c-0.1,0.5-0.54,0.87-1.05,0.87h-2.6c-0.51,0-0.95-0.36-1.05-0.87L12.8,3.83c-0.02-0.12-0.06-0.24-0.1-0.36l-0.11-0.29H17.96z
		 M7.49,5.37c0-1.2,0.98-2.18,2.18-2.18h0.95c0.51,0,0.95,0.36,1.05,0.87l0.12,0.62c0.2,1.04,1.12,1.79,2.17,1.79h2.6
		c1.06,0,1.97-0.75,2.18-1.79l0.12-0.62c0.1-0.5,0.54-0.87,1.05-0.87h0.95c1.2,0,2.18,0.98,2.18,2.18v18.97
		c0,1.2-0.98,2.18-2.18,2.18H9.67c-1.2,0-2.18-0.98-2.18-2.18V5.37z"/>
	<path class="st0" d="M16.58,23.03h-2.62c-0.32,0-0.57,0.26-0.57,0.57c0,0.32,0.26,0.57,0.57,0.57h2.62c0.32,0,0.57-0.26,0.57-0.57
		C17.16,23.28,16.9,23.03,16.58,23.03z"/>
</g>
</svg>
