<?xml version="1.0" encoding="utf-8"?>
<!-- Generator: Adobe Illustrator 27.2.0, SVG Export Plug-In . SVG Version: 6.00 Build 0)  -->
<svg version="1.1" id="Layer_1" xmlns="http://www.w3.org/2000/svg" xmlns:xlink="http://www.w3.org/1999/xlink" x="0px" y="0px"
	 viewBox="0 0 30 30" style="enable-background:new 0 0 30 30;" xml:space="preserve">
<style type="text/css">
	.st0{fill:#CFB384;}
</style>
<g>
	<g>
		<path class="st0" d="M21.95,9.07H8.05c-0.82,0-1.48,0.66-1.48,1.48v8.89c0,0.82,0.67,1.48,1.48,1.48h13.9
			c0.82,0,1.48-0.66,1.48-1.48v-8.89C23.43,9.73,22.77,9.07,21.95,9.07z M21.72,10.06c-0.48,0.48-6.11,6.13-6.34,6.36
			c-0.19,0.19-0.57,0.19-0.77,0l-6.34-6.36H21.72z M7.56,19.27v-8.53L11.81,15L7.56,19.27z M8.28,19.94l4.23-4.24l1.41,1.42
			c0.58,0.58,1.59,0.58,2.17,0l1.41-1.42l4.23,4.24H8.28z M22.44,19.27L18.19,15l4.25-4.27V19.27z"/>
	</g>
</g>
</svg>
