<?xml version="1.0" encoding="utf-8"?>
<!-- Generator: Adobe Illustrator 27.2.0, SVG Export Plug-In . SVG Version: 6.00 Build 0)  -->
<svg version="1.1" id="Layer_1" xmlns="http://www.w3.org/2000/svg" xmlns:xlink="http://www.w3.org/1999/xlink" x="0px" y="0px"
	 viewBox="0 0 30 30" style="enable-background:new 0 0 30 30;" xml:space="preserve">
<style type="text/css">
	.st0{fill:#CFB384;}
</style>
<g id="g2509_00000070805005930415075370000016445882360694822581_">
	<g id="g2515_00000170992442763314996040000006907309257807895948_" transform="translate(256,15)">
		<g id="path2517_00000010294953285963298000000005667593401663166338_">
			<path class="st0" d="M-241,11.81c-0.17,0-0.32-0.08-0.41-0.22c-0.54-0.81-1.16-1.68-1.81-2.58c-2.82-3.95-6.02-8.44-6.02-12.57
				c0-4.55,3.7-8.24,8.24-8.24s8.24,3.7,8.24,8.24c0,4.14-3.2,8.62-6.02,12.57c-0.65,0.91-1.26,1.77-1.81,2.58
				C-240.68,11.73-240.83,11.81-241,11.81z M-241-10.82c-4,0-7.25,3.25-7.25,7.25c0,3.82,3.1,8.16,5.84,12
				c0.49,0.69,0.97,1.36,1.41,2c0.44-0.64,0.92-1.31,1.41-2c2.74-3.83,5.84-8.18,5.84-12C-233.75-7.56-237-10.82-241-10.82z"/>
		</g>
	</g>
	<g id="g2519_00000131326963451974247400000013219387830189663387_" transform="translate(256,257)">
		<g id="path2521_00000060729969051426457730000008591989564228044991_">
			<path class="st0" d="M-241-241.55c-2.22,0-4.02-1.8-4.02-4.02s1.8-4.02,4.02-4.02s4.02,1.8,4.02,4.02S-238.78-241.55-241-241.55z
				 M-241-248.59c-1.67,0-3.02,1.36-3.02,3.02s1.36,3.02,3.02,3.02s3.02-1.36,3.02-3.02S-239.33-248.59-241-248.59z"/>
		</g>
	</g>
</g>
</svg>
