<?xml version="1.0" encoding="utf-8"?>
<!-- Generator: Adobe Illustrator 27.2.0, SVG Export Plug-In . SVG Version: 6.00 Build 0)  -->
<svg version="1.1" id="Layer_1" xmlns="http://www.w3.org/2000/svg" xmlns:xlink="http://www.w3.org/1999/xlink" x="0px" y="0px"
	 viewBox="0 0 30 30" style="enable-background:new 0 0 30 30;" xml:space="preserve">
<style type="text/css">
	.st0{opacity:0.5;}
	.st1{fill:#CFB384;}
</style>
<g class="st0">
	<path class="st1" d="M15.08,12.03c-1.63,0-2.95,1.32-2.95,2.95c0,1.63,1.32,2.95,2.95,2.95c1.63,0,2.95-1.32,2.95-2.95
		C18.03,13.36,16.7,12.03,15.08,12.03z"/>
	<path class="st1" d="M18.74,7.39h-7.47c-2.13,0-3.86,1.73-3.86,3.86v7.47c0,2.13,1.73,3.86,3.86,3.86h7.47
		c2.13,0,3.86-1.73,3.86-3.86v-7.47C22.6,9.12,20.86,7.39,18.74,7.39z M15.08,19.59c-2.54,0-4.61-2.07-4.61-4.61
		c0-2.54,2.07-4.61,4.61-4.61c2.54,0,4.61,2.07,4.61,4.61C19.68,17.53,17.62,19.59,15.08,19.59z M19.95,11.17
		c-0.61,0-1.1-0.49-1.1-1.1c0-0.61,0.49-1.1,1.1-1.1c0.61,0,1.1,0.49,1.1,1.1C21.05,10.67,20.56,11.17,19.95,11.17z"/>
	<path class="st1" d="M15,0C6.71,0,0,6.72,0,15c0,8.29,6.71,15,15,15c8.28,0,15-6.71,15-15C30,6.72,23.28,0,15,0z M24.36,18.72
		c0,3.1-2.52,5.62-5.62,5.62h-7.47c-3.1,0-5.62-2.52-5.62-5.62v-7.47c0-3.1,2.52-5.62,5.62-5.62h7.47c3.1,0,5.62,2.52,5.62,5.62
		V18.72z"/>
</g>
</svg>
