<?xml version="1.0" encoding="utf-8"?>
<!-- Generator: Adobe Illustrator 27.2.0, SVG Export Plug-In . SVG Version: 6.00 Build 0)  -->
<svg version="1.1" id="Layer_1" xmlns="http://www.w3.org/2000/svg" xmlns:xlink="http://www.w3.org/1999/xlink" x="0px" y="0px"
	 viewBox="0 0 30 30" style="enable-background:new 0 0 30 30;" xml:space="preserve">
<style type="text/css">
	.st0{opacity:0.5;fill:#CFB384;}
</style>
<path class="st0" d="M15,0C6.71,0,0,6.71,0,15c0,8.29,6.71,15,15,15c8.28,0,15-6.72,15-15C30,6.71,23.28,0,15,0z M7.02,8.34
	c0-0.54,0.19-1,0.57-1.38c0.38-0.38,0.84-0.57,1.38-0.57c0.54,0,1,0.19,1.38,0.57c0.38,0.38,0.57,0.84,0.57,1.38
	c0,0.54-0.19,1-0.57,1.38c-0.38,0.38-0.84,0.57-1.38,0.57c-0.54,0-1-0.19-1.38-0.57C7.21,9.34,7.02,8.88,7.02,8.34z M7.29,11.78
	h3.37v10.93H7.29V11.78z M12.45,11.78h3.24v1.49h0.05c0.1-0.21,0.25-0.42,0.45-0.63c0.19-0.21,0.43-0.4,0.7-0.56
	c0.27-0.17,0.58-0.3,0.92-0.41s0.72-0.16,1.13-0.16c0.85,0,1.54,0.13,2.07,0.39c0.53,0.26,0.93,0.63,1.23,1.09
	c0.29,0.46,0.49,1.01,0.6,1.64c0.11,0.63,0.16,1.31,0.16,2.05v6.03h-3.37v-5.35c0-0.31-0.01-0.64-0.03-0.98
	c-0.02-0.34-0.09-0.65-0.2-0.93c-0.11-0.29-0.29-0.52-0.52-0.7c-0.23-0.18-0.57-0.27-1-0.27s-0.79,0.08-1.06,0.24
	c-0.27,0.16-0.48,0.37-0.62,0.63c-0.14,0.26-0.24,0.56-0.28,0.89c-0.05,0.33-0.07,0.68-0.07,1.04v5.44h-3.37V11.78z"/>
</svg>
