<?xml version="1.0" encoding="utf-8"?>
<!-- Generator: Adobe Illustrator 27.2.0, SVG Export Plug-In . SVG Version: 6.00 Build 0)  -->
<svg version="1.1" id="Layer_1" xmlns="http://www.w3.org/2000/svg" xmlns:xlink="http://www.w3.org/1999/xlink" x="0px" y="0px"
	 viewBox="0 0 200 200" style="enable-background:new 0 0 200 200;" xml:space="preserve">
<style type="text/css">
	.st0{fill:#B3B3B2;}
	.st1{fill:#9C1C1F;}
	.st2{fill:#CFB384;}
</style>
<g>
	<g>
		<path class="st0" d="M58.79,149.63c-1.06-0.37-2.24-0.04-2.94,0.84c-4.64,5.76-11.53,9.06-18.92,9.06c-7.43,0-14.36-3.34-19-9.16
			c-0.7-0.88-1.88-1.22-2.95-0.85c-1.06,0.37-1.77,1.37-1.77,2.5v23.72c0,1.46,1.19,2.65,2.65,2.65c1.46,0,2.65-1.19,2.65-2.65
			V158.4c5.18,4.14,11.62,6.43,18.42,6.43c6.75,0,13.17-2.27,18.33-6.36v17.27c0,1.46,1.19,2.65,2.65,2.65
			c1.46,0,2.65-1.19,2.65-2.65v-23.61C60.56,151,59.85,150,58.79,149.63z"/>
		<path class="st0" d="M121.63,150.36c-0.5-0.62-1.26-0.99-2.06-0.99c0,0,0,0,0,0c-0.8,0-1.56,0.36-2.06,0.98l-19.13,23.68
			c-0.92,1.14-0.74,2.8,0.39,3.72c0.49,0.4,1.08,0.59,1.66,0.59c0.77,0,1.54-0.34,2.06-0.98l17.07-21.12l6.52,8.07h-7.73
			c-1.46,0-2.65,1.19-2.65,2.65c0,1.46,1.19,2.65,2.65,2.65h11.7c0.1,0,0.2-0.02,0.29-0.03l6.31,7.8c0.92,1.14,2.59,1.32,3.72,0.4
			c1.14-0.92,1.32-2.58,0.4-3.72L121.63,150.36z"/>
		<path class="st0" d="M103.97,154.67c1.46,0,2.65-1.19,2.65-2.65s-1.19-2.65-2.65-2.65H77.8c-6.25,0-11.34,5.09-11.34,11.34v15.09
			c0,1.46,1.19,2.65,2.65,2.65c1.46,0,2.65-1.19,2.65-2.65v-15.09c0-3.33,2.71-6.04,6.04-6.04H103.97z"/>
		<path class="st0" d="M99.11,164.07c0-1.46-1.19-2.65-2.65-2.65H78.02c-1.46,0-2.65,1.19-2.65,2.65c0,1.46,1.19,2.65,2.65,2.65
			h18.44C97.93,166.72,99.11,165.54,99.11,164.07z"/>
		<path class="st0" d="M186.93,174.04l-19.15-23.69c-0.5-0.62-1.26-0.99-2.06-0.99c0,0,0,0,0,0c-0.8,0-1.56,0.36-2.06,0.98
			l-19.13,23.68c-0.92,1.14-0.74,2.8,0.39,3.72c0.49,0.4,1.08,0.59,1.66,0.59c0.77,0,1.54-0.34,2.06-0.98l17.07-21.12l6.52,8.07
			h-7.82c-1.46,0-2.65,1.19-2.65,2.65c0,1.46,1.19,2.65,2.65,2.65h11.7c0.13,0,0.25-0.02,0.38-0.04l6.31,7.81
			c0.92,1.14,2.59,1.32,3.72,0.4C187.66,176.85,187.84,175.18,186.93,174.04z"/>
	</g>
	<g>
		<path class="st0" d="M14.32,192.65h-1.11v-7.8h1.11V192.65z M18.9,189.17h-4.69v-0.97h4.69V189.17z M18.8,184.85h1.11v7.8H18.8
			V184.85z"/>
		<path class="st0" d="M30.23,192.74c-0.59,0-1.15-0.1-1.65-0.3c-0.51-0.2-0.95-0.48-1.32-0.84c-0.37-0.36-0.66-0.78-0.87-1.26
			c-0.21-0.48-0.31-1.01-0.31-1.58s0.1-1.1,0.31-1.58s0.5-0.9,0.87-1.26c0.37-0.36,0.81-0.64,1.31-0.84c0.51-0.2,1.06-0.3,1.66-0.3
			c0.59,0,1.14,0.1,1.65,0.3c0.51,0.2,0.94,0.48,1.31,0.84c0.37,0.36,0.66,0.78,0.86,1.27c0.2,0.49,0.31,1.02,0.31,1.59
			c0,0.58-0.1,1.11-0.31,1.59c-0.2,0.48-0.49,0.9-0.86,1.26c-0.37,0.36-0.81,0.64-1.31,0.84C31.38,192.64,30.83,192.74,30.23,192.74
			z M30.22,191.75c0.44,0,0.84-0.07,1.21-0.22c0.37-0.15,0.69-0.36,0.96-0.63c0.27-0.27,0.48-0.59,0.64-0.95
			c0.15-0.36,0.23-0.76,0.23-1.19c0-0.43-0.08-0.83-0.23-1.19c-0.15-0.36-0.36-0.68-0.64-0.95c-0.27-0.27-0.59-0.49-0.96-0.64
			c-0.37-0.15-0.77-0.22-1.21-0.22c-0.43,0-0.83,0.07-1.2,0.22c-0.37,0.15-0.69,0.36-0.96,0.64s-0.49,0.59-0.64,0.95
			c-0.15,0.36-0.23,0.76-0.23,1.19c0,0.43,0.08,0.83,0.23,1.19c0.15,0.36,0.37,0.68,0.64,0.95c0.27,0.27,0.6,0.48,0.96,0.63
			C29.39,191.67,29.79,191.75,30.22,191.75z"/>
		<path class="st0" d="M41.97,192.65v-6.83h-2.67v-0.97h6.45v0.97h-2.67v6.83H41.97z"/>
		<path class="st0" d="M52.53,191.68h4.55v0.97h-5.66v-7.8h5.5v0.97h-4.39V191.68z M52.43,188.21h4.01v0.95h-4.01V188.21z"/>
		<path class="st0" d="M63.33,192.65v-7.8h1.11v6.83h4.22v0.97H63.33z"/>
		<path class="st0" d="M76.6,192.74c-0.59,0-1.16-0.09-1.7-0.27c-0.54-0.18-0.97-0.42-1.28-0.71l0.41-0.87
			c0.3,0.26,0.68,0.48,1.14,0.65c0.46,0.17,0.94,0.26,1.44,0.26c0.45,0,0.82-0.05,1.1-0.16c0.28-0.1,0.49-0.25,0.62-0.43
			c0.13-0.18,0.2-0.39,0.2-0.62c0-0.27-0.09-0.48-0.26-0.65c-0.17-0.16-0.4-0.29-0.68-0.4c-0.28-0.1-0.59-0.19-0.92-0.26
			s-0.67-0.16-1.01-0.26s-0.65-0.23-0.92-0.38c-0.28-0.16-0.5-0.37-0.67-0.63c-0.17-0.26-0.26-0.6-0.26-1.02
			c0-0.4,0.11-0.77,0.32-1.11s0.54-0.61,0.98-0.81c0.44-0.2,1-0.31,1.69-0.31c0.45,0,0.9,0.06,1.35,0.18
			c0.45,0.12,0.83,0.29,1.16,0.51l-0.37,0.89c-0.33-0.22-0.69-0.38-1.06-0.48c-0.37-0.1-0.73-0.15-1.08-0.15
			c-0.44,0-0.8,0.06-1.08,0.17c-0.28,0.11-0.49,0.26-0.62,0.45c-0.13,0.19-0.19,0.39-0.19,0.62c0,0.27,0.09,0.49,0.26,0.66
			c0.17,0.16,0.4,0.29,0.68,0.39c0.28,0.1,0.58,0.18,0.92,0.26c0.33,0.08,0.67,0.16,1.01,0.26c0.34,0.1,0.65,0.22,0.92,0.38
			c0.28,0.16,0.5,0.36,0.67,0.62c0.17,0.26,0.26,0.59,0.26,1c0,0.39-0.11,0.76-0.32,1.1c-0.22,0.34-0.55,0.61-1,0.81
			C77.85,192.64,77.29,192.74,76.6,192.74z"/>
		<path class="st0" d="M91.98,192.65l3.53-7.8h1.1l3.54,7.8h-1.17l-3.15-7.17h0.45l-3.15,7.17H91.98z M93.48,190.7l0.3-0.89h4.39
			l0.32,0.89H93.48z"/>
		<path class="st0" d="M105.77,192.65v-7.8h0.91l5.16,6.41h-0.48v-6.41h1.11v7.8h-0.91l-5.16-6.41h0.48v6.41H105.77z"/>
		<path class="st0" d="M119.27,192.65v-7.8h3.29c0.83,0,1.57,0.16,2.2,0.49c0.64,0.33,1.13,0.78,1.48,1.37
			c0.35,0.59,0.53,1.27,0.53,2.04c0,0.77-0.18,1.45-0.53,2.04c-0.35,0.59-0.85,1.04-1.48,1.37c-0.63,0.33-1.37,0.49-2.2,0.49H119.27
			z M120.39,191.68h2.11c0.65,0,1.21-0.12,1.68-0.37c0.47-0.25,0.84-0.59,1.1-1.03c0.26-0.44,0.39-0.95,0.39-1.53
			c0-0.59-0.13-1.1-0.39-1.54c-0.26-0.44-0.63-0.78-1.1-1.02c-0.47-0.25-1.03-0.37-1.68-0.37h-2.11V191.68z"/>
		<path class="st0" d="M140.39,192.65v-7.8h0.91l3.5,5.89h-0.49l3.45-5.89h0.91l0.01,7.8h-1.07l-0.01-6.12h0.26l-3.07,5.17h-0.51
			l-3.1-5.17h0.28v6.12H140.39z"/>
		<path class="st0" d="M159,192.74c-0.59,0-1.14-0.1-1.65-0.3c-0.51-0.2-0.95-0.48-1.32-0.84s-0.66-0.78-0.87-1.26
			c-0.21-0.48-0.31-1.01-0.31-1.58s0.1-1.1,0.31-1.58c0.21-0.48,0.5-0.9,0.87-1.26c0.37-0.36,0.81-0.64,1.31-0.84
			c0.51-0.2,1.06-0.3,1.66-0.3c0.59,0,1.14,0.1,1.65,0.3c0.5,0.2,0.94,0.48,1.31,0.84c0.37,0.36,0.66,0.78,0.86,1.27
			c0.2,0.49,0.31,1.02,0.31,1.59c0,0.58-0.1,1.11-0.31,1.59c-0.2,0.48-0.49,0.9-0.86,1.26c-0.37,0.36-0.81,0.64-1.31,0.84
			C160.15,192.64,159.6,192.74,159,192.74z M158.99,191.75c0.44,0,0.84-0.07,1.21-0.22c0.37-0.15,0.69-0.36,0.96-0.63
			c0.27-0.27,0.48-0.59,0.63-0.95c0.15-0.36,0.23-0.76,0.23-1.19c0-0.43-0.08-0.83-0.23-1.19c-0.15-0.36-0.36-0.68-0.63-0.95
			c-0.27-0.27-0.59-0.49-0.96-0.64c-0.37-0.15-0.77-0.22-1.21-0.22c-0.43,0-0.83,0.07-1.2,0.22c-0.37,0.15-0.69,0.36-0.96,0.64
			s-0.49,0.59-0.64,0.95c-0.15,0.36-0.23,0.76-0.23,1.19c0,0.43,0.08,0.83,0.23,1.19c0.15,0.36,0.37,0.68,0.64,0.95
			c0.27,0.27,0.6,0.48,0.96,0.63C158.16,191.67,158.56,191.75,158.99,191.75z"/>
		<path class="st0" d="M169.3,192.65v-7.8h3.04c0.68,0,1.27,0.11,1.75,0.32c0.48,0.22,0.85,0.53,1.11,0.94
			c0.26,0.41,0.39,0.9,0.39,1.46c0,0.57-0.13,1.05-0.39,1.45c-0.26,0.4-0.63,0.72-1.11,0.93c-0.48,0.22-1.07,0.32-1.75,0.32h-2.43
			l0.5-0.51v2.89H169.3z M170.41,189.87l-0.5-0.55h2.4c0.71,0,1.25-0.15,1.62-0.46c0.37-0.31,0.55-0.74,0.55-1.3
			s-0.18-0.99-0.55-1.29c-0.37-0.3-0.91-0.46-1.62-0.46h-2.4l0.5-0.56V189.87z M174.51,192.65l-1.98-2.83h1.19l2.01,2.83H174.51z"/>
		<path class="st0" d="M182.97,191.68h4.54v0.97h-5.66v-7.8h5.5v0.97h-4.39V191.68z M182.87,188.21h4.01v0.95h-4.01V188.21z"/>
	</g>
	<path class="st1" d="M100.36,111.37c2.08,0,3.77-1.69,3.77-3.77c0-2.08-1.69-3.77-3.77-3.77c-2.08,0-3.77,1.69-3.77,3.77
		C96.59,109.68,98.28,111.37,100.36,111.37z"/>
	<path class="st1" d="M32.75,133.73c-0.08,0-2.96,0.02-2.96,0.02c-1.23,0-2.27-0.16-3.11-0.49c-0.84-0.33-1.44-0.76-1.78-1.29
		c-0.35-0.53-0.58-1.01-0.71-1.42c-0.12-0.41-0.19-0.84-0.19-1.29c0-2.99,1.93-4.49,5.79-4.49h3.18v-0.05
		c1.3-0.15,2.31-1.24,2.31-2.58c0-1.34-1.01-2.43-2.31-2.58v-0.03h-0.28c0,0-0.01,0-0.01,0c0,0-0.01,0-0.01,0H28.5
		c-3.24,0-5.75,0.93-7.51,2.8c-1.76,1.87-2.65,4.05-2.65,6.55c0,1.89,0.53,3.51,1.6,4.86c0,0-3.98-0.02-4.06-0.02
		c-1.48,0-2.68,1.2-2.68,2.68c0,1.48,1.2,2.68,2.68,2.68c0.03,0,17.09-0.02,17.09-0.02c1.37-0.11,2.46-1.25,2.46-2.66
		C35.43,134.93,34.23,133.73,32.75,133.73z"/>
	<path class="st1" d="M147.25,144.67c-2.08,0-3.77,1.69-3.77,3.77c0,2.08,1.69,3.77,3.77,3.77c2.08,0,3.77-1.69,3.77-3.77
		C151.02,146.36,149.33,144.67,147.25,144.67z"/>
	<path class="st1" d="M181.45,112.58c-5.46,0-9.74,1.14-12.84,3.41c-1.77,1.33-3.11,3-4.03,5c-0.92,2-1.32,4.1-1.21,6.3
		c0.16,2.75,0.98,4.89,2.47,6.42H150.5c0.2-0.78,0.29-1.82,0.29-3.12v-15.12l-0.02,0c-0.09-1.42-1.25-2.55-2.7-2.55
		c-1.5,0-2.71,1.22-2.71,2.71c0,0.07,0.01,0.13,0.02,0.19v14.12c0,2.51-1.34,3.77-4,3.77h-16.79v-20.78
		c-1.88-0.24-3.91-0.35-6.06-0.35c-5.5,0-9.79,1.14-12.89,3.41c-1.77,1.3-3.12,2.94-4.06,4.94c-0.94,2-1.34,4.1-1.18,6.3
		c0.16,2.75,1,4.91,2.53,6.48H47.93c-2.75,0-4.12-1.31-4.12-3.94c0,0-0.02-28.97-0.03-30.61c-1.81,0.25-3.61,0.51-5.39,0.78v30.65
		c0,2.94,0.73,5.1,2.18,6.48c1.45,1.37,3.73,2.06,6.83,2.06h94.44c3.22,0,5.57-0.77,7.06-2.3v2.3h38.61v-26.2
		C185.63,112.7,183.61,112.58,181.45,112.58z M119.16,133.72h-5.36c-5.14,0-7.71-2.3-7.71-6.89c0-2.51,0.95-4.59,2.86-6.24
		c1.9-1.65,4.33-2.47,7.27-2.47c1.18,0,2.16,0.04,2.95,0.12V133.72z M182.1,133.72h-5.36c-2.87,0-4.87-0.67-6-2
		c-1.14-1.33-1.71-2.96-1.71-4.89c0-2.47,0.96-4.54,2.89-6.21c1.92-1.67,4.36-2.5,7.3-2.5c1.22,0,2.18,0.04,2.89,0.12V133.72z"/>
	<path class="st1" d="M137.82,144.67c-2.08,0-3.77,1.69-3.77,3.77c0,2.08,1.69,3.77,3.77,3.77s3.77-1.69,3.77-3.77
		C141.59,146.36,139.9,144.67,137.82,144.67z"/>
	<g>
		<path class="st1" d="M38.35,19.88v43.09h0v0.05c0,0.05-0.01,0.09-0.01,0.14c0,0.05,0.01,0.09,0.01,0.14v27.85
			c1.71-0.36,3.45-0.7,5.2-1.02V68.86l0,0V28.76l18.2,10.2V33L38.35,19.88z"/>
		<polygon class="st2" points="141.03,61.56 141.03,6.66 100.57,30.03 59.7,7.12 59.7,64.02 64.58,64.43 64.58,15.47 100.61,35.66 
			136.14,15.13 136.07,64.69 		"/>
		<path class="st2" d="M162.87,47.14v5.99l19.44-11.14v51.77c1.79,0.58,3.53,0.32,5.2,0.94V33.02L162.87,47.14z"/>
		<path class="st2" d="M153.14,52.68l-52.03,29.99l-87.9-47.9v59.92c1.67-0.62,3.41-0.35,5.2-0.93V43.54l76.7,41.79h11.87
			l46.16-26.69V52.68z"/>
		<path class="st1" d="M100.92,54.95L68.91,37.06v5.89l32.05,17.98l56.72-32.77v61.19c1.76,0.33,3.5,0.67,5.2,1.03V19.16
			L100.92,54.95z"/>
		<path class="st2" d="M13.21,99.45c26.27-6.08,56.16-9.32,87.32-9.32c31.03,0,60.79,3.21,86.99,9.24v-5.3
			c-25.75-5.82-55.41-9.14-86.99-9.14c-31.71,0-61.49,3.35-87.32,9.21V99.45z"/>
	</g>
</g>
</svg>
