<?xml version="1.0" encoding="utf-8"?>
<!-- Generator: Adobe Illustrator 27.2.0, SVG Export Plug-In . SVG Version: 6.00 Build 0)  -->
<svg version="1.1" id="svg315" xmlns:svg="http://www.w3.org/2000/svg"
	 xmlns="http://www.w3.org/2000/svg" xmlns:xlink="http://www.w3.org/1999/xlink" x="0px" y="0px" viewBox="0 0 300 300"
	 style="enable-background:new 0 0 300 300;" xml:space="preserve">
<style type="text/css">
	.st0{opacity:0.5;fill:#CFB384;}
</style>
<path class="st0" d="M150.47,105.26c3.98,0,7.21-3.23,7.21-7.21s-3.23-7.21-7.21-7.21c-31.85,0-57.68,25.82-57.68,57.68
	c0,31.85,25.82,57.68,57.68,57.68c31.86,0,57.68-25.82,57.68-57.68c0-3.98-3.23-7.21-7.21-7.21s-7.21,3.23-7.21,7.21
	c0,23.89-19.37,43.26-43.26,43.26c-23.89,0-43.26-19.37-43.26-43.26C107.21,124.63,126.58,105.26,150.47,105.26z"/>
<path class="st0" d="M288.03,105.7c-1.25-3.78-5.33-5.83-9.12-4.58c-3.7,1.22-5.75,5.16-4.65,8.89
	c21.56,68.66-16.62,141.8-85.28,163.36c-68.66,21.56-141.8-16.62-163.36-85.28C4.06,119.43,42.24,46.29,110.9,24.73
	c25.42-7.98,52.67-7.98,78.08,0c3.82,1.15,7.84-1.01,8.99-4.83c1.13-3.76-0.95-7.73-4.68-8.95
	C117.05-12.96,35.86,29.45,11.94,105.69c-23.92,76.24,18.5,157.44,94.74,181.36c76.24,23.92,157.44-18.49,181.36-94.74
	C296.88,164.12,296.88,133.89,288.03,105.7z"/>
<path class="st0" d="M164.2,55.79c0.04-4.11-3.12-7.54-7.21-7.84c-2.15-0.18-4.31-0.37-6.52-0.37
	c-55.75,0-100.94,45.19-100.94,100.94c0,55.75,45.19,100.94,100.94,100.94c55.75,0,100.94-45.19,100.94-100.94
	c0-2.61-0.16-5.21-0.48-7.8c-0.58-3.96-4.25-6.7-8.21-6.12c-3.96,0.57-6.7,4.25-6.12,8.21c0.02,0.15,0.05,0.3,0.08,0.45
	c0.16,1.75,0.31,3.48,0.31,5.26c0,47.78-38.73,86.52-86.52,86.52c-47.78,0-86.52-38.74-86.52-86.52c0-47.78,38.73-86.52,86.52-86.52
	h0c1.79,0,3.52,0.15,5.26,0.31l1.35,0.11c3.77,0.16,6.95-2.76,7.11-6.53C164.2,55.86,164.2,55.83,164.2,55.79z"/>
<path class="st0" d="M193.73,69.21v25.85l-48.36,48.36c-2.86,2.77-2.94,7.33-0.18,10.2c2.77,2.86,7.33,2.94,10.2,0.18
	c0.06-0.06,0.12-0.12,0.18-0.18l48.36-48.36h25.85c1.91,0,3.75-0.76,5.1-2.11l43.26-43.26c2.82-2.82,2.82-7.38,0-10.2
	c-1.35-1.35-3.18-2.11-5.1-2.11h-21.63V25.95c0-3.98-3.23-7.21-7.21-7.21c-1.91,0-3.74,0.76-5.09,2.11l-43.26,43.26
	C194.49,65.47,193.73,67.3,193.73,69.21z M208.15,72.2l28.84-28.84v11.43c0,3.98,3.23,7.21,7.21,7.21h11.43l-28.84,28.84h-18.64
	V72.2z"/>
</svg>
