<?xml version="1.0" encoding="utf-8"?>
<!-- Generator: Adobe Illustrator 27.2.0, SVG Export Plug-In . SVG Version: 6.00 Build 0)  -->
<svg version="1.1" id="Layer_1" xmlns="http://www.w3.org/2000/svg" xmlns:xlink="http://www.w3.org/1999/xlink" x="0px" y="0px"
	 viewBox="0 0 300 219.81" style="enable-background:new 0 0 300 219.81;" xml:space="preserve">
<style type="text/css">
	.st0{fill:#9E0B0F;}
	.st1{fill:#C5AA7E;}
	.st2{fill:#DDD0BC;}
	
		.st3{clip-path:url(#SVGID_00000129904113710793377540000000221447168261777071_);fill-rule:evenodd;clip-rule:evenodd;fill:#EEDEC0;}
	
		.st4{clip-path:url(#SVGID_00000129904113710793377540000000221447168261777071_);fill-rule:evenodd;clip-rule:evenodd;fill:#E6C39B;}
	.st5{clip-path:url(#SVGID_00000129904113710793377540000000221447168261777071_);fill:#1D1D1B;}
	
		.st6{clip-path:url(#SVGID_00000129904113710793377540000000221447168261777071_);fill-rule:evenodd;clip-rule:evenodd;fill:#009540;}
	
		.st7{clip-path:url(#SVGID_00000129904113710793377540000000221447168261777071_);fill-rule:evenodd;clip-rule:evenodd;fill:#007436;}
	
		.st8{clip-path:url(#SVGID_00000129904113710793377540000000221447168261777071_);fill-rule:evenodd;clip-rule:evenodd;fill:#957E61;}
	
		.st9{clip-path:url(#SVGID_00000129904113710793377540000000221447168261777071_);fill-rule:evenodd;clip-rule:evenodd;fill:#1D1D1B;}
	.st10{clip-path:url(#SVGID_00000129904113710793377540000000221447168261777071_);fill:#FFFFFF;}
</style>
<path class="st0" d="M163.5,115.04v-6.65h-24.73l1.63,2.96l14.45-13.72c1.93-1.85,3.41-3.53,4.41-5.02
	c1.01-1.49,1.69-2.91,2.06-4.26c0.36-1.35,0.54-2.71,0.54-4.08c0-2.5-0.62-4.66-1.84-6.47c-1.23-1.81-2.98-3.21-5.26-4.2
	c-2.28-0.99-4.95-1.48-8.01-1.48c-3.47,0-6.6,0.62-9.4,1.84c-2.8,1.23-5.03,2.95-6.68,5.17l5.5,4.23c1.21-1.49,2.65-2.6,4.32-3.33
	c1.67-0.73,3.54-1.09,5.59-1.09c2.58,0,4.53,0.53,5.86,1.6c1.33,1.07,2,2.57,2,4.5c0,0.77-0.11,1.58-0.33,2.45
	c-0.22,0.87-0.68,1.8-1.36,2.81c-0.69,1.01-1.73,2.18-3.14,3.51l-16.81,15.96v5.26H163.5z M120.66,113.8
	c2.48-1.23,4.32-2.85,5.53-4.87c1.21-2.01,1.81-4.21,1.81-6.59c0-3.63-1.3-6.6-3.9-8.92c-2.6-2.32-6.5-3.48-11.7-3.48h-2.36
	l4.11,2.42l12.09-14.39v-5.26H97.41v6.59h22.73l-1.03-2.96l-12.09,14.39v5.38h3.87c3.22,0,5.56,0.56,7.01,1.69
	c1.45,1.13,2.18,2.66,2.18,4.6c0,1.98-0.79,3.54-2.36,4.69c-1.57,1.15-3.77,1.72-6.59,1.72c-2.38,0-4.66-0.38-6.83-1.15
	c-2.18-0.77-4.03-1.77-5.56-3.02l-3.39,6.11c1.93,1.53,4.32,2.73,7.16,3.6c2.84,0.87,5.75,1.3,8.74,1.3
	C115.05,115.65,118.18,115.03,120.66,113.8 M85.77,113.8c2.48-1.23,4.32-2.85,5.53-4.87c1.21-2.01,1.81-4.21,1.81-6.59
	c0-3.63-1.3-6.6-3.9-8.92c-2.6-2.32-6.5-3.48-11.7-3.48h-2.36l4.11,2.42l12.09-14.39v-5.26H62.53v6.59h22.73l-1.03-2.96L72.14,90.74
	v5.38h3.87c3.22,0,5.56,0.56,7.01,1.69c1.45,1.13,2.18,2.66,2.18,4.6c0,1.98-0.79,3.54-2.36,4.69c-1.57,1.15-3.77,1.72-6.59,1.72
	c-2.38,0-4.66-0.38-6.83-1.15c-2.18-0.77-4.03-1.77-5.56-3.02l-3.39,6.11c1.93,1.53,4.32,2.73,7.16,3.6c2.84,0.87,5.75,1.3,8.74,1.3
	C80.16,115.65,83.29,115.03,85.77,113.8"/>
<path class="st1" d="M187.5,205.97c0,0.15,0.05,0.27,0.15,0.38c0.1,0.11,0.22,0.16,0.37,0.16h1.35c0.15,0,0.27-0.05,0.36-0.16
	c0.09-0.11,0.14-0.24,0.14-0.38v-19.57c0-0.15-0.05-0.27-0.14-0.38c-0.09-0.11-0.21-0.16-0.36-0.16h-1.35
	c-0.15,0-0.27,0.05-0.37,0.16c-0.1,0.11-0.15,0.24-0.15,0.38V205.97z M176.12,206.14c0,0.13,0.09,0.22,0.27,0.29
	c0.18,0.06,0.4,0.1,0.66,0.1h1.46c0.31,0,0.65,0,1-0.01s0.7-0.03,1.03-0.05c0.33-0.03,0.63-0.05,0.91-0.08s0.49-0.07,0.63-0.12
	c0.22-0.09,0.37-0.2,0.44-0.33c0.07-0.13,0.13-0.28,0.16-0.47c0.04-0.22,0.06-0.47,0.08-0.74c0.02-0.27,0.03-0.56,0.04-0.85
	c0.01-0.29,0.01-0.58,0.01-0.85v-0.74v-15.86c0-0.15-0.05-0.27-0.14-0.37c-0.09-0.1-0.21-0.15-0.36-0.15h-1.35
	c-0.15,0-0.27,0.05-0.37,0.15c-0.1,0.1-0.15,0.22-0.15,0.37v16.76c0,0.48-0.07,0.76-0.21,0.85c-0.14,0.09-0.47,0.14-1,0.14h-2.2
	c-0.26,0-0.48,0.03-0.66,0.1c-0.18,0.06-0.27,0.15-0.27,0.26V206.14z M166.77,197.26c0.52-0.66,1.39-0.99,2.6-0.99
	c1.19,0,2.03,0.33,2.51,1c0.49,0.67,0.73,1.63,0.73,2.87v1.26c0,1.26-0.25,2.2-0.74,2.82c-0.49,0.61-1.35,0.92-2.56,0.92
	c-0.88,0-1.59-0.17-2.14-0.52c-0.55-0.35-0.91-0.91-1.07-1.68c-0.07-0.42-0.11-0.93-0.11-1.54v-1.26
	C165.98,198.88,166.25,197.92,166.77,197.26 M159.83,206.14c0,0.13,0.09,0.22,0.27,0.29c0.18,0.06,0.4,0.1,0.66,0.1h0.66
	c0.68,0,1.31-0.07,1.9-0.21c0.59-0.14,1.06-0.42,1.43-0.84c0.42,0.62,1.03,1.09,1.83,1.39c0.8,0.3,1.71,0.45,2.73,0.45
	c2.07,0,3.54-0.62,4.4-1.87c0.35,0.37,0.81,0.64,1.39,0.81s1.17,0.26,1.77,0.26h0.36v-2.36h-0.36c-0.15,0-0.33-0.02-0.55-0.05
	c-0.22-0.04-0.44-0.1-0.65-0.19c-0.21-0.09-0.4-0.22-0.56-0.38c-0.16-0.16-0.26-0.38-0.27-0.63c0.04-0.2,0.06-0.43,0.07-0.69
	c0.01-0.26,0.01-0.49,0.01-0.71v-1.54c0-1.92-0.47-3.38-1.4-4.37c-0.93-0.99-2.32-1.48-4.15-1.48c-1.83,0-3.24,0.5-4.22,1.51
	c-0.98,1.01-1.47,2.46-1.47,4.34v2.64c0,0.31-0.03,0.58-0.08,0.8c-0.04,0.18-0.13,0.33-0.29,0.43c-0.16,0.1-0.34,0.18-0.54,0.23
	c-0.2,0.05-0.41,0.09-0.62,0.1c-0.21,0.01-0.38,0.01-0.51,0.01h-0.88c-0.26,0-0.48,0.03-0.66,0.1c-0.18,0.06-0.27,0.15-0.27,0.26
	V206.14z M148.75,206.06c0,0.15,0.05,0.26,0.16,0.34c0.11,0.08,0.24,0.12,0.38,0.12h11.63v-2.36h-1.81l-0.03-3.52
	c-0.04-0.99-0.18-1.9-0.43-2.72c-0.25-0.82-0.64-1.54-1.17-2.14c-0.53-0.6-1.23-1.07-2.09-1.4c-0.86-0.33-1.91-0.49-3.13-0.49
	c-0.2,0-0.52,0.01-0.95,0.03c-0.43,0.02-0.88,0.06-1.36,0.14c-0.2,0.02-0.34,0.07-0.43,0.16c-0.08,0.09-0.12,0.21-0.12,0.36v1.13
	c0,0.29,0.18,0.42,0.55,0.38c0.27-0.04,0.6-0.06,0.98-0.07c0.38-0.01,0.66-0.01,0.87-0.01c1.74,0,3,0.39,3.77,1.18
	c0.77,0.79,1.17,1.99,1.21,3.6l0.03,3.38h-7.5c-0.15,0-0.27,0.05-0.38,0.14c-0.11,0.09-0.16,0.21-0.16,0.36V206.06z M143.42,211.17
	c0,0.15,0.07,0.28,0.21,0.4c0.14,0.12,0.29,0.18,0.45,0.18h1.07c0.16,0,0.31-0.06,0.44-0.18c0.13-0.12,0.19-0.25,0.19-0.4v-1.48
	c0-0.18-0.06-0.33-0.19-0.44c-0.13-0.11-0.27-0.16-0.44-0.16h-1.07c-0.16,0-0.32,0.05-0.45,0.16c-0.14,0.11-0.21,0.26-0.21,0.44
	V211.17z M138.94,211.17c0,0.15,0.06,0.28,0.18,0.4c0.12,0.12,0.27,0.18,0.45,0.18h1.07c0.16,0,0.31-0.06,0.44-0.18
	c0.13-0.12,0.19-0.25,0.19-0.4v-1.48c0-0.18-0.06-0.33-0.18-0.44c-0.12-0.11-0.27-0.16-0.45-0.16h-1.07c-0.18,0-0.33,0.05-0.45,0.16
	c-0.12,0.11-0.18,0.26-0.18,0.44V211.17z M138.83,206.14c0,0.13,0.09,0.22,0.27,0.29c0.18,0.06,0.4,0.1,0.66,0.1H141
	c0.31,0,0.64,0,0.99-0.01c0.35-0.01,0.69-0.03,1.02-0.05c0.33-0.03,0.62-0.05,0.88-0.08c0.26-0.03,0.46-0.07,0.6-0.12
	c0.22-0.09,0.37-0.2,0.45-0.33c0.08-0.13,0.14-0.28,0.18-0.47c0.05-0.42,0.09-1.01,0.1-1.76c0.01-0.75,0.01-1.57,0.01-2.45v-1.42
	v-1.15c0-0.38-0.01-0.77-0.01-1.2c-0.01-0.42-0.02-0.94-0.04-1.57c0-0.15-0.05-0.27-0.14-0.37c-0.09-0.1-0.22-0.15-0.38-0.15h-1.32
	c-0.15,0-0.26,0.05-0.34,0.15s-0.12,0.22-0.12,0.37c0.02,0.71,0.03,1.37,0.04,1.98c0.01,0.6,0.01,1.19,0.01,1.76v1.7v1.81
	c0,0.48-0.07,0.76-0.22,0.85c-0.15,0.09-0.49,0.14-1.02,0.14h-1.92c-0.26,0-0.48,0.03-0.66,0.1c-0.18,0.06-0.27,0.15-0.27,0.26
	V206.14z M135.04,191.27c0,0.16,0.06,0.3,0.18,0.41c0.12,0.11,0.27,0.16,0.45,0.16h1.17c0.18,0,0.33-0.05,0.45-0.16
	c0.12-0.11,0.18-0.25,0.18-0.41v-1.48c0-0.18-0.06-0.33-0.18-0.44c-0.12-0.11-0.26-0.16-0.42-0.16h-1.2c-0.16,0-0.31,0.05-0.44,0.16
	c-0.13,0.11-0.19,0.26-0.19,0.44V191.27z M130.97,206.14c0,0.13,0.09,0.22,0.27,0.29c0.18,0.06,0.4,0.1,0.66,0.1h0.91
	c0.51,0,1.09-0.06,1.72-0.18c0.63-0.12,1.18-0.36,1.64-0.73c0.42,0.37,0.96,0.61,1.61,0.73c0.65,0.12,1.26,0.18,1.83,0.18h0.33
	v-2.36h-0.38c-0.16,0-0.36-0.01-0.58-0.03c-0.22-0.02-0.44-0.05-0.65-0.1c-0.21-0.05-0.4-0.11-0.58-0.19
	c-0.17-0.08-0.29-0.2-0.34-0.34v-7.56c0-0.15-0.05-0.27-0.15-0.37c-0.1-0.1-0.23-0.15-0.37-0.15h-1.26c-0.15,0-0.27,0.05-0.37,0.15
	c-0.1,0.1-0.15,0.22-0.15,0.37v7.2c0,0.24-0.07,0.43-0.21,0.56c-0.14,0.14-0.31,0.24-0.51,0.3c-0.2,0.06-0.41,0.11-0.63,0.12
	c-0.22,0.02-0.42,0.03-0.6,0.03h-1.24c-0.26,0-0.48,0.03-0.66,0.1c-0.18,0.06-0.27,0.15-0.27,0.26V206.14z M125.5,190.2
	c0,0.16,0.07,0.3,0.21,0.41c0.14,0.11,0.29,0.16,0.45,0.16h1.07c0.16,0,0.31-0.05,0.44-0.16c0.13-0.11,0.19-0.25,0.19-0.41v-1.48
	c0-0.18-0.06-0.33-0.19-0.44c-0.13-0.11-0.27-0.16-0.44-0.16h-1.07c-0.16,0-0.32,0.05-0.45,0.16c-0.14,0.11-0.21,0.26-0.21,0.44
	V190.2z M121.02,190.2c0,0.16,0.06,0.3,0.18,0.41c0.12,0.11,0.27,0.16,0.45,0.16h1.07c0.16,0,0.31-0.05,0.44-0.16
	c0.13-0.11,0.19-0.25,0.19-0.41v-1.48c0-0.18-0.06-0.33-0.18-0.44c-0.12-0.11-0.27-0.16-0.45-0.16h-1.07
	c-0.18,0-0.33,0.05-0.45,0.16c-0.12,0.11-0.18,0.26-0.18,0.44V190.2z M120.97,199.72c0-0.74,0.11-1.35,0.34-1.83
	c0.23-0.49,0.54-0.87,0.93-1.16c0.39-0.28,0.87-0.48,1.42-0.59c0.55-0.11,1.15-0.17,1.81-0.17c0.24,0,0.49,0.01,0.77,0.03
	c0.27,0.02,0.59,0.05,0.96,0.08v6.26c0,0.3-0.07,0.54-0.22,0.73c-0.15,0.19-0.34,0.34-0.58,0.45c-0.24,0.11-0.5,0.18-0.8,0.22
	c-0.29,0.04-0.58,0.05-0.85,0.05h-0.52c-1.19,0-2.03-0.31-2.53-0.92c-0.49-0.62-0.74-1.48-0.74-2.58V199.72z M118.66,200.59
	c0,1.78,0.46,3.13,1.37,4.07c0.92,0.93,2.23,1.4,3.93,1.4h0.25c0.77,0,1.48-0.09,2.13-0.26s1.13-0.46,1.44-0.87
	c0.29,0.59,0.72,1,1.28,1.24c0.56,0.24,1.25,0.36,2.07,0.36h0.93v-2.36h-0.63c-0.59,0-1.05-0.11-1.4-0.32
	c-0.35-0.21-0.52-0.68-0.52-1.42v-7.72c0-0.15-0.02-0.26-0.07-0.34c-0.05-0.08-0.16-0.14-0.34-0.18c-0.2-0.05-0.44-0.11-0.71-0.15
	c-0.27-0.05-0.56-0.09-0.87-0.12c-0.3-0.04-0.61-0.06-0.92-0.08c-0.31-0.02-0.59-0.03-0.82-0.03c-1.04,0-2,0.11-2.87,0.34
	c-0.87,0.23-1.62,0.59-2.25,1.07c-0.63,0.49-1.12,1.11-1.47,1.88c-0.35,0.77-0.52,1.69-0.52,2.78V200.59z M105.3,205.97
	c0,0.15,0.05,0.27,0.15,0.38c0.1,0.11,0.22,0.16,0.37,0.16h1.35c0.15,0,0.27-0.05,0.36-0.16c0.09-0.11,0.14-0.24,0.14-0.38v-19.57
	c0-0.15-0.05-0.27-0.14-0.38c-0.09-0.11-0.21-0.16-0.36-0.16h-1.35c-0.15,0-0.27,0.05-0.37,0.16c-0.1,0.11-0.15,0.24-0.15,0.38
	V205.97z M93.93,206.14c0,0.13,0.09,0.22,0.27,0.29c0.18,0.06,0.4,0.1,0.66,0.1h1.46c0.31,0,0.65,0,1-0.01
	c0.36-0.01,0.7-0.03,1.03-0.05s0.63-0.05,0.91-0.08c0.27-0.03,0.49-0.07,0.63-0.12c0.22-0.09,0.37-0.2,0.44-0.33
	c0.07-0.13,0.13-0.28,0.16-0.47c0.04-0.22,0.06-0.47,0.08-0.74c0.02-0.27,0.03-0.56,0.04-0.85c0.01-0.29,0.01-0.58,0.01-0.85v-0.74
	v-15.86c0-0.15-0.05-0.27-0.14-0.37c-0.09-0.1-0.21-0.15-0.36-0.15h-1.35c-0.15,0-0.27,0.05-0.37,0.15s-0.15,0.22-0.15,0.37v16.76
	c0,0.48-0.07,0.76-0.21,0.85c-0.14,0.09-0.47,0.14-1,0.14h-2.2c-0.26,0-0.48,0.03-0.66,0.1c-0.18,0.06-0.27,0.15-0.27,0.26V206.14z
	 M84.57,197.26c0.52-0.66,1.39-0.99,2.6-0.99c1.19,0,2.03,0.33,2.51,1c0.49,0.67,0.73,1.63,0.73,2.87v1.26
	c0,1.26-0.25,2.2-0.74,2.82c-0.49,0.61-1.35,0.92-2.56,0.92c-0.88,0-1.59-0.17-2.14-0.52c-0.55-0.35-0.91-0.91-1.07-1.68
	c-0.07-0.42-0.11-0.93-0.11-1.54v-1.26C83.79,198.88,84.05,197.92,84.57,197.26 M77.63,206.14c0,0.13,0.09,0.22,0.27,0.29
	c0.18,0.06,0.4,0.1,0.66,0.1h0.66c0.68,0,1.31-0.07,1.9-0.21c0.59-0.14,1.06-0.42,1.43-0.84c0.42,0.62,1.03,1.09,1.83,1.39
	c0.8,0.3,1.71,0.45,2.73,0.45c2.07,0,3.54-0.62,4.4-1.87c0.35,0.37,0.81,0.64,1.39,0.81c0.58,0.17,1.17,0.26,1.77,0.26h0.36v-2.36
	h-0.36c-0.15,0-0.33-0.02-0.55-0.05c-0.22-0.04-0.44-0.1-0.65-0.19c-0.21-0.09-0.4-0.22-0.56-0.38c-0.16-0.16-0.26-0.38-0.27-0.63
	c0.04-0.2,0.06-0.43,0.07-0.69c0.01-0.26,0.01-0.49,0.01-0.71v-1.54c0-1.92-0.47-3.38-1.4-4.37c-0.93-0.99-2.32-1.48-4.15-1.48
	c-1.83,0-3.24,0.5-4.22,1.51c-0.98,1.01-1.47,2.46-1.47,4.34v2.64c0,0.31-0.03,0.58-0.08,0.8c-0.04,0.18-0.13,0.33-0.29,0.43
	c-0.16,0.1-0.34,0.18-0.54,0.23c-0.2,0.05-0.41,0.09-0.62,0.1c-0.21,0.01-0.38,0.01-0.51,0.01h-0.88c-0.26,0-0.48,0.03-0.66,0.1
	c-0.18,0.06-0.27,0.15-0.27,0.26V206.14z M73.84,191.27c0,0.16,0.06,0.3,0.18,0.41c0.12,0.11,0.27,0.16,0.45,0.16h1.17
	c0.18,0,0.33-0.05,0.45-0.16c0.12-0.11,0.18-0.25,0.18-0.41v-1.48c0-0.18-0.06-0.33-0.18-0.44c-0.12-0.11-0.26-0.16-0.42-0.16h-1.2
	c-0.16,0-0.31,0.05-0.43,0.16c-0.13,0.11-0.19,0.26-0.19,0.44V191.27z M69.77,206.14c0,0.13,0.09,0.22,0.27,0.29
	c0.18,0.06,0.4,0.1,0.66,0.1h0.91c0.51,0,1.09-0.06,1.72-0.18c0.63-0.12,1.18-0.36,1.64-0.73c0.42,0.37,0.96,0.61,1.61,0.73
	c0.65,0.12,1.26,0.18,1.83,0.18h0.33v-2.36h-0.38c-0.16,0-0.36-0.01-0.58-0.03c-0.22-0.02-0.44-0.05-0.65-0.1
	c-0.21-0.05-0.4-0.11-0.58-0.19c-0.17-0.08-0.29-0.2-0.34-0.34v-7.56c0-0.15-0.05-0.27-0.15-0.37c-0.1-0.1-0.23-0.15-0.37-0.15
	h-1.26c-0.15,0-0.27,0.05-0.37,0.15c-0.1,0.1-0.15,0.22-0.15,0.37v7.2c0,0.24-0.07,0.43-0.21,0.56c-0.14,0.14-0.31,0.24-0.51,0.3
	c-0.2,0.06-0.41,0.11-0.63,0.12c-0.22,0.02-0.42,0.03-0.6,0.03H70.7c-0.26,0-0.48,0.03-0.66,0.1c-0.18,0.06-0.27,0.15-0.27,0.26
	V206.14z M59.96,199.96c0-1.26,0.35-2.24,1.06-2.91c0.7-0.68,1.66-1.02,2.87-1.02c0.46,0,0.86,0.01,1.21,0.03
	c0.35,0.02,0.7,0.05,1.07,0.08v8.08h-2.72c-1.23,0-2.12-0.29-2.67-0.88c-0.55-0.59-0.82-1.53-0.82-2.83V199.96z M58.61,212.36
	c0,0.13,0.03,0.22,0.08,0.29c0.05,0.06,0.17,0.11,0.36,0.15c0.09,0.02,0.26,0.04,0.49,0.05c0.24,0.02,0.5,0.03,0.78,0.04
	c0.28,0.01,0.57,0.02,0.85,0.03c0.28,0.01,0.52,0.01,0.7,0.01c0.95,0,1.83-0.09,2.62-0.26c0.8-0.17,1.48-0.47,2.05-0.88
	c0.57-0.41,1.02-0.96,1.35-1.65c0.33-0.69,0.51-1.54,0.55-2.57v-1.04h2.42v-2.36h-2.39v-9.4c0-0.15-0.03-0.25-0.08-0.32
	c-0.05-0.06-0.16-0.12-0.33-0.18c-0.48-0.15-1.06-0.25-1.75-0.32c-0.69-0.06-1.4-0.1-2.13-0.1c-2.09,0-3.7,0.56-4.84,1.68
	c-1.14,1.12-1.7,2.64-1.7,4.56v0.69c0,1.92,0.49,3.36,1.48,4.31c0.99,0.95,2.41,1.43,4.26,1.43h2.75v1.11
	c-0.02,0.66-0.14,1.2-0.36,1.62c-0.22,0.41-0.54,0.74-0.95,0.97c-0.41,0.23-0.91,0.39-1.48,0.47c-0.58,0.08-1.23,0.13-1.96,0.13
	c-0.29,0-0.68,0-1.15-0.01c-0.48-0.01-0.87-0.01-1.18-0.01c-0.29,0-0.44,0.13-0.44,0.38V212.36z M47.29,212.38
	c0,0.13,0.03,0.22,0.08,0.29c0.05,0.06,0.17,0.11,0.36,0.15c0.18,0.04,0.43,0.06,0.73,0.08c0.3,0.02,0.5,0.03,0.59,0.03
	c1.06,0,1.92-0.13,2.57-0.38c0.65-0.26,1.16-0.7,1.53-1.35c0.24-0.44,0.39-0.93,0.45-1.48c0.06-0.55,0.1-1.14,0.1-1.76v-12.01
	c0-0.15-0.05-0.27-0.14-0.37c-0.09-0.1-0.2-0.15-0.33-0.15h-1.35c-0.15,0-0.27,0.05-0.36,0.15c-0.09,0.1-0.14,0.22-0.14,0.37v12.17
	c0,0.6-0.05,1.09-0.14,1.44c-0.09,0.36-0.26,0.63-0.49,0.81c-0.24,0.18-0.55,0.3-0.93,0.36s-0.88,0.08-1.48,0.08h-0.58
	c-0.31,0-0.47,0.13-0.47,0.38V212.38z M37.51,199.96c0-1.26,0.33-2.24,0.98-2.91c0.65-0.68,1.64-1.02,2.95-1.02
	c0.48,0,0.89,0.01,1.24,0.03c0.35,0.02,0.7,0.05,1.04,0.08v7.97c-0.4,0.05-0.75,0.09-1.04,0.1c-0.29,0.01-0.65,0.01-1.07,0.01
	c-1.45,0-2.49-0.29-3.13-0.88s-0.96-1.53-0.96-2.83V199.96z M35.2,200.78c0,1.92,0.53,3.36,1.59,4.31c1.06,0.95,2.62,1.43,4.67,1.43
	h0.38c0.53,0,1.09-0.01,1.66-0.04s1.19-0.1,1.83-0.21c0.18-0.04,0.33-0.09,0.44-0.15c0.11-0.06,0.16-0.2,0.16-0.4
	c0.02-0.26,0.03-0.55,0.04-0.87c0.01-0.32,0.02-0.65,0.03-0.99c0.01-0.34,0.01-0.67,0.01-0.99v-0.84v-7.28
	c0-0.15-0.02-0.25-0.07-0.32c-0.05-0.06-0.16-0.12-0.34-0.18c-0.48-0.15-1.06-0.25-1.76-0.32c-0.7-0.06-1.41-0.1-2.14-0.1
	c-2.18,0-3.81,0.56-4.89,1.68s-1.62,2.64-1.62,4.56V200.78z M42.04,190.2c0,0.16,0.07,0.3,0.21,0.41s0.29,0.16,0.45,0.16h1.07
	c0.16,0,0.31-0.05,0.44-0.16c0.13-0.11,0.19-0.25,0.19-0.41v-1.48c0-0.18-0.06-0.33-0.19-0.44c-0.13-0.11-0.27-0.16-0.44-0.16H42.7
	c-0.16,0-0.32,0.05-0.45,0.16s-0.21,0.26-0.21,0.44V190.2z M37.56,190.2c0,0.16,0.06,0.3,0.18,0.41c0.12,0.11,0.27,0.16,0.45,0.16
	h1.07c0.16,0,0.31-0.05,0.44-0.16s0.19-0.25,0.19-0.41v-1.48c0-0.18-0.06-0.33-0.18-0.44c-0.12-0.11-0.27-0.16-0.45-0.16h-1.07
	c-0.18,0-0.33,0.05-0.45,0.16c-0.12,0.11-0.18,0.26-0.18,0.44V190.2z"/>
<path class="st1" d="M195.25,153.5c0,0.16,0.06,0.3,0.18,0.41c0.12,0.11,0.27,0.16,0.45,0.16h1.17c0.18,0,0.33-0.05,0.45-0.16
	c0.12-0.11,0.18-0.25,0.18-0.41v-1.48c0-0.18-0.06-0.33-0.18-0.44c-0.12-0.11-0.26-0.16-0.42-0.16h-1.2c-0.16,0-0.31,0.05-0.43,0.16
	c-0.13,0.11-0.19,0.26-0.19,0.44V153.5z M187.5,169.49c0,0.13,0.09,0.22,0.27,0.29c0.18,0.06,0.4,0.1,0.66,0.1h7.94
	c0.73,0,1.45,0,2.16-0.01c0.7-0.01,1.44-0.05,2.21-0.12c0.38-0.04,0.59-0.21,0.6-0.52c0.02-0.27,0.04-0.58,0.05-0.91
	s0.03-0.67,0.04-1.03c0.01-0.36,0.01-0.71,0.01-1.07v-1v-7.2c0-0.15-0.03-0.26-0.08-0.33c-0.05-0.07-0.17-0.13-0.36-0.16
	c-0.49-0.15-1.11-0.25-1.84-0.32c-0.73-0.06-1.48-0.1-2.25-0.1c-1.98,0-3.53,0.52-4.66,1.57s-1.69,2.49-1.69,4.34v0.66
	c0,0.93,0.11,1.71,0.34,2.34c0.23,0.62,0.52,1.13,0.87,1.51h-3.35c-0.26,0-0.48,0.03-0.66,0.1c-0.18,0.06-0.27,0.15-0.27,0.26
	V169.49z M192.89,163.06c0-1.25,0.33-2.19,0.98-2.83c0.65-0.64,1.61-0.96,2.87-0.96c0.48,0,0.91,0.01,1.29,0.03
	c0.38,0.02,0.76,0.05,1.13,0.11v8.08c-0.38,0.04-0.82,0.06-1.32,0.07c-0.49,0.01-0.95,0.01-1.37,0.01c-1.23,0-2.13-0.33-2.71-1
	c-0.58-0.67-0.87-1.64-0.87-2.9V163.06z M183.71,154.62c0,0.16,0.06,0.3,0.18,0.41c0.12,0.11,0.27,0.16,0.45,0.16h1.17
	c0.18,0,0.33-0.05,0.45-0.16c0.12-0.11,0.18-0.25,0.18-0.41v-1.48c0-0.18-0.06-0.33-0.18-0.44c-0.12-0.11-0.26-0.16-0.42-0.16h-1.2
	c-0.16,0-0.31,0.05-0.43,0.16c-0.13,0.11-0.19,0.26-0.19,0.44V154.62z M179.64,169.49c0,0.13,0.09,0.22,0.27,0.29
	c0.18,0.06,0.4,0.1,0.66,0.1h0.91c0.51,0,1.09-0.06,1.72-0.18c0.63-0.12,1.18-0.36,1.64-0.73c0.42,0.37,0.96,0.61,1.61,0.73
	c0.65,0.12,1.26,0.18,1.83,0.18h0.33v-2.36h-0.38c-0.16,0-0.36-0.01-0.58-0.03c-0.22-0.02-0.44-0.05-0.65-0.1s-0.4-0.11-0.58-0.19
	c-0.17-0.08-0.29-0.2-0.34-0.34v-7.56c0-0.15-0.05-0.27-0.15-0.37s-0.22-0.15-0.37-0.15h-1.26c-0.15,0-0.27,0.05-0.37,0.15
	s-0.15,0.22-0.15,0.37v7.2c0,0.24-0.07,0.43-0.21,0.56c-0.14,0.14-0.31,0.24-0.51,0.3s-0.41,0.11-0.63,0.12s-0.42,0.03-0.6,0.03
	h-1.24c-0.26,0-0.48,0.03-0.66,0.1c-0.18,0.06-0.27,0.15-0.27,0.26V169.49z M168.57,169.41c0,0.15,0.05,0.26,0.16,0.34
	c0.11,0.08,0.24,0.12,0.38,0.12h11.63v-2.36h-1.81L178.9,164c-0.04-0.99-0.18-1.9-0.43-2.72c-0.25-0.82-0.64-1.54-1.17-2.14
	c-0.53-0.6-1.23-1.07-2.09-1.4s-1.91-0.49-3.13-0.49c-0.2,0-0.52,0.01-0.95,0.03c-0.43,0.02-0.88,0.06-1.36,0.14
	c-0.2,0.02-0.34,0.07-0.43,0.16c-0.08,0.09-0.12,0.21-0.12,0.36v1.13c0,0.29,0.18,0.42,0.55,0.38c0.27-0.04,0.6-0.06,0.98-0.07
	c0.38-0.01,0.66-0.01,0.87-0.01c1.74,0,3,0.39,3.77,1.18c0.77,0.79,1.17,1.99,1.21,3.6l0.03,3.38h-7.5c-0.15,0-0.27,0.05-0.38,0.14
	c-0.11,0.09-0.16,0.21-0.16,0.36V169.41z M162.8,166.66c0,0.42-0.26,0.68-0.78,0.77c-0.52,0.09-1.19,0.14-1.99,0.14
	c-1.21,0-2.09-0.29-2.64-0.88c-0.55-0.59-0.83-1.53-0.83-2.83v-0.55c0-1.26,0.35-2.24,1.06-2.91c0.7-0.68,1.66-1.02,2.87-1.02
	c0.48,0,0.89,0.01,1.24,0.03c0.35,0.02,0.7,0.05,1.07,0.08V166.66z M149.03,171.77c0.35,1.03,0.9,1.89,1.66,2.6
	c0.76,0.7,1.75,1.25,2.97,1.62c1.22,0.38,2.7,0.56,4.44,0.56c1.1,0,2.19-0.01,3.28-0.04c1.09-0.03,2.11-0.11,3.06-0.26
	c0.4-0.05,0.6-0.25,0.6-0.58c0.02-0.24,0.03-0.55,0.04-0.95c0.01-0.39,0.01-0.8,0.01-1.22v-1.22v-0.98v-13.19
	c0-0.15-0.03-0.25-0.08-0.32c-0.05-0.06-0.16-0.12-0.33-0.18c-0.48-0.15-1.06-0.25-1.76-0.32c-0.7-0.06-1.41-0.1-2.14-0.1
	c-2.09,0-3.7,0.56-4.84,1.68c-1.14,1.12-1.7,2.65-1.7,4.59v0.69c0,1.91,0.49,3.33,1.46,4.29c0.97,0.95,2.31,1.43,4.01,1.43
	c0.24,0,0.51,0,0.81-0.01c0.3-0.01,0.6-0.04,0.89-0.08c0.29-0.05,0.56-0.1,0.81-0.16c0.25-0.06,0.43-0.15,0.56-0.26v4.73
	c-0.27,0.04-0.62,0.06-1.03,0.08c-0.41,0.02-0.84,0.04-1.29,0.05c-0.45,0.02-0.88,0.03-1.31,0.03h-1.1c-1.5,0-2.73-0.17-3.67-0.51
	c-0.94-0.34-1.69-0.81-2.23-1.4c-0.54-0.6-0.91-1.3-1.11-2.1c-0.2-0.81-0.3-1.69-0.3-2.64c0-0.31,0.01-0.69,0.03-1.14
	c0.02-0.45,0.05-0.88,0.08-1.31c0-0.38-0.15-0.58-0.44-0.58h-1.15c-0.29,0-0.47,0.17-0.52,0.52c-0.06,0.27-0.1,0.56-0.12,0.87
	c-0.03,0.3-0.05,0.59-0.07,0.88c-0.02,0.28-0.03,0.55-0.04,0.81c-0.01,0.26-0.02,0.47-0.02,0.63
	C148.5,169.58,148.68,170.75,149.03,171.77 M161.09,153.55c0,0.16,0.07,0.3,0.21,0.41c0.14,0.11,0.29,0.16,0.45,0.16h1.07
	c0.16,0,0.31-0.05,0.44-0.16c0.13-0.11,0.19-0.25,0.19-0.41v-1.48c0-0.18-0.06-0.33-0.19-0.44c-0.13-0.11-0.27-0.16-0.44-0.16h-1.07
	c-0.16,0-0.32,0.05-0.45,0.16c-0.14,0.11-0.21,0.26-0.21,0.44V153.55z M156.61,153.55c0,0.16,0.06,0.3,0.18,0.41
	c0.12,0.11,0.27,0.16,0.45,0.16h1.07c0.17,0,0.31-0.05,0.44-0.16c0.13-0.11,0.19-0.25,0.19-0.41v-1.48c0-0.18-0.06-0.33-0.18-0.44
	c-0.12-0.11-0.27-0.16-0.45-0.16h-1.07c-0.18,0-0.33,0.05-0.45,0.16c-0.12,0.11-0.18,0.26-0.18,0.44V153.55z M129.35,163.34
	c0-1.26,0.26-2.23,0.78-2.9c0.52-0.67,1.39-1,2.6-1c1.19,0,2.03,0.34,2.51,1.02c0.49,0.68,0.73,1.64,0.73,2.89v1.02
	c0,1.36-0.25,2.32-0.74,2.9c-0.49,0.58-1.35,0.87-2.56,0.87c-0.86,0-1.57-0.14-2.12-0.43s-0.92-0.83-1.1-1.64
	c-0.07-0.42-0.11-0.92-0.11-1.51V163.34z M123.19,169.49c0,0.13,0.09,0.22,0.27,0.29c0.18,0.06,0.4,0.1,0.66,0.1h0.44
	c0.77,0,1.47-0.1,2.12-0.29c0.64-0.19,1.12-0.54,1.43-1.03c0.46,0.59,1.08,1.02,1.86,1.31c0.78,0.28,1.68,0.43,2.71,0.43
	c1.98,0,3.41-0.49,4.29-1.47c0.88-0.98,1.32-2.42,1.32-4.33v-1.4c0-1.91-0.47-3.35-1.4-4.34c-0.93-0.99-2.32-1.48-4.15-1.48
	c-1.83,0-3.24,0.5-4.22,1.51c-0.98,1.01-1.47,2.46-1.47,4.34v2.64c0,0.31-0.03,0.58-0.08,0.8c-0.05,0.22-0.16,0.39-0.32,0.51
	c-0.16,0.12-0.34,0.22-0.54,0.29c-0.2,0.07-0.4,0.12-0.6,0.14c-0.2,0.02-0.37,0.03-0.49,0.03h-0.88c-0.26,0-0.48,0.03-0.66,0.1
	c-0.18,0.06-0.27,0.15-0.27,0.26V169.49z M115.36,175.73c0,0.13,0.03,0.22,0.08,0.29c0.05,0.06,0.17,0.11,0.36,0.15
	c0.18,0.04,0.43,0.06,0.73,0.08c0.3,0.02,0.5,0.03,0.59,0.03c1.06,0,1.92-0.13,2.57-0.38c0.65-0.26,1.16-0.7,1.53-1.35
	c0.2-0.37,0.34-0.8,0.41-1.29c0.07-0.49,0.11-1.03,0.11-1.62v-1.76h2.56v-2.36h-2.53v-8.22c0-0.15-0.05-0.27-0.14-0.37
	c-0.09-0.1-0.2-0.15-0.33-0.15h-1.35c-0.15,0-0.27,0.05-0.36,0.15c-0.09,0.1-0.14,0.22-0.14,0.37v12.17c0,0.6-0.05,1.09-0.14,1.44
	c-0.09,0.36-0.26,0.63-0.49,0.81c-0.24,0.18-0.55,0.3-0.93,0.36s-0.88,0.08-1.48,0.08h-0.58c-0.31,0-0.47,0.13-0.47,0.38V175.73z
	 M98.9,169.49c0,0.09,0.09,0.18,0.26,0.26c0.17,0.08,0.4,0.12,0.67,0.12h14.54c0.31,0,0.52-0.06,0.63-0.18
	c0.11-0.12,0.16-0.28,0.16-0.48v-0.99c0-0.2-0.01-0.36-0.04-0.49c-0.03-0.13-0.06-0.26-0.1-0.38l-1.15-2.93l-0.27-0.71
	c-0.53-1.28-1.1-2.33-1.7-3.14c-0.6-0.81-1.26-1.45-1.98-1.92c-0.71-0.47-1.47-0.79-2.28-0.96c-0.81-0.17-1.67-0.26-2.58-0.26
	c-0.33,0-0.75,0.02-1.25,0.05c-0.5,0.04-0.96,0.1-1.36,0.19c-0.2,0.04-0.34,0.09-0.41,0.18c-0.07,0.08-0.11,0.19-0.11,0.34v1.11
	c0,0.29,0.2,0.42,0.6,0.38c0.15-0.02,0.32-0.03,0.51-0.04c0.19-0.01,0.38-0.02,0.58-0.04c0.19-0.02,0.37-0.03,0.52-0.04
	c0.16-0.01,0.27-0.01,0.34-0.01c1.72,0,3.08,0.34,4.08,1.03c1,0.69,1.8,1.73,2.4,3.12l0.63,1.46l0.99,2.36H99.83
	c-0.26,0-0.48,0.03-0.66,0.1c-0.18,0.06-0.27,0.15-0.27,0.26V169.49z M105.33,153.86c0,0.16,0.06,0.3,0.18,0.41
	c0.12,0.11,0.27,0.16,0.45,0.16h1.17c0.18,0,0.33-0.05,0.45-0.16c0.12-0.11,0.18-0.25,0.18-0.41v-1.48c0-0.18-0.06-0.33-0.18-0.44
	c-0.12-0.11-0.26-0.16-0.42-0.16h-1.2c-0.16,0-0.31,0.05-0.43,0.16c-0.13,0.11-0.19,0.26-0.19,0.44V153.86z M84.58,161.03
	c0.38-0.31,0.84-0.56,1.37-0.76c0.53-0.19,1.06-0.34,1.6-0.45c0.53-0.11,1.03-0.19,1.5-0.23c0.47-0.05,0.84-0.07,1.11-0.07
	c0.94,0,1.75,0.08,2.45,0.25c0.7,0.16,1.27,0.44,1.73,0.84c0.46,0.39,0.8,0.92,1.03,1.59c0.23,0.67,0.34,1.51,0.34,2.51v0.47
	c0,0.97-0.06,1.61-0.18,1.91c-0.12,0.3-0.31,0.45-0.56,0.45h-7.06h-1.88c-0.49,0-0.97-0.02-1.44-0.05V161.03z M71.8,169.75
	c0.28,1.03,0.74,1.91,1.4,2.62c0.66,0.71,1.53,1.26,2.61,1.64c1.08,0.38,2.43,0.56,4.04,0.56c0.64,0,1.31-0.04,2.01-0.11
	c0.7-0.07,1.37-0.18,2.03-0.33c0.2-0.05,0.35-0.12,0.45-0.21c0.1-0.08,0.15-0.22,0.15-0.4c0.02-0.22,0.03-0.48,0.04-0.78
	c0.01-0.3,0.02-0.62,0.03-0.96c0.01-0.34,0.01-0.67,0.01-1v-0.91H100v-2.36h-2.22c0.05-0.15,0.1-0.33,0.14-0.56
	c0.04-0.23,0.06-0.47,0.07-0.73c0.01-0.26,0.02-0.52,0.03-0.78c0.01-0.27,0.01-0.5,0.01-0.7v-0.41c0-1.28-0.16-2.37-0.48-3.26
	c-0.32-0.9-0.79-1.63-1.42-2.19c-0.62-0.57-1.39-0.98-2.29-1.23c-0.91-0.26-1.95-0.38-3.12-0.38c-0.31,0-0.71,0.02-1.21,0.05
	c-0.5,0.04-1.03,0.11-1.6,0.23c-0.57,0.12-1.14,0.29-1.73,0.52c-0.59,0.23-1.12,0.52-1.6,0.88v-1.09c0-0.14-0.05-0.27-0.14-0.38
	c-0.09-0.11-0.21-0.16-0.36-0.16h-1.26c-0.15,0-0.27,0.05-0.38,0.16c-0.11,0.11-0.16,0.24-0.16,0.38v9.63v1.07v1
	c0,0.34-0.01,0.7-0.02,1.1c-0.01,0.39-0.01,0.85-0.01,1.36c-0.44,0.09-0.88,0.15-1.31,0.16c-0.43,0.02-0.79,0.03-1.09,0.03
	c-1.41,0-2.52-0.18-3.34-0.54c-0.82-0.36-1.43-0.85-1.84-1.47c-0.41-0.62-0.68-1.36-0.8-2.2c-0.12-0.84-0.18-1.74-0.18-2.69
	c0-0.31,0.02-0.73,0.07-1.25c0.05-0.52,0.09-0.99,0.15-1.42c0.02-0.38-0.13-0.58-0.44-0.58H72.3c-0.18,0-0.31,0.04-0.38,0.12
	c-0.07,0.08-0.13,0.22-0.16,0.43c-0.06,0.22-0.1,0.5-0.14,0.85c-0.04,0.35-0.07,0.7-0.11,1.04c-0.04,0.35-0.06,0.68-0.08,1
	c-0.02,0.32-0.03,0.56-0.03,0.73C71.39,167.55,71.53,168.72,71.8,169.75 M54.74,153.5c0,0.16,0.06,0.3,0.18,0.41
	c0.12,0.11,0.27,0.16,0.45,0.16h1.17c0.18,0,0.33-0.05,0.45-0.16c0.12-0.11,0.18-0.25,0.18-0.41v-1.48c0-0.18-0.06-0.33-0.18-0.44
	c-0.12-0.11-0.26-0.16-0.42-0.16h-1.2c-0.16,0-0.31,0.05-0.44,0.16c-0.13,0.11-0.19,0.26-0.19,0.44V153.5z M46.99,169.49
	c0,0.13,0.09,0.22,0.27,0.29c0.18,0.06,0.4,0.1,0.66,0.1h7.94c0.73,0,1.45,0,2.16-0.01c0.7-0.01,1.44-0.05,2.21-0.12
	c0.38-0.04,0.59-0.21,0.6-0.52c0.02-0.27,0.04-0.58,0.05-0.91c0.02-0.33,0.03-0.67,0.04-1.03c0.01-0.36,0.01-0.71,0.01-1.07v-1v-7.2
	c0-0.15-0.03-0.26-0.08-0.33c-0.05-0.07-0.17-0.13-0.36-0.16c-0.49-0.15-1.11-0.25-1.84-0.32c-0.73-0.06-1.48-0.1-2.25-0.1
	c-1.98,0-3.53,0.52-4.66,1.57s-1.69,2.49-1.69,4.34v0.66c0,0.93,0.11,1.71,0.34,2.34c0.23,0.62,0.52,1.13,0.87,1.51h-3.35
	c-0.26,0-0.48,0.03-0.66,0.1c-0.18,0.06-0.27,0.15-0.27,0.26V169.49z M52.37,163.06c0-1.25,0.32-2.19,0.98-2.83
	c0.65-0.64,1.61-0.96,2.87-0.96c0.48,0,0.91,0.01,1.29,0.03c0.38,0.02,0.76,0.05,1.13,0.11v8.08c-0.38,0.04-0.82,0.06-1.32,0.07
	c-0.49,0.01-0.95,0.01-1.37,0.01c-1.23,0-2.13-0.33-2.71-1c-0.58-0.67-0.87-1.64-0.87-2.9V163.06z M31.71,178.59
	c0,0.15,0.06,0.27,0.19,0.38c0.13,0.11,0.27,0.16,0.41,0.16h1.07c0.15,0,0.28-0.05,0.41-0.16c0.13-0.11,0.19-0.24,0.19-0.38v-1.37
	c0-0.18-0.06-0.33-0.19-0.43s-0.27-0.15-0.41-0.15h-1.07c-0.15,0-0.28,0.05-0.41,0.15c-0.13,0.1-0.19,0.24-0.19,0.43V178.59z
	 M27.26,178.59c0,0.15,0.06,0.27,0.18,0.38c0.12,0.11,0.27,0.16,0.45,0.16h1.02c0.15,0,0.29-0.05,0.43-0.16
	c0.14-0.11,0.21-0.24,0.21-0.38v-1.37c0-0.18-0.06-0.33-0.19-0.43c-0.13-0.1-0.27-0.15-0.44-0.15h-1.02c-0.18,0-0.33,0.05-0.45,0.15
	c-0.12,0.1-0.18,0.24-0.18,0.43V178.59z M24.01,169.62c0.26,1.02,0.7,1.88,1.35,2.6s1.49,1.27,2.56,1.66
	c1.06,0.39,2.41,0.59,4.04,0.59c0.88,0,1.74-0.03,2.58-0.08c0.84-0.05,1.6-0.15,2.28-0.27c0.38-0.07,0.58-0.27,0.58-0.58
	c0.02-0.26,0.03-0.55,0.04-0.88c0.01-0.33,0.02-0.67,0.03-1.03c0.01-0.36,0.01-0.7,0.01-1.03v-0.88v-4.97c0-0.7,0.09-1.27,0.26-1.73
	s0.42-0.82,0.74-1.09c0.32-0.27,0.71-0.45,1.18-0.56c0.47-0.11,0.99-0.16,1.58-0.16c0.33,0,0.63,0.01,0.89,0.03
	c0.27,0.02,0.58,0.05,0.95,0.11v5.69c0,1.08,0.24,1.83,0.71,2.24c0.48,0.41,1.29,0.62,2.45,0.62h1.84v-2.36h-1.26
	c-0.57,0-0.95-0.06-1.14-0.18c-0.19-0.12-0.29-0.4-0.29-0.84v-6.62c0-0.16-0.04-0.28-0.11-0.34c-0.07-0.06-0.18-0.11-0.33-0.15
	c-0.51-0.13-1.08-0.22-1.69-0.27s-1.22-0.08-1.83-0.08c-1.96,0-3.49,0.44-4.6,1.32c-1.11,0.88-1.66,2.29-1.66,4.23v3v1.04v0.95
	c0,0.32,0,0.67-0.01,1.04c-0.01,0.38-0.01,0.82-0.01,1.33c-0.42,0.09-0.91,0.15-1.47,0.18c-0.56,0.03-1.1,0.04-1.64,0.04
	c-1.41,0-2.52-0.18-3.34-0.55c-0.81-0.37-1.43-0.86-1.84-1.47c-0.41-0.61-0.68-1.33-0.8-2.14c-0.12-0.81-0.18-1.68-0.18-2.6
	c0-0.31,0.02-0.71,0.07-1.2c0.05-0.49,0.1-0.94,0.15-1.36c0.02-0.37-0.13-0.55-0.44-0.55h-1.15c-0.31,0-0.49,0.17-0.55,0.52
	c-0.05,0.27-0.1,0.57-0.14,0.89c-0.04,0.32-0.07,0.64-0.1,0.96c-0.03,0.32-0.05,0.62-0.07,0.89c-0.02,0.27-0.03,0.49-0.03,0.66
	C23.63,167.47,23.76,168.6,24.01,169.62"/>
<g>
	<rect x="68.74" y="130.45" class="st2" width="88.29" height="6.87"/>
</g>
<g>
	<defs>
		<rect id="SVGID_1_" x="172.24" y="3.86" width="114.18" height="133.46"/>
	</defs>
	<clipPath id="SVGID_00000074415811727886499920000004484149969567689657_">
		<use xlink:href="#SVGID_1_"  style="overflow:visible;"/>
	</clipPath>
	
		<path style="clip-path:url(#SVGID_00000074415811727886499920000004484149969567689657_);fill-rule:evenodd;clip-rule:evenodd;fill:#EEDEC0;" d="
		M203.9,50.12l0.67-0.16l0.41-7.89h-2.46l0.09-2.17h0.05h1.29l5.32-4.45l0.04-10.37c0-1.79,1.26-3.59,2.84-4.38l-0.03-4.48
		c-3.86-0.32-6.86-5.22-4.21-8.56c-0.19,2.9,1.93,5.69,4.94,5.69c3.74,0,4.79-2.93,4.95-6.15c1.74,3.96,0.25,8.58-4.2,8.95
		l-0.08,4.56c1.68,0.8,2.85,2.84,2.85,4.35c0,3.73,0.02,6.7,0,10.5l5.07,3.68h2.94l-0.35,2.89l-2.54-0.04l0.09,7.98l0.68,0.04
		l0.09,2.48l-2.22,0.03l0.1,21.06l-14.21,6.79l0.16-27.83l-2.32-0.08L203.9,50.12z"/>
	
		<path style="clip-path:url(#SVGID_00000074415811727886499920000004484149969567689657_);fill-rule:evenodd;clip-rule:evenodd;fill:#E6C39B;" d="
		M203.9,50.12l0.67-0.16l0.41-7.89l-2.46,0l0.09-2.17h0.05h1.3l5.32-4.45l0.04-10.37c0-1.79,1.26-3.59,2.84-4.38
		c-2.54,8.11,2.71,11.88-2.26,25.99c-3.44,10.02,2.1,16.12,2.14,19.88c0.61,2.49,0.5,6.44-0.06,11.05l-5.94,2.84l0.16-27.83
		l-2.32-0.07L203.9,50.12z M211.16,16.03c-3.37-0.96-5.68-5.32-3.25-8.39c-0.15,2.32,1.17,4.57,3.25,5.37
		C211.11,14.04,211.1,15.05,211.16,16.03"/>
	<path style="clip-path:url(#SVGID_00000074415811727886499920000004484149969567689657_);fill:#1D1D1B;" d="M220.54,52.31
		c-3.63,0-7.73,0.4-11.41,0.6l-3.03-0.42l-0.34-0.05c-0.07,8.92,0.13,16.01,0.27,25.74c0.61-9.97,0.41-16.09,0.41-25.28h13.24
		c0.07,6.48,0.28,13.41,0.55,19.42C220.43,67.14,220.38,59.01,220.54,52.31"/>
	<path style="clip-path:url(#SVGID_00000074415811727886499920000004484149969567689657_);fill:#1D1D1B;" d="M222.08,52.23
		l-12.95,0.68l-4.91-0.68v-1.84h17.85V52.23z M222.76,49.71h-19.21v3.2h19.21V49.71z"/>
	<path style="clip-path:url(#SVGID_00000074415811727886499920000004484149969567689657_);fill:#1D1D1B;" d="M221.92,42.42h-0.68
		v7.63h0.68V42.42z M204.38,50.05h0.68v-7.63h-0.68V50.05z"/>
	<path style="clip-path:url(#SVGID_00000074415811727886499920000004484149969567689657_);fill:#1D1D1B;" d="M218.09,44.25
		c-0.45,0-0.98,0.26-1.35,0.78c-0.28,0.4-0.48,0.95-0.48,1.65v3.37h0.68v-3.37c0-0.55,0.14-0.97,0.35-1.26
		c0.23-0.33,0.54-0.49,0.8-0.49V44.25z"/>
	<path style="clip-path:url(#SVGID_00000074415811727886499920000004484149969567689657_);fill:#1D1D1B;" d="M218.09,44.93
		c0.25,0,0.56,0.16,0.8,0.49c0.21,0.29,0.35,0.71,0.35,1.26v3.37h0.68v-3.37c0-0.7-0.2-1.25-0.48-1.65
		c-0.37-0.52-0.9-0.78-1.35-0.78V44.93z"/>
	<path style="clip-path:url(#SVGID_00000074415811727886499920000004484149969567689657_);fill:#1D1D1B;" d="M223.69,41.74h-21.09
		V39.9l21.77-0.68L223.69,41.74z M202.27,42.42h21.76h0.34v-0.34v-2.52v-0.34h-0.34h-21.76h-0.34v0.34v2.52v0.34H202.27z"/>
	<polygon style="clip-path:url(#SVGID_00000074415811727886499920000004484149969567689657_);fill:#1D1D1B;" points="204.85,39.22 
		209.38,36.12 216.3,36.12 220.83,39.22 222.03,39.22 216.6,35.5 216.51,35.44 216.07,36.12 209.17,35.44 	"/>
	<path style="clip-path:url(#SVGID_00000074415811727886499920000004484149969567689657_);fill:#1D1D1B;" d="M207.26,30.07
		c2.79,0.09,6.9,0.53,11.12-0.14C215.47,29.58,210.15,29.49,207.26,30.07"/>
	<path style="clip-path:url(#SVGID_00000074415811727886499920000004484149969567689657_);fill:#1D1D1B;" d="M209.62,35.62v-5.69
		h-0.34h-0.34v5.72l0.23-0.21L209.62,35.62z M216.75,35.61v-5.68h-0.68v6.19C216.4,35.94,216.52,35.8,216.75,35.61"/>
	<path style="clip-path:url(#SVGID_00000074415811727886499920000004484149969567689657_);fill:#1D1D1B;" d="M216.74,29.93v-4.95
		c0-1.06-0.38-2.07-1.05-2.93c-0.45-0.58-1.03-1.09-1.72-1.5v-4.4v-0.44l-0.42,0.11c-0.12,0.03-0.24,0.05-0.35,0.07
		c-0.11,0.01-0.23,0.02-0.36,0.02c-0.13,0-0.25-0.01-0.36-0.02c-0.12-0.02-0.23-0.04-0.35-0.07l-0.43-0.11v0.44v4.4
		c-0.68,0.4-1.27,0.91-1.72,1.5c-0.67,0.86-1.05,1.88-1.05,2.93v4.95h0.34h0.34v-4.95c0-0.9,0.33-1.77,0.9-2.52
		c0.56-0.73,1.36-1.33,2.32-1.72c0.96,0.39,1.76,0.99,2.32,1.72c0.58,0.74,0.9,1.61,0.9,2.52v4.95h0.34H216.74z M213.3,20.2
		c-0.11-0.05-0.23-0.1-0.34-0.14l-0.06-0.02l-0.01,0l-0.01,0l-0.01,0l-0.01,0l-0.01,0l-0.01,0l-0.01,0l-0.01,0l-0.01,0l-0.01,0
		l-0.01,0l-0.01,0l-0.01,0l-0.01,0l-0.01,0l-0.01,0l-0.01,0l-0.01,0l-0.05,0.02c-0.12,0.05-0.23,0.09-0.34,0.14v-3.64l0.02,0
		c0.15,0.02,0.3,0.03,0.45,0.03c0.14,0,0.3-0.01,0.45-0.03l0.01,0V20.2z"/>
	<path style="clip-path:url(#SVGID_00000074415811727886499920000004484149969567689657_);fill:#1D1D1B;" d="M208.59,5.69
		c-0.62,0.58-1.12,1.28-1.47,2.07c-0.33,0.76-0.52,1.6-0.52,2.48c0,1.72,0.7,3.28,1.82,4.41c1.13,1.13,2.68,1.82,4.4,1.82
		c1.72,0,3.28-0.7,4.41-1.82c1.13-1.13,1.82-2.69,1.82-4.41c0-0.88-0.18-1.72-0.52-2.48c-0.34-0.79-0.85-1.5-1.47-2.07l-1.96-1.83
		l1.45,2.26c0.22,0.35,0.4,0.73,0.52,1.14c0.11,0.39,0.18,0.81,0.18,1.24c0,1.22-0.49,2.33-1.3,3.13c-0.8,0.8-1.91,1.3-3.13,1.3
		c-1.22,0-2.33-0.5-3.13-1.3c-0.8-0.8-1.3-1.91-1.3-3.13c0-0.43,0.06-0.85,0.18-1.24c0.12-0.41,0.29-0.79,0.52-1.14l1.45-2.26
		L208.59,5.69z M207.75,8.03L207.76,8c-0.02,0.16-0.02,0.33-0.02,0.5c0,1.41,0.57,2.69,1.5,3.61c0.92,0.92,2.2,1.5,3.61,1.5
		c1.41,0,2.69-0.57,3.61-1.5c0.92-0.92,1.49-2.2,1.49-3.61c0-0.17-0.01-0.33-0.02-0.5l0.01,0.03c0.29,0.68,0.46,1.42,0.46,2.21
		c0,1.53-0.62,2.92-1.63,3.92c-1,1-2.39,1.63-3.92,1.63c-1.53,0-2.92-0.62-3.92-1.63c-1-1-1.63-2.39-1.63-3.92
		C207.29,9.45,207.45,8.71,207.75,8.03"/>
	<path style="clip-path:url(#SVGID_00000074415811727886499920000004484149969567689657_);fill:#1D1D1B;" d="M213.08,44.25
		c-0.45,0-0.98,0.26-1.35,0.78c-0.28,0.4-0.48,0.95-0.48,1.65v3.37h0.68v-3.37c0-0.55,0.14-0.97,0.35-1.26
		c0.23-0.33,0.54-0.49,0.8-0.49V44.25z"/>
	<path style="clip-path:url(#SVGID_00000074415811727886499920000004484149969567689657_);fill:#1D1D1B;" d="M213.08,44.93
		c0.25,0,0.56,0.16,0.8,0.49c0.21,0.29,0.35,0.71,0.35,1.26v3.37h0.68v-3.37c0-0.7-0.2-1.25-0.48-1.65
		c-0.37-0.52-0.9-0.78-1.35-0.78V44.93z"/>
	<path style="clip-path:url(#SVGID_00000074415811727886499920000004484149969567689657_);fill:#1D1D1B;" d="M208.07,44.25
		c-0.45,0-0.98,0.26-1.35,0.78c-0.28,0.4-0.48,0.95-0.48,1.65v3.37h0.68v-3.37c0-0.55,0.14-0.97,0.35-1.26
		c0.23-0.33,0.54-0.49,0.8-0.49V44.25z"/>
	<path style="clip-path:url(#SVGID_00000074415811727886499920000004484149969567689657_);fill:#1D1D1B;" d="M208.07,44.93
		c0.25,0,0.56,0.16,0.8,0.49c0.21,0.29,0.35,0.71,0.35,1.26v3.37h0.68v-3.37c0-0.7-0.2-1.25-0.48-1.65
		c-0.37-0.52-0.9-0.78-1.35-0.78V44.93z"/>
	<path style="clip-path:url(#SVGID_00000074415811727886499920000004484149969567689657_);fill:#1D1D1B;" d="M207.87,55.52
		c1.97,4.46,4.23,6.95,7.18,11.19C209.61,61.63,209.15,59.1,207.87,55.52"/>
	
		<path style="clip-path:url(#SVGID_00000074415811727886499920000004484149969567689657_);fill-rule:evenodd;clip-rule:evenodd;fill:#009540;" d="
		M229.84,59.49h-2.15c-10.24,8.99-24.52,14.32-24.52,30.47c-0.68,0.26-1.01,0.57-1.58,0.93v10.86c-1.2,0.17-2.67,0.47-3.12,0.65
		v8.03h31.37h31.37v-8.03c-0.44-0.18-1.91-0.48-3.12-0.65V90.9c-0.57-0.37-0.9-0.68-1.58-0.93c0-16.15-14.28-21.48-24.52-30.47
		H229.84z"/>
	
		<path style="clip-path:url(#SVGID_00000074415811727886499920000004484149969567689657_);fill-rule:evenodd;clip-rule:evenodd;fill:#007436;" d="
		M221.38,64.44c-8.95,6.53-18.21,12.52-18.21,25.52c-0.68,0.26-1.01,0.57-1.57,0.93v10.86c-1.21,0.17-2.68,0.47-3.12,0.65v8.03
		h31.37h6.67c0.18-2.8-0.05-5.83-0.91-9.16c-1.43-5.58-5.12-9.52-5.12-13.07C230.48,78.73,238.49,66.36,221.38,64.44z"/>
	
		<polygon style="clip-path:url(#SVGID_00000074415811727886499920000004484149969567689657_);fill-rule:evenodd;clip-rule:evenodd;fill:#EEDEC0;" points="
		229.84,110.43 195.87,110.43 190.27,117.24 190.27,121.4 187.55,121.4 187.55,129.21 187.55,136.81 229.84,136.81 249.94,137.29 
		272.14,136.81 272.14,129.21 272.14,121.4 269.42,121.4 269.42,117.24 263.82,110.43 	"/>
	
		<path style="clip-path:url(#SVGID_00000074415811727886499920000004484149969567689657_);fill-rule:evenodd;clip-rule:evenodd;fill:#E6C39B;" d="
		M229.84,110.43h-33.98l-5.59,6.8v4.16h-2.72v7.81v7.6h39.78c1.31-7.8,8.47-15.32,9.18-26.38H229.84z"/>
	
		<path style="clip-path:url(#SVGID_00000074415811727886499920000004484149969567689657_);fill-rule:evenodd;clip-rule:evenodd;fill:#957E61;" d="
		M199.27,118.67c-1.56,0-2.83,1.27-2.83,2.83s1.27,2.83,2.83,2.83c1.56,0,2.83-1.27,2.83-2.83S200.84,118.67,199.27,118.67"/>
	
		<path style="clip-path:url(#SVGID_00000074415811727886499920000004484149969567689657_);fill-rule:evenodd;clip-rule:evenodd;fill:#957E61;" d="
		M195.81,125.73c-1.56,0-2.83,1.27-2.83,2.83s1.27,2.83,2.83,2.83c1.56,0,2.83-1.27,2.83-2.83S197.38,125.73,195.81,125.73"/>
	
		<path style="clip-path:url(#SVGID_00000074415811727886499920000004484149969567689657_);fill-rule:evenodd;clip-rule:evenodd;fill:#957E61;" d="
		M202.73,125.73c-1.56,0-2.83,1.27-2.83,2.83s1.27,2.83,2.83,2.83c1.56,0,2.83-1.27,2.83-2.83S204.29,125.73,202.73,125.73"/>
	
		<path style="clip-path:url(#SVGID_00000074415811727886499920000004484149969567689657_);fill-rule:evenodd;clip-rule:evenodd;fill:#EEDEC0;" d="
		M229.69,55.72c-1.36,1.19-2.16,2.12-2.16,3.77h4.65c0-1.65-0.81-2.58-2.16-3.77H229.69z"/>
	<path style="clip-path:url(#SVGID_00000074415811727886499920000004484149969567689657_);fill:#1D1D1B;" d="M229.37,55.36
		c-0.71,0.63-1.28,1.18-1.68,1.82c-0.41,0.65-0.64,1.35-0.65,2.25c0.11-0.1,0.23-0.2,0.34-0.29l0.13-0.12h0.18h2.15H232h0.18
		l0.14,0.12c0.11,0.1,0.22,0.2,0.34,0.29c-0.01-0.89-0.24-1.6-0.65-2.25c-0.4-0.63-0.97-1.19-1.68-1.82l-0.14-0.12H230h-0.32h-0.18
		L229.37,55.36z M228.49,57.69c0.31-0.5,0.77-0.96,1.35-1.48c0.58,0.51,1.04,0.98,1.35,1.48c0.25,0.39,0.41,0.82,0.47,1.33h-3.64
		C228.08,58.51,228.25,58.08,228.49,57.69"/>
	<path style="clip-path:url(#SVGID_00000074415811727886499920000004484149969567689657_);fill:#1D1D1B;" d="M230.32,55.72
		c0-4.93,0.42-10.05-0.49-14.9c-0.86,4.86-0.46,9.97-0.46,14.9H230.32z"/>
	
		<path style="clip-path:url(#SVGID_00000074415811727886499920000004484149969567689657_);fill-rule:evenodd;clip-rule:evenodd;fill:#1D1D1B;" d="
		M229.84,49.57c-1.14,0-2.06,0.92-2.06,2.06c0,1.14,0.92,2.05,2.06,2.05s2.06-0.92,2.06-2.05C231.9,50.49,230.98,49.57,229.84,49.57
		"/>
	
		<path style="clip-path:url(#SVGID_00000074415811727886499920000004484149969567689657_);fill-rule:evenodd;clip-rule:evenodd;fill:#1D1D1B;" d="
		M229.84,45.18c-0.74,0-1.34,0.6-1.34,1.34c0,0.74,0.6,1.34,1.34,1.34c0.74,0,1.34-0.6,1.34-1.34
		C231.18,45.77,230.58,45.18,229.84,45.18"/>
	<path style="clip-path:url(#SVGID_00000074415811727886499920000004484149969567689657_);fill:#1D1D1B;" d="M206.58,89.9
		c8.54-2,18.97-2.72,27.71-2.03C230.24,86.22,214.92,85.99,206.58,89.9"/>
	<path style="clip-path:url(#SVGID_00000074415811727886499920000004484149969567689657_);fill:#1D1D1B;" d="M206.6,102.13
		c8.89-2.34,26.62-2.66,35.77-1.55C237.48,98.67,216.2,97.85,206.6,102.13"/>
	<path style="clip-path:url(#SVGID_00000074415811727886499920000004484149969567689657_);fill:#1D1D1B;" d="M262.83,117.82
		c-1.38-0.32-24.12-0.63-29.57-0.04C239.91,119.13,261.52,118.2,262.83,117.82"/>
	<path style="clip-path:url(#SVGID_00000074415811727886499920000004484149969567689657_);fill:#1D1D1B;" d="M229.84,109.96h-33.98
		h-0.22l-0.14,0.17l-5.59,6.8l-0.11,0.13v0.17v3.68h-2.25h-0.48l0.48,6.06l0.48-5.1h2.25h0.48v-0.48v-3.99l5.34-6.5h33.76h33.76
		l5.34,6.5l0.48,2.58l0.48-2.91l-5.7-6.94l-0.14-0.17h-0.22H229.84z M272.14,123.51c-0.12,4.07-0.48,8.49-0.48,12.83
		c-1.98,0-13.14,0.48-15.85,0.99c5.44,0,10.89-0.03,16.33-0.03h0.48v-0.48C272.62,132.82,272.89,127.72,272.14,123.51
		 M187.07,137.29h0.48h42.3h20.09c-7.49-0.48-17.36-0.95-20.09-0.95h-41.82l-0.48-5.76C187.39,132.71,187.07,135.18,187.07,137.29"
		/>
	<path style="clip-path:url(#SVGID_00000074415811727886499920000004484149969567689657_);fill:#1D1D1B;" d="M227.52,59.02
		l-0.13,0.12c-2.41,2.12-5.06,4.04-7.7,5.96c-5.15,3.73-9.81,7.66-13.06,12.73c5.68-6.41,11.34-10.31,13.61-11.96
		c2.6-1.88,5.21-3.78,7.63-5.89h3.95c2.42,2.11,5.03,4.01,7.63,5.89c1.99,1.45,6,3.97,7.87,5.48c-2.46-2.8-4.29-4.06-7.31-6.25
		c-2.64-1.91-5.29-3.84-7.7-5.95l-0.13-0.12H227.52z M202.7,89.65c-0.38,0.17-0.65,0.37-0.96,0.58c-0.13,0.09-0.27,0.19-0.4,0.27
		l-0.22,0.14v0.26v10.45c-0.51,0.08-1.04,0.18-1.51,0.27c-0.58,0.12-1.07,0.24-1.31,0.34l-0.3,0.12c0,1.93,0.32,4.31,0.48,6.29
		c0.32-1.87,0.37-3.55,0.48-5.62c0.22-0.06,0.51-0.13,0.85-0.2c0.57-0.12,1.25-0.24,1.86-0.32l0.41-0.06v-0.41V91.15
		c0.58-0.4,0.91-0.61,1.58-0.86v-0.33c0-1.92,0.31-5.79,0.69-7.42C203.15,83.81,202.72,88.14,202.7,89.65 M251.07,75.12
		c3.15,3.7,4.84,8.35,4.97,14.27c-3.77-1.13-8.78-2.07-13.98-1.7c3.35,0.4,12.58,1.44,15.56,3.46c0,1.74-0.03,5.2,0.48,8.88
		l0.48-9.39c-0.51-0.33-1.03-0.74-1.58-0.99C256.95,86.35,256.11,78.69,251.07,75.12 M249.19,100.68c5.12,0.83,9.54,1.52,11.54,2.07
		v7.21h0.95v-7.55v-0.32l-0.3-0.12c-0.24-0.1-0.73-0.22-1.31-0.34C256.65,100.91,252.67,100.58,249.19,100.68"/>
	<path style="clip-path:url(#SVGID_00000074415811727886499920000004484149969567689657_);fill:#1D1D1B;" d="M225.25,65.16
		c6.69,1.85,7.31,6.73,6.74,11.31c-0.37,2.99-1.33,5.76-1.17,7.83c0.6-3.39,3.05-7.58,1.92-12.77
		C231.98,68,229.46,65.81,225.25,65.16"/>
	<path style="clip-path:url(#SVGID_00000074415811727886499920000004484149969567689657_);fill:#1D1D1B;" d="M232.98,124.51
		c-2.79,4-3.75,7.22-5.85,11.94C228.66,129.15,230.58,127.46,232.98,124.51"/>
	<path style="clip-path:url(#SVGID_00000074415811727886499920000004484149969567689657_);fill:#1D1D1B;" d="M231.83,121.1
		c-1.16-0.32-20.27-0.63-24.84-0.04C212.57,122.41,230.72,121.49,231.83,121.1"/>
	<path style="clip-path:url(#SVGID_00000074415811727886499920000004484149969567689657_);fill:#FFFFFF;" d="M203.03,114.14
		c2.29,0.37,15.57,0.59,24.69,0.19C218.13,112.99,205.25,113.8,203.03,114.14"/>
	<path style="clip-path:url(#SVGID_00000074415811727886499920000004484149969567689657_);fill:#1D1D1B;" d="M286.42,136.33h-99.26
		c-1.61,0-10.41-0.18-14.92,0.95h101.09C274.78,137.29,281.26,137.51,286.42,136.33"/>
</g>
</svg>
