<?xml version="1.0" encoding="utf-8"?>
<!-- Generator: Adobe Illustrator 27.2.0, SVG Export Plug-In . SVG Version: 6.00 Build 0)  -->
<svg version="1.1" id="Layer_1" xmlns="http://www.w3.org/2000/svg" xmlns:xlink="http://www.w3.org/1999/xlink" x="0px" y="0px"
	 viewBox="0 0 300 219.81" style="enable-background:new 0 0 300 219.81;" xml:space="preserve">
<style type="text/css">
	.st0{fill:#9E0B0F;}
	.st1{fill:#C5AA7E;}
	.st2{fill:#DDD0BC;}
	
		.st3{clip-path:url(#SVGID_00000131347333204372148110000006220206338273083783_);fill-rule:evenodd;clip-rule:evenodd;fill:#957E61;}
	.st4{clip-path:url(#SVGID_00000131347333204372148110000006220206338273083783_);fill:#1D1D1B;}
	
		.st5{clip-path:url(#SVGID_00000131347333204372148110000006220206338273083783_);fill-rule:evenodd;clip-rule:evenodd;fill:#EEDEC0;}
	
		.st6{clip-path:url(#SVGID_00000131347333204372148110000006220206338273083783_);fill-rule:evenodd;clip-rule:evenodd;fill:#E6C39B;}
	
		.st7{clip-path:url(#SVGID_00000131347333204372148110000006220206338273083783_);fill-rule:evenodd;clip-rule:evenodd;fill:#6F6F6E;}
	
		.st8{clip-path:url(#SVGID_00000131347333204372148110000006220206338273083783_);fill-rule:evenodd;clip-rule:evenodd;fill:#575756;}
	
		.st9{clip-path:url(#SVGID_00000131347333204372148110000006220206338273083783_);fill-rule:evenodd;clip-rule:evenodd;fill:#FFCB00;}
	
		.st10{clip-path:url(#SVGID_00000131347333204372148110000006220206338273083783_);fill-rule:evenodd;clip-rule:evenodd;fill:#F6A526;}
	.st11{clip-path:url(#SVGID_00000131347333204372148110000006220206338273083783_);fill:#FFFFFF;}
	.st12{clip-path:url(#SVGID_00000131347333204372148110000006220206338273083783_);fill:#3C3C3B;}
</style>
<path class="st0" d="M150.69,105.04V62.72h-16.81v6.59h12.39l-3.45-3.57v39.3H150.69z M124.18,103.77c2.48-1.25,4.32-2.9,5.53-4.96
	c1.21-2.06,1.81-4.31,1.81-6.77c0-2.5-0.6-4.73-1.78-6.68c-1.19-1.95-3.06-3.49-5.62-4.6c-2.56-1.11-5.94-1.66-10.13-1.66h-8.52
	l4.11,3.69l1.63-17.23l-4.11,3.75h21.95v-6.59H104.2l-2.18,23.04h10.22c2.9,0,5.19,0.26,6.86,0.79c1.67,0.52,2.84,1.29,3.51,2.3
	c0.67,1.01,1,2.18,1,3.51c0,1.98-0.8,3.55-2.39,4.72c-1.59,1.17-3.78,1.75-6.56,1.75c-2.38,0-4.67-0.38-6.86-1.15
	c-2.2-0.77-4.06-1.77-5.59-3.02l-3.33,6.11c1.93,1.53,4.32,2.73,7.16,3.6c2.84,0.87,5.75,1.3,8.74,1.3
	C118.57,105.65,121.7,105.02,124.18,103.77 M92.35,105.04V62.72H75.54v6.59h12.39l-3.45-3.57v39.3H92.35z M69.31,105.04V62.72H52.5
	v6.59H64.9l-3.45-3.57v39.3H69.31z"/>
<path class="st1" d="M166.03,189.98c0-1.26,0.26-2.23,0.78-2.9c0.52-0.67,1.39-1,2.6-1c1.19,0,2.03,0.34,2.51,1.02
	s0.73,1.64,0.73,2.89V191c0,1.36-0.25,2.32-0.74,2.9c-0.49,0.58-1.35,0.87-2.56,0.87c-0.86,0-1.57-0.14-2.12-0.43
	s-0.92-0.83-1.1-1.64c-0.07-0.42-0.11-0.92-0.11-1.51V189.98z M159.88,196.14c0,0.13,0.09,0.22,0.27,0.29
	c0.18,0.06,0.4,0.1,0.66,0.1h0.44c0.77,0,1.47-0.1,2.12-0.29c0.64-0.19,1.12-0.54,1.43-1.03c0.46,0.59,1.08,1.02,1.86,1.31
	s1.68,0.43,2.71,0.43c1.98,0,3.41-0.49,4.29-1.47c0.88-0.98,1.32-2.42,1.32-4.33v-1.4c0-1.91-0.47-3.35-1.4-4.34
	s-2.32-1.48-4.15-1.48c-1.83,0-3.24,0.5-4.22,1.51c-0.98,1.01-1.47,2.46-1.47,4.34v2.64c0,0.31-0.03,0.58-0.08,0.8
	c-0.05,0.22-0.16,0.39-0.32,0.51c-0.16,0.12-0.33,0.22-0.54,0.29c-0.2,0.07-0.4,0.12-0.6,0.14c-0.2,0.02-0.37,0.03-0.49,0.03h-0.88
	c-0.26,0-0.48,0.03-0.66,0.1c-0.18,0.06-0.27,0.15-0.27,0.26V196.14z M141.27,196.06c0,0.15,0.09,0.26,0.27,0.34s0.4,0.12,0.66,0.12
	h18.77v-2.36h-2.06c0-0.18,0-0.4,0.01-0.64c0.01-0.25,0.02-0.5,0.03-0.77c0.01-0.27,0.01-0.52,0.01-0.77v-0.62v-0.33
	c0-1.22-0.18-2.27-0.55-3.14c-0.37-0.87-0.9-1.58-1.59-2.12c-0.7-0.55-1.55-0.95-2.56-1.21c-1.01-0.26-2.15-0.38-3.44-0.38
	c-0.48,0-1.02,0.01-1.62,0.03c-0.6,0.02-1.35,0.05-2.23,0.08c0.02-0.26,0.13-0.66,0.34-1.2c0.21-0.54,0.47-1.11,0.78-1.7l2.58-4.88
	c0.05-0.11,0.08-0.21,0.08-0.3c0-0.09-0.03-0.17-0.1-0.23c-0.06-0.06-0.17-0.1-0.32-0.1h-1.29c-0.2,0-0.35,0.05-0.45,0.16
	c-0.1,0.11-0.2,0.24-0.29,0.38l-2.06,3.79c-0.29,0.53-0.55,1.03-0.76,1.48c-0.21,0.46-0.38,0.89-0.52,1.31
	c-0.14,0.41-0.24,0.82-0.32,1.22c-0.07,0.4-0.11,0.82-0.11,1.26v0.3c0,0.15,0.01,0.24,0.03,0.27c0.05,0.27,0.24,0.41,0.55,0.41
	c0.11,0,0.35,0,0.71-0.01c0.37-0.01,0.81-0.01,1.32-0.01c0.51,0,1.07,0,1.66-0.01c0.6-0.01,1.17-0.01,1.72-0.01
	c0.92,0,1.75,0.07,2.5,0.22c0.75,0.15,1.39,0.41,1.92,0.78c0.53,0.38,0.94,0.89,1.24,1.54c0.29,0.65,0.44,1.47,0.44,2.46
	c0,0.44-0.01,0.9-0.01,1.37c-0.01,0.48-0.02,0.92-0.04,1.35h-14.4c-0.26,0-0.48,0.04-0.66,0.11s-0.27,0.18-0.27,0.33V196.06z
	 M135.8,180.2c0,0.16,0.07,0.3,0.21,0.41c0.14,0.11,0.29,0.16,0.45,0.16h1.07c0.16,0,0.31-0.05,0.44-0.16
	c0.13-0.11,0.19-0.25,0.19-0.41v-1.48c0-0.18-0.06-0.33-0.19-0.44c-0.13-0.11-0.27-0.16-0.44-0.16h-1.07
	c-0.16,0-0.32,0.05-0.45,0.16c-0.14,0.11-0.21,0.26-0.21,0.44V180.2z M131.32,180.2c0,0.16,0.06,0.3,0.18,0.41
	c0.12,0.11,0.27,0.16,0.45,0.16h1.07c0.16,0,0.31-0.05,0.44-0.16c0.13-0.11,0.19-0.25,0.19-0.41v-1.48c0-0.18-0.06-0.33-0.18-0.44
	c-0.12-0.11-0.27-0.16-0.45-0.16h-1.07c-0.18,0-0.34,0.05-0.45,0.16c-0.12,0.11-0.18,0.26-0.18,0.44V180.2z M131.27,189.72
	c0-0.74,0.11-1.35,0.34-1.83c0.23-0.49,0.54-0.87,0.93-1.16c0.39-0.28,0.87-0.48,1.42-0.59c0.55-0.11,1.15-0.17,1.81-0.17
	c0.24,0,0.49,0.01,0.77,0.03c0.27,0.02,0.6,0.05,0.96,0.08v6.26c0,0.3-0.07,0.54-0.22,0.73c-0.15,0.19-0.34,0.34-0.58,0.45
	c-0.24,0.11-0.5,0.18-0.8,0.22c-0.29,0.04-0.58,0.05-0.85,0.05h-0.52c-1.19,0-2.03-0.31-2.53-0.92c-0.49-0.62-0.74-1.48-0.74-2.58
	V189.72z M128.96,190.59c0,1.78,0.46,3.13,1.37,4.07c0.92,0.93,2.23,1.4,3.93,1.4h0.25c0.77,0,1.48-0.09,2.13-0.26
	c0.65-0.17,1.13-0.46,1.44-0.87c0.29,0.59,0.72,1,1.28,1.24c0.56,0.24,1.25,0.36,2.07,0.36h0.93v-2.36h-0.63
	c-0.59,0-1.05-0.11-1.4-0.32c-0.35-0.21-0.52-0.68-0.52-1.42v-7.72c0-0.15-0.02-0.26-0.07-0.34c-0.05-0.08-0.16-0.14-0.34-0.18
	c-0.2-0.05-0.44-0.11-0.71-0.15c-0.27-0.05-0.56-0.09-0.87-0.12c-0.3-0.04-0.61-0.06-0.92-0.08c-0.31-0.02-0.59-0.03-0.82-0.03
	c-1.04,0-2,0.11-2.87,0.34c-0.87,0.23-1.62,0.59-2.25,1.07s-1.12,1.11-1.47,1.88c-0.35,0.77-0.52,1.69-0.52,2.78V190.59z
	 M115.6,195.97c0,0.15,0.05,0.27,0.15,0.38c0.1,0.11,0.22,0.16,0.37,0.16h1.35c0.15,0,0.27-0.05,0.36-0.16
	c0.09-0.11,0.14-0.24,0.14-0.38v-19.57c0-0.15-0.05-0.27-0.14-0.38c-0.09-0.11-0.21-0.16-0.36-0.16h-1.35
	c-0.15,0-0.27,0.05-0.37,0.16c-0.1,0.11-0.15,0.24-0.15,0.38V195.97z M104.23,196.14c0,0.13,0.09,0.22,0.27,0.29
	c0.18,0.06,0.4,0.1,0.66,0.1h1.46c0.31,0,0.65,0,1-0.01c0.36-0.01,0.7-0.03,1.03-0.05c0.33-0.03,0.63-0.05,0.91-0.08
	c0.27-0.03,0.49-0.07,0.63-0.12c0.22-0.09,0.37-0.2,0.44-0.33c0.07-0.13,0.13-0.28,0.16-0.47c0.04-0.22,0.06-0.47,0.08-0.74
	c0.02-0.27,0.03-0.56,0.04-0.85c0.01-0.29,0.01-0.58,0.01-0.85v-0.74v-15.86c0-0.15-0.05-0.27-0.14-0.37
	c-0.09-0.1-0.21-0.15-0.36-0.15h-1.35c-0.15,0-0.27,0.05-0.37,0.15c-0.1,0.1-0.15,0.22-0.15,0.37v16.76c0,0.48-0.07,0.76-0.21,0.85
	c-0.14,0.09-0.47,0.14-1,0.14h-2.2c-0.26,0-0.48,0.03-0.66,0.1c-0.18,0.06-0.27,0.15-0.27,0.26V196.14z M94.87,187.26
	c0.52-0.66,1.39-0.99,2.6-0.99c1.19,0,2.03,0.33,2.51,1c0.49,0.67,0.73,1.63,0.73,2.87v1.26c0,1.26-0.25,2.2-0.74,2.82
	c-0.49,0.61-1.35,0.92-2.56,0.92c-0.88,0-1.59-0.17-2.14-0.52s-0.91-0.91-1.07-1.68c-0.07-0.42-0.11-0.93-0.11-1.54v-1.26
	C94.09,188.88,94.35,187.92,94.87,187.26 M87.93,196.14c0,0.13,0.09,0.22,0.27,0.29c0.18,0.06,0.4,0.1,0.66,0.1h0.66
	c0.68,0,1.31-0.07,1.9-0.21c0.59-0.14,1.06-0.42,1.43-0.84c0.42,0.62,1.03,1.09,1.83,1.39c0.8,0.3,1.71,0.45,2.73,0.45
	c2.07,0,3.54-0.62,4.4-1.87c0.35,0.37,0.81,0.64,1.39,0.81c0.58,0.17,1.17,0.26,1.77,0.26h0.36v-2.36h-0.36
	c-0.15,0-0.33-0.02-0.55-0.05c-0.22-0.04-0.44-0.1-0.65-0.19c-0.21-0.09-0.4-0.22-0.56-0.38c-0.16-0.16-0.26-0.38-0.27-0.63
	c0.04-0.2,0.06-0.43,0.07-0.69c0.01-0.26,0.01-0.49,0.01-0.71v-1.54c0-1.92-0.47-3.38-1.4-4.37c-0.93-0.99-2.32-1.48-4.15-1.48
	c-1.83,0-3.24,0.5-4.22,1.51c-0.98,1.01-1.47,2.46-1.47,4.34v2.64c0,0.31-0.03,0.58-0.08,0.8c-0.04,0.18-0.13,0.33-0.29,0.43
	s-0.33,0.18-0.54,0.23c-0.2,0.05-0.41,0.09-0.62,0.1c-0.21,0.01-0.38,0.01-0.51,0.01h-0.88c-0.26,0-0.48,0.03-0.66,0.1
	c-0.18,0.06-0.27,0.15-0.27,0.26V196.14z M69.33,196.06c0,0.15,0.09,0.26,0.27,0.34c0.18,0.08,0.4,0.12,0.66,0.12h18.77v-2.36h-2.06
	c0-0.18,0-0.4,0.01-0.64c0.01-0.25,0.02-0.5,0.03-0.77c0.01-0.27,0.01-0.52,0.01-0.77v-0.62v-0.33c0-1.22-0.18-2.27-0.55-3.14
	c-0.37-0.87-0.9-1.58-1.59-2.12c-0.7-0.55-1.55-0.95-2.56-1.21c-1.01-0.26-2.15-0.38-3.44-0.38c-0.48,0-1.02,0.01-1.62,0.03
	c-0.6,0.02-1.35,0.05-2.23,0.08c0.02-0.26,0.13-0.66,0.34-1.2c0.21-0.54,0.47-1.11,0.78-1.7l2.58-4.88c0.05-0.11,0.08-0.21,0.08-0.3
	c0-0.09-0.03-0.17-0.1-0.23c-0.06-0.06-0.17-0.1-0.32-0.1h-1.29c-0.2,0-0.35,0.05-0.45,0.16c-0.1,0.11-0.2,0.24-0.29,0.38
	l-2.06,3.79c-0.29,0.53-0.55,1.03-0.76,1.48c-0.21,0.46-0.38,0.89-0.52,1.31c-0.14,0.41-0.24,0.82-0.32,1.22
	c-0.07,0.4-0.11,0.82-0.11,1.26v0.3c0,0.15,0.01,0.24,0.03,0.27c0.05,0.27,0.24,0.41,0.55,0.41c0.11,0,0.35,0,0.71-0.01
	c0.37-0.01,0.81-0.01,1.32-0.01c0.51,0,1.07,0,1.66-0.01c0.59-0.01,1.17-0.01,1.72-0.01c0.92,0,1.75,0.07,2.5,0.22
	c0.75,0.15,1.39,0.41,1.92,0.78c0.53,0.38,0.94,0.89,1.24,1.54c0.29,0.65,0.44,1.47,0.44,2.46c0,0.44-0.01,0.9-0.01,1.37
	c-0.01,0.48-0.02,0.92-0.04,1.35h-14.4c-0.26,0-0.48,0.04-0.66,0.11c-0.18,0.07-0.27,0.18-0.27,0.33V196.06z M61.49,202.38
	c0,0.13,0.03,0.22,0.08,0.29c0.05,0.06,0.17,0.11,0.36,0.15c0.18,0.04,0.43,0.06,0.73,0.08c0.3,0.02,0.5,0.03,0.59,0.03
	c1.06,0,1.92-0.13,2.57-0.38c0.65-0.26,1.16-0.7,1.53-1.35c0.2-0.37,0.34-0.8,0.41-1.29c0.07-0.49,0.11-1.03,0.11-1.62v-1.76h2.56
	v-2.36H67.9v-8.22c0-0.15-0.05-0.27-0.14-0.37c-0.09-0.1-0.2-0.15-0.33-0.15h-1.35c-0.15,0-0.27,0.05-0.36,0.15
	c-0.09,0.1-0.14,0.22-0.14,0.37v12.17c0,0.6-0.05,1.09-0.14,1.44c-0.09,0.36-0.26,0.63-0.49,0.81c-0.24,0.18-0.55,0.3-0.93,0.36
	s-0.88,0.08-1.48,0.08h-0.58c-0.31,0-0.47,0.13-0.47,0.38V202.38z M51.9,189.98c0-1.26,0.26-2.23,0.78-2.9c0.52-0.67,1.39-1,2.6-1
	c1.19,0,2.03,0.34,2.51,1.02c0.49,0.68,0.73,1.64,0.73,2.89V191c0,1.36-0.25,2.32-0.74,2.9c-0.49,0.58-1.35,0.87-2.56,0.87
	c-0.86,0-1.57-0.14-2.12-0.43s-0.92-0.83-1.1-1.64c-0.07-0.42-0.11-0.92-0.11-1.51V189.98z M45.75,196.14
	c0,0.13,0.09,0.22,0.27,0.29c0.18,0.06,0.4,0.1,0.66,0.1h0.44c0.77,0,1.47-0.1,2.12-0.29c0.64-0.19,1.12-0.54,1.43-1.03
	c0.46,0.59,1.08,1.02,1.86,1.31c0.78,0.28,1.68,0.43,2.71,0.43c1.98,0,3.41-0.49,4.29-1.47c0.88-0.98,1.32-2.42,1.32-4.33v-1.4
	c0-1.91-0.47-3.35-1.4-4.34c-0.93-0.99-2.32-1.48-4.15-1.48c-1.83,0-3.24,0.5-4.22,1.51c-0.98,1.01-1.47,2.46-1.47,4.34v2.64
	c0,0.31-0.03,0.58-0.08,0.8c-0.05,0.22-0.16,0.39-0.32,0.51c-0.16,0.12-0.34,0.22-0.54,0.29c-0.2,0.07-0.4,0.12-0.6,0.14
	c-0.2,0.02-0.37,0.03-0.49,0.03h-0.88c-0.26,0-0.48,0.03-0.66,0.1c-0.18,0.06-0.27,0.15-0.27,0.26V196.14z M40.28,180.2
	c0,0.16,0.07,0.3,0.21,0.41c0.14,0.11,0.29,0.16,0.45,0.16h1.07c0.16,0,0.31-0.05,0.44-0.16c0.13-0.11,0.19-0.25,0.19-0.41v-1.48
	c0-0.18-0.06-0.33-0.19-0.44c-0.13-0.11-0.27-0.16-0.44-0.16h-1.07c-0.16,0-0.32,0.05-0.45,0.16c-0.14,0.11-0.21,0.26-0.21,0.44
	V180.2z M35.8,180.2c0,0.16,0.06,0.3,0.18,0.41s0.27,0.16,0.45,0.16h1.07c0.16,0,0.31-0.05,0.44-0.16c0.13-0.11,0.19-0.25,0.19-0.41
	v-1.48c0-0.18-0.06-0.33-0.18-0.44s-0.27-0.16-0.45-0.16h-1.07c-0.18,0-0.33,0.05-0.45,0.16s-0.18,0.26-0.18,0.44V180.2z
	 M35.74,189.72c0-0.74,0.11-1.35,0.34-1.83c0.23-0.49,0.54-0.87,0.93-1.16c0.39-0.28,0.87-0.48,1.42-0.59
	c0.55-0.11,1.15-0.17,1.81-0.17c0.24,0,0.49,0.01,0.77,0.03c0.27,0.02,0.6,0.05,0.96,0.08v6.26c0,0.3-0.07,0.54-0.22,0.73
	c-0.15,0.19-0.34,0.34-0.58,0.45c-0.24,0.11-0.5,0.18-0.8,0.22c-0.29,0.04-0.58,0.05-0.85,0.05h-0.52c-1.19,0-2.03-0.31-2.53-0.92
	c-0.49-0.62-0.74-1.48-0.74-2.58V189.72z M33.43,190.59c0,1.78,0.46,3.13,1.37,4.07c0.92,0.93,2.23,1.4,3.93,1.4h0.25
	c0.77,0,1.48-0.09,2.13-0.26s1.13-0.46,1.44-0.87c0.29,0.59,0.72,1,1.28,1.24c0.56,0.24,1.25,0.36,2.07,0.36h0.93v-2.36h-0.63
	c-0.59,0-1.05-0.11-1.4-0.32c-0.35-0.21-0.52-0.68-0.52-1.42v-7.72c0-0.15-0.02-0.26-0.07-0.34c-0.05-0.08-0.16-0.14-0.34-0.18
	c-0.2-0.05-0.44-0.11-0.71-0.15c-0.27-0.05-0.56-0.09-0.87-0.12c-0.3-0.04-0.61-0.06-0.92-0.08c-0.31-0.02-0.59-0.03-0.82-0.03
	c-1.04,0-2,0.11-2.87,0.34c-0.87,0.23-1.62,0.59-2.25,1.07c-0.63,0.49-1.12,1.11-1.47,1.88s-0.52,1.69-0.52,2.78V190.59z"/>
<path class="st1" d="M186.59,143.5c0,0.16,0.06,0.3,0.18,0.41c0.12,0.11,0.27,0.16,0.45,0.16h1.17c0.18,0,0.33-0.05,0.45-0.16
	c0.12-0.11,0.18-0.25,0.18-0.41v-1.48c0-0.18-0.06-0.33-0.18-0.44c-0.12-0.11-0.26-0.16-0.42-0.16h-1.2c-0.16,0-0.31,0.05-0.43,0.16
	c-0.13,0.11-0.19,0.26-0.19,0.44V143.5z M178.84,159.49c0,0.13,0.09,0.22,0.27,0.29c0.18,0.06,0.4,0.1,0.66,0.1h7.94
	c0.73,0,1.45,0,2.16-0.01c0.7-0.01,1.44-0.05,2.21-0.12c0.38-0.04,0.59-0.21,0.6-0.52c0.02-0.27,0.04-0.58,0.06-0.91
	c0.02-0.33,0.03-0.67,0.04-1.03c0.01-0.36,0.01-0.71,0.01-1.07v-1v-7.2c0-0.15-0.03-0.26-0.08-0.33c-0.05-0.07-0.17-0.13-0.36-0.16
	c-0.49-0.15-1.11-0.25-1.84-0.32c-0.73-0.06-1.48-0.1-2.25-0.1c-1.98,0-3.53,0.52-4.66,1.57s-1.69,2.49-1.69,4.34v0.66
	c0,0.93,0.11,1.71,0.34,2.34c0.23,0.62,0.52,1.13,0.87,1.51h-3.35c-0.26,0-0.48,0.03-0.66,0.1c-0.18,0.06-0.27,0.15-0.27,0.26
	V159.49z M184.23,153.06c0-1.25,0.33-2.19,0.98-2.83c0.65-0.64,1.61-0.96,2.87-0.96c0.48,0,0.91,0.01,1.29,0.03
	c0.38,0.02,0.76,0.05,1.13,0.11v8.08c-0.38,0.04-0.82,0.06-1.32,0.07c-0.49,0.01-0.95,0.01-1.37,0.01c-1.23,0-2.13-0.33-2.71-1
	c-0.58-0.67-0.87-1.64-0.87-2.9V153.06z M175.05,144.62c0,0.16,0.06,0.3,0.18,0.41c0.12,0.11,0.27,0.16,0.45,0.16h1.17
	c0.18,0,0.33-0.05,0.45-0.16c0.12-0.11,0.18-0.25,0.18-0.41v-1.48c0-0.18-0.06-0.33-0.18-0.44c-0.12-0.11-0.26-0.16-0.42-0.16h-1.2
	c-0.16,0-0.31,0.05-0.43,0.16c-0.13,0.11-0.19,0.26-0.19,0.44V144.62z M170.98,159.49c0,0.13,0.09,0.22,0.27,0.29
	c0.18,0.06,0.4,0.1,0.66,0.1h0.91c0.51,0,1.09-0.06,1.72-0.18c0.63-0.12,1.18-0.36,1.64-0.73c0.42,0.37,0.96,0.61,1.61,0.73
	c0.65,0.12,1.26,0.18,1.83,0.18h0.33v-2.36h-0.38c-0.16,0-0.36-0.01-0.58-0.03s-0.44-0.05-0.65-0.1s-0.4-0.11-0.58-0.19
	c-0.17-0.08-0.29-0.2-0.34-0.34v-7.56c0-0.15-0.05-0.27-0.15-0.37c-0.1-0.1-0.22-0.15-0.37-0.15h-1.26c-0.15,0-0.27,0.05-0.37,0.15
	c-0.1,0.1-0.15,0.22-0.15,0.37v7.2c0,0.24-0.07,0.43-0.21,0.56c-0.14,0.14-0.31,0.24-0.51,0.3s-0.41,0.11-0.63,0.12
	c-0.22,0.02-0.42,0.03-0.6,0.03h-1.24c-0.26,0-0.48,0.03-0.66,0.1c-0.18,0.06-0.27,0.15-0.27,0.26V159.49z M159.9,159.41
	c0,0.15,0.05,0.26,0.16,0.34c0.11,0.08,0.24,0.12,0.38,0.12h11.62v-2.36h-1.81l-0.03-3.52c-0.04-0.99-0.18-1.9-0.43-2.72
	c-0.25-0.82-0.64-1.54-1.17-2.14c-0.53-0.6-1.23-1.07-2.09-1.4c-0.86-0.33-1.91-0.49-3.13-0.49c-0.2,0-0.52,0.01-0.95,0.03
	c-0.43,0.02-0.88,0.06-1.36,0.14c-0.2,0.02-0.34,0.07-0.43,0.16c-0.08,0.09-0.12,0.21-0.12,0.36v1.13c0,0.29,0.18,0.42,0.55,0.38
	c0.27-0.04,0.6-0.06,0.98-0.07c0.38-0.01,0.66-0.01,0.87-0.01c1.74,0,3,0.39,3.77,1.18c0.77,0.79,1.17,1.99,1.21,3.6l0.03,3.38h-7.5
	c-0.15,0-0.27,0.05-0.38,0.14c-0.11,0.09-0.16,0.21-0.16,0.36V159.41z M154.14,156.66c0,0.42-0.26,0.68-0.78,0.77
	c-0.52,0.09-1.19,0.14-1.99,0.14c-1.21,0-2.09-0.29-2.64-0.88c-0.55-0.59-0.83-1.53-0.83-2.83v-0.55c0-1.26,0.35-2.24,1.06-2.91
	c0.71-0.68,1.66-1.02,2.87-1.02c0.48,0,0.89,0.01,1.24,0.03c0.35,0.02,0.7,0.05,1.07,0.08V156.66z M140.37,161.77
	c0.35,1.03,0.9,1.89,1.66,2.6c0.76,0.7,1.75,1.25,2.97,1.62c1.22,0.38,2.7,0.56,4.44,0.56c1.1,0,2.19-0.01,3.29-0.04
	c1.09-0.03,2.11-0.11,3.06-0.26c0.4-0.05,0.6-0.25,0.6-0.58c0.02-0.24,0.03-0.55,0.04-0.95c0.01-0.39,0.01-0.8,0.01-1.22v-1.22
	v-0.98v-13.19c0-0.15-0.03-0.25-0.08-0.32c-0.05-0.06-0.16-0.12-0.33-0.18c-0.48-0.15-1.06-0.25-1.76-0.32
	c-0.7-0.06-1.41-0.1-2.14-0.1c-2.09,0-3.7,0.56-4.84,1.68c-1.13,1.12-1.7,2.65-1.7,4.59v0.69c0,1.91,0.49,3.33,1.46,4.29
	c0.97,0.95,2.31,1.43,4.01,1.43c0.24,0,0.51,0,0.81-0.01c0.3-0.01,0.6-0.04,0.89-0.08c0.29-0.05,0.56-0.1,0.81-0.16
	c0.25-0.06,0.43-0.15,0.56-0.26v4.73c-0.28,0.04-0.62,0.06-1.03,0.08c-0.41,0.02-0.84,0.04-1.29,0.05
	c-0.45,0.02-0.88,0.03-1.31,0.03h-1.1c-1.5,0-2.73-0.17-3.67-0.51c-0.94-0.34-1.68-0.81-2.23-1.4c-0.54-0.6-0.91-1.3-1.11-2.1
	c-0.2-0.81-0.3-1.69-0.3-2.64c0-0.31,0.01-0.69,0.03-1.14c0.02-0.45,0.05-0.88,0.08-1.31c0-0.38-0.15-0.58-0.44-0.58h-1.15
	c-0.29,0-0.47,0.17-0.52,0.52c-0.06,0.27-0.1,0.56-0.12,0.87c-0.03,0.3-0.05,0.59-0.07,0.88c-0.02,0.28-0.03,0.55-0.04,0.81
	c-0.01,0.26-0.01,0.47-0.01,0.63C139.84,159.58,140.02,160.75,140.37,161.77 M152.43,143.55c0,0.16,0.07,0.3,0.21,0.41
	s0.29,0.16,0.45,0.16h1.07c0.16,0,0.31-0.05,0.44-0.16c0.13-0.11,0.19-0.25,0.19-0.41v-1.48c0-0.18-0.06-0.33-0.19-0.44
	c-0.13-0.11-0.28-0.16-0.44-0.16h-1.07c-0.16,0-0.31,0.05-0.45,0.16s-0.21,0.26-0.21,0.44V143.55z M147.95,143.55
	c0,0.16,0.06,0.3,0.18,0.41c0.12,0.11,0.27,0.16,0.45,0.16h1.07c0.16,0,0.31-0.05,0.44-0.16c0.13-0.11,0.19-0.25,0.19-0.41v-1.48
	c0-0.18-0.06-0.33-0.18-0.44c-0.12-0.11-0.27-0.16-0.45-0.16h-1.07c-0.18,0-0.33,0.05-0.45,0.16c-0.12,0.11-0.18,0.26-0.18,0.44
	V143.55z M120.69,153.34c0-1.26,0.26-2.23,0.78-2.9c0.52-0.67,1.39-1,2.6-1c1.19,0,2.03,0.34,2.51,1.02
	c0.49,0.68,0.73,1.64,0.73,2.89v1.02c0,1.36-0.25,2.32-0.74,2.9c-0.49,0.58-1.35,0.87-2.56,0.87c-0.86,0-1.57-0.14-2.12-0.43
	s-0.92-0.83-1.1-1.64c-0.07-0.42-0.11-0.92-0.11-1.51V153.34z M114.53,159.49c0,0.13,0.09,0.22,0.27,0.29
	c0.18,0.06,0.4,0.1,0.66,0.1h0.44c0.77,0,1.47-0.1,2.12-0.29c0.64-0.19,1.12-0.54,1.43-1.03c0.46,0.59,1.08,1.02,1.86,1.31
	c0.78,0.28,1.68,0.43,2.71,0.43c1.98,0,3.41-0.49,4.29-1.47c0.88-0.98,1.32-2.42,1.32-4.33v-1.4c0-1.91-0.47-3.35-1.4-4.34
	c-0.93-0.99-2.32-1.48-4.15-1.48c-1.83,0-3.24,0.5-4.22,1.51c-0.98,1.01-1.47,2.46-1.47,4.34v2.64c0,0.31-0.03,0.58-0.08,0.8
	c-0.05,0.22-0.16,0.39-0.32,0.51c-0.16,0.12-0.34,0.22-0.54,0.29c-0.2,0.07-0.4,0.12-0.6,0.14c-0.2,0.02-0.37,0.03-0.49,0.03h-0.88
	c-0.26,0-0.48,0.03-0.66,0.1c-0.18,0.06-0.27,0.15-0.27,0.26V159.49z M106.7,165.73c0,0.13,0.03,0.22,0.08,0.29
	c0.05,0.06,0.17,0.11,0.36,0.15c0.18,0.04,0.43,0.06,0.73,0.08c0.3,0.02,0.5,0.03,0.59,0.03c1.06,0,1.92-0.13,2.57-0.38
	c0.65-0.26,1.16-0.7,1.53-1.35c0.2-0.37,0.34-0.8,0.41-1.29c0.07-0.49,0.11-1.03,0.11-1.62v-1.76h2.56v-2.36h-2.53v-8.22
	c0-0.15-0.05-0.27-0.14-0.37s-0.2-0.15-0.33-0.15h-1.35c-0.15,0-0.27,0.05-0.36,0.15c-0.09,0.1-0.14,0.22-0.14,0.37v12.17
	c0,0.6-0.05,1.09-0.14,1.44c-0.09,0.36-0.26,0.63-0.49,0.81c-0.24,0.18-0.55,0.3-0.93,0.36s-0.88,0.08-1.48,0.08h-0.58
	c-0.31,0-0.47,0.13-0.47,0.38V165.73z M90.24,159.49c0,0.09,0.09,0.18,0.26,0.26c0.17,0.08,0.4,0.12,0.67,0.12h14.54
	c0.31,0,0.52-0.06,0.63-0.18c0.11-0.12,0.16-0.28,0.16-0.48v-0.99c0-0.2-0.01-0.36-0.04-0.49c-0.03-0.13-0.06-0.26-0.1-0.38
	l-1.15-2.93l-0.27-0.71c-0.53-1.28-1.1-2.33-1.7-3.14c-0.6-0.81-1.26-1.45-1.98-1.92c-0.71-0.47-1.47-0.79-2.28-0.96
	c-0.81-0.17-1.67-0.26-2.58-0.26c-0.33,0-0.75,0.02-1.25,0.05c-0.5,0.04-0.96,0.1-1.36,0.19c-0.2,0.04-0.34,0.09-0.41,0.18
	c-0.07,0.08-0.11,0.19-0.11,0.34v1.11c0,0.29,0.2,0.42,0.6,0.38c0.15-0.02,0.32-0.03,0.51-0.04c0.19-0.01,0.38-0.02,0.58-0.04
	c0.19-0.02,0.37-0.03,0.52-0.04c0.16-0.01,0.27-0.01,0.34-0.01c1.72,0,3.08,0.34,4.08,1.03c1,0.69,1.8,1.73,2.4,3.12l0.63,1.46
	l0.99,2.36H91.17c-0.26,0-0.48,0.03-0.66,0.1c-0.18,0.06-0.27,0.15-0.27,0.26V159.49z M96.67,143.86c0,0.16,0.06,0.3,0.18,0.41
	c0.12,0.11,0.27,0.16,0.45,0.16h1.17c0.18,0,0.33-0.05,0.45-0.16c0.12-0.11,0.18-0.25,0.18-0.41v-1.48c0-0.18-0.06-0.33-0.18-0.44
	c-0.12-0.11-0.26-0.16-0.42-0.16h-1.2c-0.16,0-0.31,0.05-0.43,0.16c-0.13,0.11-0.19,0.26-0.19,0.44V143.86z M75.92,151.03
	c0.38-0.31,0.84-0.56,1.37-0.76c0.53-0.19,1.06-0.34,1.6-0.45c0.53-0.11,1.03-0.19,1.5-0.23c0.47-0.05,0.84-0.07,1.11-0.07
	c0.93,0,1.75,0.08,2.45,0.25c0.7,0.16,1.27,0.44,1.73,0.84c0.46,0.39,0.8,0.92,1.03,1.59c0.23,0.67,0.34,1.51,0.34,2.51v0.47
	c0,0.97-0.06,1.61-0.18,1.91c-0.12,0.3-0.31,0.45-0.56,0.45h-7.06h-1.88c-0.49,0-0.97-0.02-1.44-0.05V151.03z M63.14,159.75
	c0.27,1.03,0.74,1.91,1.4,2.62c0.66,0.71,1.53,1.26,2.61,1.64c1.08,0.38,2.43,0.56,4.04,0.56c0.64,0,1.31-0.04,2.01-0.11
	c0.7-0.07,1.37-0.18,2.03-0.33c0.2-0.05,0.35-0.12,0.45-0.21c0.1-0.08,0.15-0.22,0.15-0.4c0.02-0.22,0.03-0.48,0.04-0.78
	c0.01-0.3,0.02-0.62,0.03-0.96c0.01-0.34,0.01-0.67,0.01-1v-0.91h15.42v-2.36h-2.22c0.05-0.15,0.1-0.33,0.14-0.56
	c0.04-0.23,0.06-0.47,0.07-0.73c0.01-0.26,0.02-0.52,0.03-0.78c0.01-0.27,0.01-0.5,0.01-0.7v-0.41c0-1.28-0.16-2.37-0.48-3.26
	c-0.32-0.9-0.79-1.63-1.42-2.19c-0.62-0.57-1.39-0.98-2.29-1.23c-0.91-0.26-1.95-0.38-3.12-0.38c-0.31,0-0.71,0.02-1.21,0.05
	c-0.49,0.04-1.03,0.11-1.59,0.23c-0.57,0.12-1.15,0.29-1.73,0.52c-0.59,0.23-1.12,0.52-1.6,0.88v-1.09c0-0.14-0.05-0.27-0.14-0.38
	c-0.09-0.11-0.21-0.16-0.36-0.16h-1.27c-0.15,0-0.27,0.05-0.38,0.16c-0.11,0.11-0.16,0.24-0.16,0.38v9.63v1.07v1
	c0,0.34-0.01,0.7-0.02,1.1c-0.01,0.39-0.01,0.85-0.01,1.36c-0.44,0.09-0.87,0.15-1.3,0.16c-0.43,0.02-0.79,0.03-1.09,0.03
	c-1.41,0-2.52-0.18-3.34-0.54c-0.82-0.36-1.43-0.85-1.84-1.47c-0.41-0.62-0.68-1.36-0.8-2.2c-0.12-0.84-0.18-1.74-0.18-2.69
	c0-0.31,0.02-0.73,0.07-1.25c0.05-0.52,0.1-0.99,0.15-1.42c0.02-0.38-0.13-0.58-0.44-0.58h-1.18c-0.18,0-0.31,0.04-0.38,0.12
	c-0.07,0.08-0.13,0.22-0.16,0.43c-0.06,0.22-0.1,0.5-0.14,0.85c-0.04,0.35-0.07,0.7-0.11,1.04c-0.04,0.35-0.06,0.68-0.08,1
	c-0.02,0.32-0.03,0.56-0.03,0.73C62.73,157.55,62.87,158.72,63.14,159.75 M46.08,143.5c0,0.16,0.06,0.3,0.18,0.41
	c0.12,0.11,0.27,0.16,0.45,0.16h1.17c0.18,0,0.33-0.05,0.45-0.16c0.12-0.11,0.18-0.25,0.18-0.41v-1.48c0-0.18-0.06-0.33-0.18-0.44
	c-0.12-0.11-0.26-0.16-0.42-0.16h-1.2c-0.16,0-0.31,0.05-0.44,0.16c-0.13,0.11-0.19,0.26-0.19,0.44V143.5z M38.33,159.49
	c0,0.13,0.09,0.22,0.27,0.29c0.18,0.06,0.4,0.1,0.66,0.1h7.94c0.73,0,1.45,0,2.16-0.01c0.7-0.01,1.44-0.05,2.21-0.12
	c0.38-0.04,0.59-0.21,0.6-0.52c0.02-0.27,0.04-0.58,0.05-0.91c0.02-0.33,0.03-0.67,0.04-1.03c0.01-0.36,0.01-0.71,0.01-1.07v-1v-7.2
	c0-0.15-0.03-0.26-0.08-0.33c-0.05-0.07-0.17-0.13-0.36-0.16c-0.49-0.15-1.11-0.25-1.84-0.32c-0.73-0.06-1.48-0.1-2.25-0.1
	c-1.98,0-3.53,0.52-4.66,1.57s-1.69,2.49-1.69,4.34v0.66c0,0.93,0.11,1.71,0.34,2.34c0.23,0.62,0.52,1.13,0.87,1.51h-3.35
	c-0.26,0-0.48,0.03-0.66,0.1c-0.18,0.06-0.27,0.15-0.27,0.26V159.49z M43.71,153.06c0-1.25,0.32-2.19,0.98-2.83
	c0.65-0.64,1.61-0.96,2.87-0.96c0.48,0,0.91,0.01,1.29,0.03c0.38,0.02,0.76,0.05,1.13,0.11v8.08c-0.38,0.04-0.82,0.06-1.32,0.07
	c-0.49,0.01-0.95,0.01-1.37,0.01c-1.23,0-2.13-0.33-2.71-1c-0.58-0.67-0.87-1.64-0.87-2.9V153.06z M23.05,168.59
	c0,0.15,0.06,0.27,0.19,0.38c0.13,0.11,0.27,0.16,0.41,0.16h1.07c0.15,0,0.28-0.05,0.41-0.16c0.13-0.11,0.19-0.24,0.19-0.38v-1.37
	c0-0.18-0.06-0.33-0.19-0.43c-0.13-0.1-0.27-0.15-0.41-0.15h-1.07c-0.15,0-0.28,0.05-0.41,0.15c-0.13,0.1-0.19,0.24-0.19,0.43
	V168.59z M18.59,168.59c0,0.15,0.06,0.27,0.18,0.38c0.12,0.11,0.27,0.16,0.45,0.16h1.02c0.15,0,0.29-0.05,0.43-0.16
	c0.14-0.11,0.21-0.24,0.21-0.38v-1.37c0-0.18-0.06-0.33-0.19-0.43c-0.13-0.1-0.27-0.15-0.44-0.15h-1.02c-0.18,0-0.33,0.05-0.45,0.15
	c-0.12,0.1-0.18,0.24-0.18,0.43V168.59z M15.35,159.62c0.26,1.02,0.7,1.88,1.35,2.6c0.64,0.71,1.49,1.27,2.56,1.66
	c1.06,0.39,2.41,0.59,4.04,0.59c0.88,0,1.74-0.03,2.58-0.08c0.84-0.05,1.6-0.15,2.28-0.27c0.38-0.07,0.58-0.27,0.58-0.58
	c0.02-0.26,0.03-0.55,0.04-0.88c0.01-0.33,0.02-0.67,0.03-1.03c0.01-0.36,0.01-0.7,0.01-1.03v-0.88v-4.97c0-0.7,0.09-1.27,0.26-1.73
	c0.17-0.46,0.42-0.82,0.74-1.09s0.71-0.45,1.18-0.56c0.47-0.11,0.99-0.16,1.58-0.16c0.33,0,0.63,0.01,0.89,0.03
	c0.27,0.02,0.58,0.05,0.95,0.11v5.69c0,1.08,0.24,1.83,0.71,2.24c0.48,0.41,1.29,0.62,2.45,0.62h1.84v-2.36h-1.26
	c-0.57,0-0.95-0.06-1.14-0.18c-0.19-0.12-0.29-0.4-0.29-0.84v-6.62c0-0.16-0.04-0.28-0.11-0.34c-0.07-0.06-0.18-0.11-0.33-0.15
	c-0.51-0.13-1.08-0.22-1.69-0.27c-0.61-0.05-1.22-0.08-1.83-0.08c-1.96,0-3.49,0.44-4.6,1.32c-1.11,0.88-1.66,2.29-1.66,4.23v3v1.04
	v0.95c0,0.32,0,0.67-0.01,1.04c-0.01,0.38-0.01,0.82-0.01,1.33c-0.42,0.09-0.91,0.15-1.47,0.18s-1.1,0.04-1.64,0.04
	c-1.41,0-2.52-0.18-3.34-0.55c-0.81-0.37-1.43-0.86-1.84-1.47c-0.41-0.61-0.68-1.33-0.8-2.14c-0.12-0.81-0.18-1.68-0.18-2.6
	c0-0.31,0.02-0.71,0.07-1.2s0.1-0.94,0.15-1.36c0.02-0.37-0.13-0.55-0.44-0.55h-1.15c-0.31,0-0.49,0.17-0.55,0.52
	c-0.05,0.27-0.1,0.57-0.14,0.89c-0.04,0.32-0.07,0.64-0.1,0.96c-0.03,0.32-0.05,0.62-0.07,0.89s-0.03,0.49-0.03,0.66
	C14.97,157.47,15.09,158.6,15.35,159.62"/>
<g>
	<rect x="60.08" y="120.45" class="st2" width="88.29" height="6.87"/>
</g>
<g>
	<defs>
		<rect id="SVGID_1_" x="173.68" y="5.73" width="122.77" height="118.84"/>
	</defs>
	<clipPath id="SVGID_00000143583001396926579520000002262719591520095904_">
		<use xlink:href="#SVGID_1_"  style="overflow:visible;"/>
	</clipPath>
	
		<path style="clip-path:url(#SVGID_00000143583001396926579520000002262719591520095904_);fill-rule:evenodd;clip-rule:evenodd;fill:#957E61;" d="
		M190.62,93.98l0.21,5.61l0.04,1.97l-6.63-0.25l0.31-7.32c0-0.64,0.08-1.21,0.22-1.72c0.15-0.55,0.38-1.02,0.65-1.41
		c0.3-0.42,0.64-0.74,1-0.96c0.39-0.24,0.8-0.36,1.17-0.36c0.37,0,0.78,0.12,1.17,0.36c0.36,0.22,0.7,0.54,1,0.96
		c0.27,0.38,0.5,0.85,0.65,1.41C190.54,92.77,190.62,93.34,190.62,93.98"/>
	<path style="clip-path:url(#SVGID_00000143583001396926579520000002262719591520095904_);fill:#1D1D1B;" d="M191.45,101.56
		c-2.26,0.38-5.43,0.29-7.69,0C184.59,100.97,189.65,100.82,191.45,101.56"/>
	<path style="clip-path:url(#SVGID_00000143583001396926579520000002262719591520095904_);fill:#1D1D1B;" d="M187.59,88.94
		c2.48,0,3.64,2.93,3.64,5.04l-0.39,5.61l-0.31-5.61c0-1.7-0.88-4.34-2.93-4.34V88.94z"/>
	<path style="clip-path:url(#SVGID_00000143583001396926579520000002262719591520095904_);fill:#1D1D1B;" d="M187.59,89.64
		c-0.68,0-1.49,0.42-2.08,1.27c-0.5,0.72-0.85,1.73-0.85,3.07l-0.37,6.24l-0.33-6.24c0-1.49,0.4-2.64,0.98-3.47
		c0.74-1.06,1.77-1.58,2.66-1.58V89.64z"/>
	
		<path style="clip-path:url(#SVGID_00000143583001396926579520000002262719591520095904_);fill-rule:evenodd;clip-rule:evenodd;fill:#957E61;" d="
		M200.8,93.98l0.21,5.61l0.04,1.97l-6.63-0.25l0.31-7.32c0-0.64,0.08-1.21,0.22-1.72c0.15-0.55,0.38-1.02,0.65-1.41
		c0.3-0.42,0.64-0.74,1-0.96c0.39-0.24,0.8-0.36,1.17-0.36c0.37,0,0.78,0.12,1.17,0.36c0.36,0.22,0.7,0.54,1,0.96
		c0.27,0.38,0.5,0.85,0.65,1.41C200.72,92.77,200.8,93.34,200.8,93.98"/>
	<path style="clip-path:url(#SVGID_00000143583001396926579520000002262719591520095904_);fill:#1D1D1B;" d="M201.63,101.56
		c-2.26,0.38-5.43,0.29-7.69,0C194.76,100.97,199.83,100.82,201.63,101.56"/>
	<path style="clip-path:url(#SVGID_00000143583001396926579520000002262719591520095904_);fill:#1D1D1B;" d="M197.76,88.94
		c2.48,0,3.64,2.93,3.64,5.04l-0.39,5.61l-0.31-5.61c0-1.7-0.88-4.34-2.93-4.34V88.94z"/>
	<path style="clip-path:url(#SVGID_00000143583001396926579520000002262719591520095904_);fill:#1D1D1B;" d="M197.76,89.64
		c-0.68,0-1.49,0.42-2.08,1.27c-0.5,0.72-0.85,1.73-0.85,3.07l-0.37,6.24l-0.33-6.24c0-1.49,0.4-2.64,0.98-3.47
		c0.74-1.06,1.77-1.58,2.66-1.58V89.64z"/>
	
		<path style="clip-path:url(#SVGID_00000143583001396926579520000002262719591520095904_);fill-rule:evenodd;clip-rule:evenodd;fill:#957E61;" d="
		M190.62,116.73l0.21,5.61l0.04,1.97l-6.63-0.25l0.31-7.32c0-0.64,0.08-1.21,0.22-1.72c0.15-0.55,0.38-1.02,0.65-1.41
		c0.3-0.42,0.64-0.74,1-0.96c0.39-0.24,0.8-0.36,1.17-0.36c0.37,0,0.78,0.12,1.17,0.36c0.36,0.22,0.7,0.54,1,0.96
		c0.27,0.38,0.5,0.85,0.65,1.41C190.54,115.51,190.62,116.09,190.62,116.73"/>
	<path style="clip-path:url(#SVGID_00000143583001396926579520000002262719591520095904_);fill:#1D1D1B;" d="M187.59,111.68
		c2.48,0,3.64,2.93,3.64,5.04l-0.39,5.61l-0.31-5.61c0-1.7-0.88-4.34-2.93-4.34V111.68z"/>
	<path style="clip-path:url(#SVGID_00000143583001396926579520000002262719591520095904_);fill:#1D1D1B;" d="M187.59,112.39
		c-0.68,0-1.49,0.42-2.08,1.27c-0.5,0.72-0.85,1.73-0.85,3.07l-0.37,6.24l-0.33-6.24c0-1.49,0.4-2.64,0.98-3.47
		c0.74-1.06,1.77-1.58,2.66-1.58V112.39z"/>
	
		<path style="clip-path:url(#SVGID_00000143583001396926579520000002262719591520095904_);fill-rule:evenodd;clip-rule:evenodd;fill:#957E61;" d="
		M200.8,116.73l0.21,5.61l0.04,1.97l-6.63-0.25l0.31-7.32c0-0.64,0.08-1.21,0.22-1.72c0.15-0.55,0.38-1.02,0.65-1.41
		c0.3-0.42,0.64-0.74,1-0.96c0.39-0.24,0.8-0.36,1.17-0.36c0.37,0,0.78,0.12,1.17,0.36c0.36,0.22,0.7,0.54,1,0.96
		c0.27,0.38,0.5,0.85,0.65,1.41C200.72,115.51,200.8,116.09,200.8,116.73"/>
	<path style="clip-path:url(#SVGID_00000143583001396926579520000002262719591520095904_);fill:#1D1D1B;" d="M197.76,111.68
		c2.48,0,3.64,2.93,3.64,5.04l-0.39,5.61l-0.31-5.61c0-1.7-0.88-4.34-2.93-4.34V111.68z"/>
	<path style="clip-path:url(#SVGID_00000143583001396926579520000002262719591520095904_);fill:#1D1D1B;" d="M197.76,112.39
		c-0.68,0-1.49,0.42-2.08,1.27c-0.5,0.72-0.85,1.73-0.85,3.07l-0.37,6.24l-0.33-6.24c0-1.49,0.4-2.64,0.98-3.47
		c0.74-1.06,1.77-1.58,2.66-1.58V112.39z"/>
	
		<path style="clip-path:url(#SVGID_00000143583001396926579520000002262719591520095904_);fill-rule:evenodd;clip-rule:evenodd;fill:#EEDEC0;" d="
		M271.58,40.03l-0.5-0.12l-0.3-5.85h1.82l-0.06-1.61h-0.04h-0.96l-3.95-3.3l-0.03-7.69c0-1.33-0.93-2.66-2.11-3.25l0.02-3.32
		c2.86-0.23,5.08-3.87,3.12-6.35c0.14,2.15-1.43,4.22-3.66,4.22c-2.77,0-3.55-2.17-3.67-4.56c-1.29,2.94-0.19,6.36,3.12,6.63
		l0.06,3.38c-1.24,0.59-2.11,2.11-2.11,3.23c0,2.76-0.01,4.97,0,7.79l-3.75,2.73h-2.18l0.26,2.14l1.88-0.03l-0.07,5.92l-0.5,0.03
		l-0.07,1.84l1.64,0.02l-0.08,15.61L270,62.51l-0.12-20.63l1.72-0.05L271.58,40.03z"/>
	
		<path style="clip-path:url(#SVGID_00000143583001396926579520000002262719591520095904_);fill-rule:evenodd;clip-rule:evenodd;fill:#E6C39B;" d="
		M271.58,40.03l-0.5-0.12l-0.3-5.85h1.82l-0.06-1.61h-0.04h-0.96l-3.95-3.3l-0.03-7.69c0-1.33-0.93-2.66-2.1-3.25
		c1.88,6.01-2.01,8.81,1.68,19.27c2.55,7.43-1.55,11.95-1.58,14.73c-0.45,1.84-0.37,4.78,0.05,8.19l4.41,2.1l-0.12-20.63l1.72-0.05
		L271.58,40.03z M266.19,14.75c2.5-0.71,4.21-3.95,2.41-6.22c0.11,1.72-0.87,3.38-2.41,3.98C266.24,13.28,266.24,14.03,266.19,14.75
		"/>
	<path style="clip-path:url(#SVGID_00000143583001396926579520000002262719591520095904_);fill:#1D1D1B;" d="M259.24,41.65
		c2.69,0,5.73,0.3,8.46,0.44l2.24-0.31l0.25-0.04c0.05,6.61-0.1,11.87-0.2,19.09c-0.45-7.39-0.3-11.93-0.3-18.74h-9.81
		c-0.05,4.8-0.21,9.94-0.41,14.4C259.32,52.64,259.35,46.62,259.24,41.65"/>
	<path style="clip-path:url(#SVGID_00000143583001396926579520000002262719591520095904_);fill:#1D1D1B;" d="M258.1,41.59l9.6,0.5
		l3.64-0.5v-1.36H258.1V41.59z M257.59,39.72h14.24v2.37h-14.24V39.72z"/>
	<path style="clip-path:url(#SVGID_00000143583001396926579520000002262719591520095904_);fill:#1D1D1B;" d="M258.22,34.32h0.5v5.66
		h-0.5V34.32z M271.21,39.98h-0.5v-5.66h0.5V39.98z"/>
	<path style="clip-path:url(#SVGID_00000143583001396926579520000002262719591520095904_);fill:#1D1D1B;" d="M261.05,35.68
		c0.34,0,0.73,0.19,1,0.58c0.21,0.29,0.35,0.7,0.35,1.22v2.5h-0.5v-2.5c0-0.41-0.11-0.72-0.26-0.93c-0.17-0.24-0.4-0.36-0.59-0.36
		V35.68z"/>
	<path style="clip-path:url(#SVGID_00000143583001396926579520000002262719591520095904_);fill:#1D1D1B;" d="M261.05,36.18
		c-0.19,0-0.42,0.12-0.59,0.36c-0.15,0.21-0.26,0.52-0.26,0.93v2.5h-0.5v-2.5c0-0.52,0.14-0.93,0.35-1.22
		c0.27-0.39,0.66-0.58,1-0.58V36.18z"/>
	<path style="clip-path:url(#SVGID_00000143583001396926579520000002262719591520095904_);fill:#1D1D1B;" d="M256.9,33.81h15.63
		v-1.36l-16.14-0.5L256.9,33.81z M272.78,34.32h-16.14h-0.25v-0.25V32.2v-0.25h0.25h16.14h0.25v0.25v1.87v0.25H272.78z"/>
	<polygon style="clip-path:url(#SVGID_00000143583001396926579520000002262719591520095904_);fill:#1D1D1B;" points="270.87,31.95 
		267.51,29.65 262.38,29.65 259.02,31.95 258.13,31.95 262.16,29.19 262.23,29.15 262.55,29.65 267.67,29.15 	"/>
	<path style="clip-path:url(#SVGID_00000143583001396926579520000002262719591520095904_);fill:#1D1D1B;" d="M269.09,25.16
		c-2.07,0.07-5.11,0.39-8.25-0.1C263,24.8,266.94,24.74,269.09,25.16"/>
	<path style="clip-path:url(#SVGID_00000143583001396926579520000002262719591520095904_);fill:#1D1D1B;" d="M267.34,29.28v-4.22
		h0.25h0.25v4.24l-0.18-0.15L267.34,29.28z M262.05,29.27v-4.21h0.5v4.59C262.31,29.51,262.22,29.41,262.05,29.27"/>
	<path style="clip-path:url(#SVGID_00000143583001396926579520000002262719591520095904_);fill:#1D1D1B;" d="M262.05,25.06v-3.67
		c0-0.78,0.28-1.53,0.77-2.17c0.34-0.43,0.77-0.81,1.27-1.11v-3.27v-0.33l0.32,0.08c0.09,0.02,0.18,0.04,0.26,0.05
		c0.08,0.01,0.17,0.02,0.27,0.02c0.1,0,0.19-0.01,0.27-0.02c0.09-0.01,0.17-0.03,0.26-0.05l0.31-0.08v0.33v3.27
		c0.51,0.3,0.94,0.68,1.27,1.11c0.49,0.64,0.78,1.39,0.78,2.17v3.67h-0.25h-0.25v-3.67c0-0.67-0.24-1.32-0.67-1.86
		c-0.42-0.54-1.01-0.99-1.72-1.27c-0.71,0.29-1.3,0.74-1.72,1.27c-0.43,0.55-0.67,1.2-0.67,1.86v3.67h-0.25H262.05z M264.6,17.85
		c0.08-0.04,0.17-0.07,0.25-0.1l0.04-0.02l0.01,0l0.01,0l0.01,0l0,0l0.01,0l0,0l0.01,0l0,0l0.01,0l0.01,0l0.01,0l0.01,0l0.01,0
		l0.01,0l0.01,0l0.01,0l0.01,0l0.01,0l0.04,0.02c0.09,0.03,0.17,0.07,0.25,0.1v-2.7l-0.01,0c-0.11,0.02-0.22,0.02-0.33,0.02
		c-0.11,0-0.22-0.01-0.33-0.02l-0.01,0V17.85z"/>
	<path style="clip-path:url(#SVGID_00000143583001396926579520000002262719591520095904_);fill:#1D1D1B;" d="M268.1,7.09
		c0.46,0.43,0.83,0.95,1.09,1.54c0.25,0.56,0.38,1.19,0.38,1.84c0,1.28-0.52,2.43-1.35,3.27c-0.84,0.84-1.99,1.35-3.27,1.35
		c-1.28,0-2.43-0.52-3.26-1.35c-0.84-0.84-1.35-1.99-1.35-3.27c0-0.65,0.14-1.27,0.38-1.84c0.26-0.59,0.63-1.11,1.09-1.54l1.46-1.36
		l-1.07,1.68c-0.16,0.26-0.3,0.54-0.38,0.85c-0.09,0.29-0.13,0.6-0.13,0.92c0,0.91,0.37,1.73,0.96,2.32
		c0.59,0.59,1.41,0.96,2.32,0.96c0.91,0,1.73-0.37,2.32-0.96c0.59-0.59,0.96-1.41,0.96-2.32c0-0.32-0.05-0.63-0.13-0.92
		c-0.09-0.3-0.22-0.59-0.38-0.85l-1.07-1.68L268.1,7.09z M268.72,8.82l-0.01-0.02c0.01,0.12,0.02,0.24,0.02,0.37
		c0,1.04-0.42,1.99-1.11,2.68c-0.69,0.68-1.63,1.11-2.68,1.11c-1.04,0-1.99-0.42-2.68-1.11c-0.68-0.68-1.11-1.63-1.11-2.68
		c0-0.12,0.01-0.25,0.02-0.37l-0.01,0.02c-0.22,0.5-0.34,1.06-0.34,1.64c0,1.14,0.46,2.17,1.21,2.91c0.74,0.74,1.77,1.2,2.91,1.2
		c1.14,0,2.17-0.46,2.91-1.2c0.74-0.74,1.21-1.77,1.21-2.91C269.06,9.88,268.94,9.32,268.72,8.82"/>
	<path style="clip-path:url(#SVGID_00000143583001396926579520000002262719591520095904_);fill:#1D1D1B;" d="M264.77,35.68
		c0.34,0,0.73,0.19,1,0.58c0.21,0.29,0.35,0.7,0.35,1.22v2.5h-0.5v-2.5c0-0.41-0.11-0.72-0.26-0.93c-0.17-0.24-0.4-0.36-0.59-0.36
		V35.68z"/>
	<path style="clip-path:url(#SVGID_00000143583001396926579520000002262719591520095904_);fill:#1D1D1B;" d="M264.77,36.18
		c-0.19,0-0.42,0.12-0.59,0.36c-0.15,0.21-0.26,0.52-0.26,0.93v2.5h-0.5v-2.5c0-0.52,0.14-0.93,0.35-1.22
		c0.27-0.39,0.66-0.58,1-0.58V36.18z"/>
	<path style="clip-path:url(#SVGID_00000143583001396926579520000002262719591520095904_);fill:#1D1D1B;" d="M268.48,35.68
		c0.34,0,0.73,0.19,1,0.58c0.21,0.29,0.35,0.7,0.35,1.22v2.5h-0.5v-2.5c0-0.41-0.11-0.72-0.26-0.93c-0.17-0.24-0.4-0.36-0.59-0.36
		V35.68z"/>
	<path style="clip-path:url(#SVGID_00000143583001396926579520000002262719591520095904_);fill:#1D1D1B;" d="M268.48,36.18
		c-0.19,0-0.42,0.12-0.59,0.36c-0.15,0.21-0.26,0.52-0.26,0.93v2.5h-0.5v-2.5c0-0.52,0.14-0.93,0.35-1.22
		c0.27-0.39,0.66-0.58,1-0.58V36.18z"/>
	<path style="clip-path:url(#SVGID_00000143583001396926579520000002262719591520095904_);fill:#1D1D1B;" d="M268.5,44.03
		c-1.46,3.31-3.14,5.15-5.32,8.3C267.22,48.56,267.55,46.69,268.5,44.03"/>
	
		<path style="clip-path:url(#SVGID_00000143583001396926579520000002262719591520095904_);fill-rule:evenodd;clip-rule:evenodd;fill:#EEDEC0;" d="
		M203.33,55.69l-0.5-0.12l-0.3-5.85h1.82l-0.06-1.61h-0.04h-0.96l-3.95-3.3l-0.03-7.69c0-1.33-0.93-2.66-2.11-3.25l0.02-3.32
		c2.86-0.23,5.08-3.87,3.12-6.35c0.14,2.15-1.43,4.22-3.66,4.22c-2.77,0-3.55-2.17-3.67-4.56c-1.29,2.94-0.19,6.36,3.12,6.63
		l0.06,3.38c-1.24,0.59-2.11,2.11-2.11,3.23c0,2.76-0.01,4.97,0,7.79l-3.75,2.73h-2.18l0.26,2.14l1.88-0.03l-0.07,5.92l-0.5,0.03
		l-0.07,1.84l1.64,0.02l-0.08,15.61l10.54,5.03l-0.12-20.63l1.72-0.05L203.33,55.69z"/>
	
		<path style="clip-path:url(#SVGID_00000143583001396926579520000002262719591520095904_);fill-rule:evenodd;clip-rule:evenodd;fill:#E6C39B;" d="
		M203.33,55.69l-0.5-0.12l-0.3-5.85h1.82l-0.06-1.61h-0.04h-0.96l-3.95-3.3l-0.03-7.69c0-1.33-0.93-2.66-2.1-3.25
		c1.88,6.01-2.01,8.81,1.68,19.27c2.55,7.43-1.55,11.95-1.58,14.73c-0.45,1.84-0.37,4.78,0.05,8.19l4.41,2.1l-0.12-20.63l1.72-0.05
		L203.33,55.69z M197.94,30.41c2.5-0.71,4.21-3.95,2.41-6.22c0.11,1.72-0.87,3.38-2.41,3.98C197.98,28.94,197.99,29.68,197.94,30.41
		"/>
	<path style="clip-path:url(#SVGID_00000143583001396926579520000002262719591520095904_);fill:#1D1D1B;" d="M190.99,57.31
		c2.69,0,5.73,0.3,8.46,0.44l2.24-0.31l0.25-0.04c0.05,6.61-0.1,11.87-0.2,19.09c-0.45-7.39-0.3-11.93-0.3-18.74h-9.81
		c-0.05,4.8-0.21,9.94-0.41,14.4C191.07,68.3,191.1,62.28,190.99,57.31"/>
	<path style="clip-path:url(#SVGID_00000143583001396926579520000002262719591520095904_);fill:#1D1D1B;" d="M189.85,57.25l9.6,0.5
		l3.64-0.5v-1.36h-13.23V57.25z M189.34,55.38h14.24v2.37h-14.24V55.38z"/>
	<path style="clip-path:url(#SVGID_00000143583001396926579520000002262719591520095904_);fill:#1D1D1B;" d="M189.96,49.98h0.5v5.66
		h-0.5V49.98z M202.96,55.63h-0.5v-5.66h0.5V55.63z"/>
	<path style="clip-path:url(#SVGID_00000143583001396926579520000002262719591520095904_);fill:#1D1D1B;" d="M192.8,51.34
		c0.34,0,0.73,0.19,1,0.58c0.21,0.29,0.35,0.7,0.35,1.22v2.5h-0.5v-2.5c0-0.41-0.11-0.72-0.26-0.93c-0.17-0.24-0.4-0.36-0.59-0.36
		V51.34z"/>
	<path style="clip-path:url(#SVGID_00000143583001396926579520000002262719591520095904_);fill:#1D1D1B;" d="M192.8,51.84
		c-0.19,0-0.42,0.12-0.59,0.36c-0.15,0.21-0.26,0.52-0.26,0.93v2.5h-0.5v-2.5c0-0.52,0.14-0.93,0.35-1.22
		c0.27-0.39,0.66-0.58,1-0.58V51.84z"/>
	<path style="clip-path:url(#SVGID_00000143583001396926579520000002262719591520095904_);fill:#1D1D1B;" d="M188.65,49.47h15.63
		v-1.36l-16.14-0.5L188.65,49.47z M204.53,49.98H188.4h-0.25v-0.25v-1.87v-0.25h0.25h16.14h0.25v0.25v1.87v0.25H204.53z"/>
	<polygon style="clip-path:url(#SVGID_00000143583001396926579520000002262719591520095904_);fill:#1D1D1B;" points="202.62,47.6 
		199.26,45.31 194.13,45.31 190.77,47.6 189.88,47.6 193.91,44.85 193.97,44.81 194.3,45.31 199.41,44.81 	"/>
	<path style="clip-path:url(#SVGID_00000143583001396926579520000002262719591520095904_);fill:#1D1D1B;" d="M200.83,40.82
		c-2.07,0.07-5.11,0.39-8.25-0.1C194.75,40.46,198.69,40.39,200.83,40.82"/>
	<path style="clip-path:url(#SVGID_00000143583001396926579520000002262719591520095904_);fill:#1D1D1B;" d="M199.09,44.94v-4.22
		h0.25h0.25v4.24l-0.18-0.15L199.09,44.94z M193.8,44.93v-4.21h0.5v4.59C194.06,45.17,193.97,45.07,193.8,44.93"/>
	<path style="clip-path:url(#SVGID_00000143583001396926579520000002262719591520095904_);fill:#1D1D1B;" d="M193.8,40.72v-3.67
		c0-0.78,0.28-1.53,0.77-2.17c0.34-0.43,0.77-0.81,1.27-1.11V30.5v-0.33l0.32,0.08c0.09,0.02,0.18,0.04,0.26,0.05
		c0.08,0.01,0.17,0.02,0.27,0.02c0.09,0,0.18-0.01,0.27-0.02c0.09-0.01,0.17-0.03,0.26-0.05l0.31-0.08v0.33v3.27
		c0.51,0.3,0.94,0.68,1.27,1.11c0.49,0.64,0.78,1.39,0.78,2.17v3.67h-0.25h-0.25v-3.67c0-0.67-0.24-1.32-0.67-1.86
		c-0.42-0.54-1.01-0.99-1.72-1.27c-0.71,0.29-1.31,0.74-1.72,1.27c-0.43,0.55-0.67,1.2-0.67,1.86v3.67h-0.25H193.8z M196.35,33.51
		c0.08-0.04,0.17-0.07,0.25-0.1l0.04-0.02l0.01,0l0.01,0l0.01,0l0,0l0.01,0l0,0l0.01,0l0,0l0.01,0l0,0l0.01,0l0.01,0l0.01,0l0.01,0
		l0.01,0l0.01,0l0.01,0l0.01,0l0.04,0.02c0.09,0.03,0.17,0.07,0.25,0.1v-2.7l-0.01,0c-0.11,0.02-0.22,0.02-0.33,0.02
		c-0.11,0-0.22-0.01-0.33-0.02l-0.01,0V33.51z"/>
	<path style="clip-path:url(#SVGID_00000143583001396926579520000002262719591520095904_);fill:#1D1D1B;" d="M199.84,22.74
		c0.46,0.43,0.83,0.95,1.09,1.54c0.25,0.56,0.38,1.19,0.38,1.84c0,1.28-0.52,2.43-1.35,3.27s-1.99,1.35-3.27,1.35
		c-1.28,0-2.43-0.52-3.26-1.35s-1.35-1.99-1.35-3.27c0-0.65,0.14-1.27,0.38-1.84c0.26-0.59,0.63-1.11,1.09-1.54l1.46-1.36
		l-1.07,1.68c-0.16,0.26-0.3,0.54-0.38,0.85c-0.09,0.29-0.13,0.6-0.13,0.92c0,0.91,0.37,1.73,0.96,2.32
		c0.59,0.59,1.41,0.96,2.32,0.96c0.91,0,1.73-0.37,2.32-0.96c0.59-0.59,0.96-1.41,0.96-2.32c0-0.32-0.05-0.63-0.13-0.92
		c-0.09-0.3-0.22-0.59-0.38-0.85l-1.07-1.68L199.84,22.74z M200.47,24.48l-0.01-0.02c0.01,0.12,0.02,0.24,0.02,0.37
		c0,1.04-0.42,1.99-1.11,2.68c-0.69,0.68-1.63,1.11-2.68,1.11c-1.04,0-1.99-0.42-2.68-1.11c-0.68-0.68-1.11-1.63-1.11-2.68
		c0-0.12,0.01-0.25,0.02-0.37l-0.01,0.02c-0.22,0.5-0.34,1.06-0.34,1.64c0,1.14,0.46,2.17,1.21,2.91c0.74,0.74,1.77,1.2,2.91,1.2
		c1.14,0,2.17-0.46,2.91-1.2c0.74-0.74,1.21-1.77,1.21-2.91C200.81,25.54,200.69,24.98,200.47,24.48"/>
	<path style="clip-path:url(#SVGID_00000143583001396926579520000002262719591520095904_);fill:#1D1D1B;" d="M196.52,51.34
		c0.34,0,0.73,0.19,1,0.58c0.21,0.29,0.35,0.7,0.35,1.22v2.5h-0.5v-2.5c0-0.41-0.11-0.72-0.26-0.93c-0.17-0.24-0.4-0.36-0.59-0.36
		V51.34z"/>
	<path style="clip-path:url(#SVGID_00000143583001396926579520000002262719591520095904_);fill:#1D1D1B;" d="M196.52,51.84
		c-0.19,0-0.42,0.12-0.59,0.36c-0.15,0.21-0.26,0.52-0.26,0.93v2.5h-0.5v-2.5c0-0.52,0.14-0.93,0.35-1.22
		c0.27-0.39,0.66-0.58,1-0.58V51.84z"/>
	<path style="clip-path:url(#SVGID_00000143583001396926579520000002262719591520095904_);fill:#1D1D1B;" d="M200.23,51.34
		c0.34,0,0.73,0.19,1,0.58c0.21,0.29,0.35,0.7,0.35,1.22v2.5h-0.5v-2.5c0-0.41-0.11-0.72-0.26-0.93c-0.17-0.24-0.4-0.36-0.59-0.36
		V51.34z"/>
	<path style="clip-path:url(#SVGID_00000143583001396926579520000002262719591520095904_);fill:#1D1D1B;" d="M200.23,51.84
		c-0.19,0-0.42,0.12-0.59,0.36c-0.15,0.21-0.26,0.52-0.26,0.93v2.5h-0.5v-2.5c0-0.52,0.14-0.93,0.35-1.22
		c0.27-0.39,0.66-0.58,1-0.58V51.84z"/>
	<path style="clip-path:url(#SVGID_00000143583001396926579520000002262719591520095904_);fill:#1D1D1B;" d="M200.25,59.69
		c-1.46,3.31-3.14,5.15-5.32,8.3C198.96,64.22,199.3,62.35,200.25,59.69"/>
	
		<path style="clip-path:url(#SVGID_00000143583001396926579520000002262719591520095904_);fill-rule:evenodd;clip-rule:evenodd;fill:#6F6F6E;" d="
		M283.81,82.35v41.51v0.1h-0.1H183.33h-0.1v-0.1l-0.5-21.97l0.5-19.39c11.86-2.53,36.68-8.12,58.35-12.6
		C260.83,75.68,277.24,80.43,283.81,82.35"/>
	
		<path style="clip-path:url(#SVGID_00000143583001396926579520000002262719591520095904_);fill-rule:evenodd;clip-rule:evenodd;fill:#575756;" d="
		M283.81,82.35v41.51v0.1h-0.1h-42.06V69.92C260.88,75.7,277.25,80.44,283.81,82.35"/>
	
		<polygon style="clip-path:url(#SVGID_00000143583001396926579520000002262719591520095904_);fill-rule:evenodd;clip-rule:evenodd;fill:#FFCB00;" points="
		201.41,82.65 201.41,90.74 201.41,90.83 201.32,90.84 187.5,92.47 187.38,92.49 187.38,92.37 187.38,85.24 187.38,85.16 
		187.46,85.14 201.29,82.55 201.41,82.53 	"/>
	
		<polygon style="clip-path:url(#SVGID_00000143583001396926579520000002262719591520095904_);fill-rule:evenodd;clip-rule:evenodd;fill:#FFCB00;" points="
		207.73,89.97 207.73,81.43 207.73,81.35 207.82,81.33 224.11,78.28 224.22,78.26 224.22,78.38 224.22,88.04 224.22,88.13 
		224.14,88.14 207.85,90.07 207.73,90.08 	"/>
	
		<polygon style="clip-path:url(#SVGID_00000143583001396926579520000002262719591520095904_);fill-rule:evenodd;clip-rule:evenodd;fill:#FFCB00;" points="
		232.79,76.74 232.79,76.65 232.88,76.64 240.73,75.17 240.73,74.82 247.15,76.43 247.22,76.45 247.22,76.53 247.22,86.41 
		241.65,86.32 232.79,87.12 	"/>
	
		<polygon style="clip-path:url(#SVGID_00000143583001396926579520000002262719591520095904_);fill-rule:evenodd;clip-rule:evenodd;fill:#F6A526;" points="
		241.65,75.05 247.15,76.43 247.22,76.45 247.22,76.53 247.22,86.41 241.65,86.32 	"/>
	
		<polygon style="clip-path:url(#SVGID_00000143583001396926579520000002262719591520095904_);fill-rule:evenodd;clip-rule:evenodd;fill:#F6A526;" points="
		270.52,90.71 270.52,82.61 270.52,82.48 270.65,82.51 280.67,85.69 280.75,85.71 280.75,85.78 280.75,92.35 280.75,92.46 
		280.63,92.45 270.61,90.81 270.52,90.79 	"/>
	
		<polygon style="clip-path:url(#SVGID_00000143583001396926579520000002262719591520095904_);fill-rule:evenodd;clip-rule:evenodd;fill:#F6A526;" points="
		253.68,123.85 253.68,78.25 253.68,78.12 253.8,78.15 265.65,81.22 265.72,81.24 265.72,81.32 265.72,123.85 265.72,123.95 
		265.62,123.95 253.78,123.95 253.68,123.95 	"/>
	
		<path style="clip-path:url(#SVGID_00000143583001396926579520000002262719591520095904_);fill-rule:evenodd;clip-rule:evenodd;fill:#6F6F6E;" d="
		M241.38,53.77c0,1.7,0,5.72,0,7.42l-58.15,16.28v-8.61v-0.07l0.07-0.02l57.95-19.63l0.13-0.05l0,0.14V53.77z"/>
	
		<path style="clip-path:url(#SVGID_00000143583001396926579520000002262719591520095904_);fill-rule:evenodd;clip-rule:evenodd;fill:#575756;" d="
		M242.02,49.2l41.73,19.54l0.06,0.03v0.06v8.4l-41.98-16.24c0.01-1.97,0.02-6.06,0.03-8.03c0.01-1.72,0.01-3.01,0.01-3.66v-0.16
		L242.02,49.2z"/>
	
		<path style="clip-path:url(#SVGID_00000143583001396926579520000002262719591520095904_);fill-rule:evenodd;clip-rule:evenodd;fill:#FFCB00;" d="
		M183.3,75.66l58.08-16.26c0,2.22,0.98,4.29,1.06,6.46c0.07,1.8-0.78,3.13-0.78,4.94l-58.31,12.25l-0.12,0.03v-0.12v-7.19v-0.08
		L183.3,75.66z"/>
	
		<path style="clip-path:url(#SVGID_00000143583001396926579520000002262719591520095904_);fill-rule:evenodd;clip-rule:evenodd;fill:#F6A526;" d="
		M241.84,59.56v-0.15l0.14,0.05l41.78,16.17l0.06,0.03v0.07v7.18v0.13l-0.13-0.04L241.65,70.8c0.01-1.81,0.05-3.62,0.09-5.43
		C241.79,63.43,241.82,61.5,241.84,59.56"/>
	<path style="clip-path:url(#SVGID_00000143583001396926579520000002262719591520095904_);fill:#1D1D1B;" d="M241.74,49.07
		c-13.8,4.68-27.61,9.35-41.41,14.03c5.16-2.25,8.6-3.66,10.42-4.27c10.25-3.47,20.51-6.95,30.76-10.42
		C241.59,48.63,241.66,48.85,241.74,49.07 M196.67,64.24c-4.45,1.51-8.89,3.12-13.34,4.62c0,2.93,0.53,26.24-0.7,32.28V68.61v-0.25
		c0.08-0.03,0.16-0.05,0.24-0.08C184.78,67.63,193.38,64.97,196.67,64.24 M183.33,124.21h-0.7v-21.15
		C183.41,108.19,183.33,122.17,183.33,124.21"/>
	<path style="clip-path:url(#SVGID_00000143583001396926579520000002262719591520095904_);fill:#1D1D1B;" d="M184.87,82.62
		c13.21-2.79,24.45-5.16,37.66-7.94c-3.65,1.55-7.28,2.25-11.12,3.06c-4.21,0.89-8.42,1.78-12.62,2.66
		C194.03,81.41,188.08,82.44,184.87,82.62 M241.64,70.65c5.33,1.55,10.65,3.1,15.98,4.66c-4.84-0.75-13.91-3.32-16-3.93
		c-5.56,1.17-9.32,1.97-14.88,3.14C232.06,72.53,236.38,71.76,241.64,70.65 M267.85,78.29c-4-0.07-6.7-1.47-8.39-2.09
		C262.01,76.31,266.27,77.83,267.85,78.29 M271.63,79.39l12.53,3.65l-0.2,0.67C282.01,83.15,277.33,82.12,271.63,79.39"/>
	<path style="clip-path:url(#SVGID_00000143583001396926579520000002262719591520095904_);fill:#1D1D1B;" d="M186.78,92.71v-7.63
		c2.47-0.46,5.11-1.09,7.6-1.23c-2.39,0.72-4.57,1.38-6.89,1.82v7.04H186.78z M196.75,83.44c1.76-0.33,3.5-0.81,5.27-1.14v8.83h-0.7
		v-7.98C200.18,83.34,199.04,83.45,196.75,83.44 M207.73,86.25l-0.24-5.12c1.96-0.37,4.07-0.64,5.92-0.85l-5.22,1.44
		C208.19,82.85,208.1,84.68,207.73,86.25 M224.41,77.61l0.42-0.08v0.42v10.76h-0.7V78.38c-2.49,0.47-4.98,0.74-7.47,1.21
		C218.31,78.94,222.93,77.89,224.41,77.61 M232.4,87.11c0-1.39-0.05-2.05,0.39-3.59c0.44,1.04,0.31,2.49,0.31,3.59H232.4z
		 M232.76,82.32c-0.17-0.57-0.64-1.89,0.04-2.8C232.96,80.19,233.27,81.12,232.76,82.32 M232.66,76.04c0.1-0.02,0.19-0.04,0.29-0.05
		l8.61-1.58l0.08-0.02l0.08,0.02l5.85,1.51l0.27,0.07v0.27v10.81h-0.71V76.53l-5.5-1.42c-2.84,0.52-5.41,0.99-8.25,1.52
		c-0.14,0.44-0.46,1.12-0.57,1.7C232.57,77.45,232.8,77.05,232.66,76.04 M253.07,124.21c0-1,0.29-6.01,0.61-7.84
		c0,1.44,0.1,6.4,0.1,7.84H253.07z M253.68,86.24c0.74,8.89,0.2,18.01,0,23.04C253.13,103.58,253.49,90.96,253.68,86.24
		 M266.33,80.77c0,3.1,0.09,22.23-0.71,31.3V81.32c-3.53-0.91-7.05-1.82-10.58-2.74C258.79,79.19,262.65,79.82,266.33,80.77
		 M270.34,91.37c-0.01-2.04,0.02-4.06,0.19-6.24c0.33,2.63,0.43,5.1,0.43,6.35C270.72,91.48,270.57,91.37,270.34,91.37
		 M281.35,85.42v7.7h-0.7v-7.16c-2.69-0.7-5.22-1.97-8.08-2.95C275.18,83.34,278.8,84.76,281.35,85.42"/>
	<path style="clip-path:url(#SVGID_00000143583001396926579520000002262719591520095904_);fill:#1D1D1B;" d="M187.09,92
		c2.2-0.26,3.69-0.19,6.81-0.28c-2.18,0.56-4.96,0.82-6.42,0.99C187.46,92.47,187.12,92.23,187.09,92 M197.65,91.27
		c1.07-0.21,3.07-0.75,3.97-0.86c0.03,0.23,0.05,0.47,0.08,0.7C200.76,91.21,199.68,91.29,197.65,91.27 M212.68,89.82
		c-1.72,0.2-3.12,0.48-4.85,0.68C208.65,89.31,210.71,89.78,212.68,89.82 M213.85,89.36l10.58-1.35l0.08,0.7
		C222.75,88.92,217.87,89.48,213.85,89.36 M232.4,86.36c1.35-0.16,3.2,0.32,5.11,0.2c-1.58,0.54-3.32,0.42-4.4,0.55
		C233.08,86.88,232.43,86.6,232.4,86.36 M243.34,86.56c1.11,0.12,3.11-0.38,4.19-0.2c-0.04,0.23-0.07,0.46-0.11,0.69
		C246.1,86.84,245,87.53,243.34,86.56 M270.33,90.66l10.73,1.75l-0.11,0.69l-10.61-1.74L270.33,90.66z"/>
	<path style="clip-path:url(#SVGID_00000143583001396926579520000002262719591520095904_);fill:#1D1D1B;" d="M241.69,67.97
		c-0.36-7.6-0.42-10.72-0.42-19.23v-0.55c1.81,0.85,9.51,4.47,10.84,5.85l-10.14-4.75C241.98,57.36,242.49,60.25,241.69,67.97
		 M267.09,60.28l17.13,8.02l0.2,0.09v0.22v55.6h-0.71V68.83c-8.4-3.93-16.8-7.87-25.2-11.8C262.12,58.06,265.56,59.56,267.09,60.28"
		/>
	<path style="clip-path:url(#SVGID_00000143583001396926579520000002262719591520095904_);fill:#FFFFFF;" d="M241.62,96.9
		c0.26,1.02,0.35,6.91,0.01,10.95C240.69,103.59,241.36,97.88,241.62,96.9"/>
	<path style="clip-path:url(#SVGID_00000143583001396926579520000002262719591520095904_);fill:#1D1D1B;" d="M241.27,124.21
		c0-3.87-0.05-8.62,0.37-12.57c0.32,4.94,0.34,9.01,0.34,12.57H241.27z"/>
	<path style="clip-path:url(#SVGID_00000143583001396926579520000002262719591520095904_);fill:#1D1D1B;" d="M274.63,72.21
		c-6.63-2.56-13.25-5.13-19.88-7.69C257.42,64.65,270.29,69.32,274.63,72.21 M249.11,62.34l-7.5-2.9
		c-10.52,2.91-21.04,5.82-31.56,8.73c4.22-2.05,20.09-6.49,31.6-9.47C243.21,59.3,247.09,60.93,249.11,62.34 M200.28,71.01
		l-17.21,4.82l-0.19-0.68C185.08,74.53,193.72,71.94,200.28,71.01"/>
	<path style="clip-path:url(#SVGID_00000143583001396926579520000002262719591520095904_);fill:#1D1D1B;" d="M188.81,98.06
		c0.77,0.72,10.31,14.62,12.19,18.22C197.43,112.74,189.11,99.03,188.81,98.06"/>
	<path style="clip-path:url(#SVGID_00000143583001396926579520000002262719591520095904_);fill:#1D1D1B;" d="M192.55,99.3
		c0.77,0.72,3.65,5.16,5.53,8.75C194.51,104.51,192.85,100.27,192.55,99.3"/>
	<path style="clip-path:url(#SVGID_00000143583001396926579520000002262719591520095904_);fill:#3C3C3B;" d="M233.96,65.38
		c-0.83,0.65-7.09,4.54-9.78,7.81C228.97,70.43,231.52,67.64,233.96,65.38"/>
	<path style="clip-path:url(#SVGID_00000143583001396926579520000002262719591520095904_);fill:#1D1D1B;" d="M191.86,108.11
		c0.81,1.07,1.25,1.72,1.62,2.91C192.1,109.59,192.17,109.08,191.86,108.11"/>
	<path style="clip-path:url(#SVGID_00000143583001396926579520000002262719591520095904_);fill:#FFFFFF;" d="M196.16,66.35
		c-0.9,0.55-6.5,2.39-10.46,3.26C189.5,67.44,195.15,66.38,196.16,66.35"/>
	<path style="clip-path:url(#SVGID_00000143583001396926579520000002262719591520095904_);fill:#1D1D1B;" d="M173.68,123.85h106.73
		c1.73,0,11.19-0.13,16.04,0.7h-108.7C186.19,124.56,179.22,124.72,173.68,123.85"/>
</g>
</svg>
