<?xml version="1.0" encoding="utf-8"?>
<!-- Generator: Adobe Illustrator 27.2.0, SVG Export Plug-In . SVG Version: 6.00 Build 0)  -->
<svg version="1.1" id="Layer_1" xmlns="http://www.w3.org/2000/svg" xmlns:xlink="http://www.w3.org/1999/xlink" x="0px" y="0px"
	 viewBox="0 0 30 30" style="enable-background:new 0 0 30 30;" xml:space="preserve">
<style type="text/css">
	.st0{opacity:0.5;fill:#CFB384;}
</style>
<path class="st0" d="M15,0C6.71,0,0,6.72,0,15c0,8.29,6.71,15,15,15c8.28,0,15-6.71,15-15C30,6.72,23.28,0,15,0z M4.82,20.35
	c0-0.11,0-0.21,0-0.32c0.13-0.15,0.27-0.28,0.48-0.32c1.67-0.33,2.79-1.4,3.63-2.79c0.71-1.18,0.6-1.44-0.71-1.91
	c-0.07-0.03-0.15-0.05-0.23-0.08c-0.28-0.12-0.56-0.24-0.79-0.44c-0.58-0.51-0.24-1.24,0.45-1.41c0.5-0.12,0.94,0.2,1.43,0.26
	c0.33,0.04,0.46-0.07,0.42-0.42c-0.1-0.9-0.1-1.8-0.06-2.7c0.08-1.72,0.93-3.03,2.36-3.87c2.09-1.24,4.27-1.25,6.38-0.02
	c1.31,0.77,2.16,1.94,2.35,3.5c0.12,1.02,0.07,2.04-0.01,3.06c-0.03,0.44,0.06,0.52,0.49,0.42c0.54-0.13,1-0.41,1.56-0.16
	c0.3,0.13,0.57,0.42,0.56,0.75c-0.01,0.23-0.14,0.43-0.31,0.58c-0.26,0.23-0.6,0.35-0.92,0.48c-0.25,0.1-0.5,0.18-0.74,0.29
	c-0.49,0.23-0.64,0.54-0.4,1.02c0.8,1.69,1.97,2.97,3.87,3.42c0.23,0.05,0.42,0.15,0.56,0.34c0,0.11,0,0.21,0,0.32
	c-0.18,0.37-0.5,0.57-0.87,0.71c-0.37,0.14-0.74,0.3-1.14,0.32c-0.55,0.04-0.84,0.28-0.92,0.85c-0.08,0.55-0.24,0.62-0.8,0.58
	c-0.13-0.01-0.26-0.03-0.39-0.06c-1.09-0.19-2.11-0.08-3.01,0.64c-0.17,0.14-0.37,0.26-0.56,0.38c-1.53,0.99-3.09,1.1-4.68,0.17
	c-0.43-0.25-0.85-0.55-1.27-0.82c-0.35-0.23-0.72-0.36-1.14-0.42c-0.66-0.1-1.29,0.05-1.94,0.12c-0.33,0.04-0.65-0.06-0.67-0.4
	c-0.04-0.82-0.55-1.02-1.24-1.1c-0.32-0.04-0.64-0.17-0.95-0.29C5.28,20.9,4.97,20.7,4.82,20.35z"/>
</svg>
