<?xml version="1.0" encoding="utf-8"?>
<!-- Generator: Adobe Illustrator 27.2.0, SVG Export Plug-In . SVG Version: 6.00 Build 0)  -->
<svg version="1.1" id="Layer_1" xmlns="http://www.w3.org/2000/svg" xmlns:xlink="http://www.w3.org/1999/xlink" x="0px" y="0px"
	 viewBox="0 0 30 30" style="enable-background:new 0 0 30 30;" xml:space="preserve">
<style type="text/css">
	.st0{opacity:0.5;fill:#CFB384;}
</style>
<path class="st0" d="M15,0C6.71,0,0,6.72,0,15c0,8.29,6.71,15,15,15c8.28,0,15-6.71,15-15C30,6.72,23.28,0,15,0z M22.81,11.11
	c0.01,0.17,0.02,0.34,0.02,0.51c0,5.16-3.93,11.12-11.12,11.12c-2.2,0-4.26-0.66-5.99-1.76c0.31,0.03,0.62,0.05,0.94,0.05
	c1.82,0,3.51-0.62,4.85-1.67c-1.72-0.03-3.15-1.16-3.65-2.72c0.24,0.05,0.48,0.08,0.73,0.08c0.36,0,0.7-0.06,1.02-0.14
	c-1.78-0.36-3.12-1.94-3.12-3.83v-0.05c0.53,0.28,1.13,0.46,1.77,0.48c-1.05-0.7-1.75-1.9-1.75-3.25c0-0.72,0.2-1.39,0.53-1.97
	c1.93,2.37,4.8,3.92,8.05,4.09c-0.06-0.29-0.1-0.58-0.1-0.89c0-2.16,1.75-3.9,3.9-3.9c1.13,0,2.15,0.48,2.86,1.24
	c0.89-0.18,1.73-0.5,2.48-0.95c-0.29,0.91-0.91,1.67-1.72,2.16c0.79-0.1,1.55-0.3,2.24-0.62C24.23,9.88,23.57,10.57,22.81,11.11z"/>
</svg>
