<?xml version="1.0" encoding="utf-8"?>
<!-- Generator: Adobe Illustrator 27.2.0, SVG Export Plug-In . SVG Version: 6.00 Build 0)  -->
<svg version="1.1" id="svg315" xmlns:svg="http://www.w3.org/2000/svg"
	 xmlns="http://www.w3.org/2000/svg" xmlns:xlink="http://www.w3.org/1999/xlink" x="0px" y="0px" viewBox="0 0 300 300"
	 style="enable-background:new 0 0 300 300;" xml:space="preserve">
<style type="text/css">
	.st0{opacity:0.5;}
	.st1{fill:#CFB384;}
</style>
<g class="st0">
	<path class="st1" d="M275.05,123.58c-0.98-1.91-2.24-3.68-3.76-5.28l-42.34-44.43c0,0-0.01,0-0.01-0.01
		c-5.4-5.67-12.99-8.92-20.82-8.92h-13.55c-3.59,0-6.5,2.91-6.5,6.5s2.91,6.5,6.5,6.5h13.55c2.69,0,5.33,0.7,7.65,1.99l-24.63,41.87
		l-29.73-43.86h13.64c3.59,0,6.5-2.91,6.5-6.5s-2.91-6.5-6.5-6.5H90.2c-7.83,0-15.42,3.25-20.82,8.92c0,0-0.01,0-0.01,0.01
		l-42.34,44.43c0,0,0,0,0,0c-0.16,0.17-0.3,0.35-0.45,0.52c-3.74,4.17-5.81,9.51-5.81,15.14c0,6.21,2.22,12.24,6.25,16.96
		l99.82,116.95c4.24,4.97,9.96,8.32,16.23,9.65c0.03,0.01,0.05,0.01,0.08,0.01c0.58,0.12,1.16,0.22,1.74,0.31
		c0.15,0.02,0.31,0.04,0.46,0.06c0.47,0.06,0.95,0.11,1.42,0.15c0.17,0.01,0.35,0.03,0.52,0.04c0.6,0.04,1.2,0.06,1.8,0.06
		c0.02,0,0.04,0,0.06,0c0.02,0,0.04,0,0.06,0c0.6,0,1.2-0.03,1.8-0.06c0.17-0.01,0.34-0.03,0.52-0.04c0.48-0.04,0.95-0.09,1.43-0.15
		c0.15-0.02,0.31-0.04,0.46-0.06c0.59-0.09,1.17-0.19,1.75-0.31c0.02-0.01,0.05-0.01,0.07-0.01c6.27-1.33,11.99-4.68,16.23-9.65
		l45.64-53.47c2.33-2.73,2.01-6.83-0.72-9.16c-2.73-2.33-6.83-2.01-9.16,0.72l-40.48,47.43l29.8-112.94h66.29
		c-0.41,0.71-0.88,1.39-1.42,2.02l-41.39,48.5c-2.33,2.73-2.01,6.83,0.72,9.16s6.83,2.01,9.16-0.72l41.39-48.5
		c4-4.68,6.21-10.64,6.25-16.8c0-0.05,0.01-0.11,0.01-0.16C277.56,130.31,276.69,126.76,275.05,123.58z M150.21,265.12
		c-0.35,0.02-0.7,0.06-1.05,0.06c-0.35,0-0.7-0.03-1.05-0.06l-32.89-124.65h67.88L150.21,265.12z M36.45,127.27l36.39-38.2
		l22.58,38.39H36.27C36.33,127.4,36.39,127.34,36.45,127.27z M119.05,127.47l30.12-44.44l30.12,44.44H119.05z M136.91,77.95
		l-29.73,43.86L82.55,79.93c2.32-1.29,4.96-1.99,7.65-1.99H136.91z M36.92,142.49c-0.54-0.63-1.01-1.31-1.42-2.02h66.29l29.8,112.94
		L36.92,142.49z M202.91,127.47l22.58-38.39l5.89,6.19l30.5,32.01c0.06,0.06,0.12,0.13,0.18,0.19H202.91z"/>
	<path class="st1" d="M287.67,81.52h-14.79c-3.59,0-6.5,2.91-6.5,6.5s2.91,6.5,6.5,6.5h14.79c3.59,0,6.5-2.91,6.5-6.5
		S291.26,81.52,287.67,81.52z"/>
	<path class="st1" d="M263.03,70.76c1.66,0,3.33-0.63,4.6-1.9l10.46-10.46c2.54-2.54,2.54-6.65,0-9.19c-2.54-2.54-6.65-2.54-9.19,0
		l-10.46,10.46c-2.54,2.54-2.54,6.65,0,9.19C259.7,70.13,261.37,70.76,263.03,70.76z"/>
	<path class="st1" d="M239.27,60.92c3.59,0,6.5-2.91,6.5-6.5v-14.8c0-3.59-2.91-6.5-6.5-6.5s-6.5,2.91-6.5,6.5v14.8
		C232.77,58.01,235.68,60.92,239.27,60.92z"/>
	<path class="st1" d="M31.96,88.02c0-3.59-2.91-6.5-6.5-6.5h-14.8c-3.59,0-6.5,2.91-6.5,6.5s2.91,6.5,6.5,6.5h14.8
		C29.05,94.52,31.96,91.61,31.96,88.02z"/>
	<path class="st1" d="M30.71,68.86c1.27,1.27,2.93,1.9,4.6,1.9s3.33-0.63,4.6-1.9c2.54-2.54,2.54-6.65,0-9.19L29.44,49.2
		c-2.54-2.54-6.65-2.54-9.19,0c-2.54,2.54-2.54,6.65,0,9.19L30.71,68.86z"/>
	<path class="st1" d="M59.07,60.92c3.59,0,6.5-2.91,6.5-6.5v-14.8c0-3.59-2.91-6.5-6.5-6.5s-6.5,2.91-6.5,6.5v14.8
		C52.57,58.01,55.48,60.92,59.07,60.92z"/>
</g>
</svg>
