<?xml version="1.0" encoding="utf-8"?>
<!-- Generator: Adobe Illustrator 27.2.0, SVG Export Plug-In . SVG Version: 6.00 Build 0)  -->
<svg version="1.1" id="svg315" xmlns:svg="http://www.w3.org/2000/svg"
	 xmlns="http://www.w3.org/2000/svg" xmlns:xlink="http://www.w3.org/1999/xlink" x="0px" y="0px" viewBox="0 0 300 300"
	 style="enable-background:new 0 0 300 300;" xml:space="preserve">
<style type="text/css">
	.st0{opacity:0.5;}
	.st1{fill:#CFB384;}
</style>
<g>
	<g id="g331" transform="translate(201.3604,314.4302)" class="st0">
		<path id="path333" class="st1" d="M-79.37-197.11c-0.88-0.56-1.91-0.89-3.03-0.89c-3.12,0-5.65,2.53-5.65,5.65
			c0,1.48,0.57,2.83,1.5,3.83c1.03,1.12,2.51,1.81,4.14,1.81c3.12,0,5.65-2.53,5.65-5.65C-76.75-194.35-77.8-196.11-79.37-197.11"/>
	</g>
	<g id="g335" transform="translate(256,502)" class="st0">
		<g id="path337">
			<path class="st1" d="M-103.16-446.55c-3.74,0-6.78-3.03-6.78-6.78v-37.27c0-3.74,3.03-6.78,6.78-6.78c3.74,0,6.78,3.03,6.78,6.78
				v37.27C-96.38-449.58-99.42-446.55-103.16-446.55z"/>
		</g>
	</g>
	<g id="g339" transform="translate(256,76)" class="st0">
		<g id="path341">
			<path class="st1" d="M-103.16,220c-3.74,0-6.78-3.03-6.78-6.78v-37.27c0-3.74,3.03-6.78,6.78-6.78c3.74,0,6.78,3.03,6.78,6.78
				v37.27C-96.38,216.97-99.42,220-103.16,220z"/>
		</g>
	</g>
	<g id="g343" transform="translate(66.29,425.71)" class="st0">
		<g id="path345">
			<path class="st1" d="M3.39-340.49c-1.73,0-3.47-0.66-4.79-1.98l-23.96-23.96c-2.65-2.65-2.65-6.94,0-9.58
				c2.65-2.65,6.94-2.65,9.58,0l23.96,23.96c2.65,2.65,2.65,6.94,0,9.58C6.86-341.15,5.12-340.49,3.39-340.49z"/>
		</g>
	</g>
	<g id="g347" transform="translate(403.2803,118.7202)" class="st0">
		<g id="path349">
			<path class="st1" d="M-143.32,139.85c-1.73,0-3.47-0.66-4.79-1.98l-23.96-23.96c-2.65-2.65-2.65-6.94,0-9.58
				c2.65-2.65,6.94-2.65,9.58,0l23.96,23.96c2.65,2.65,2.65,6.94,0,9.58C-139.85,139.19-141.58,139.85-143.32,139.85z"/>
		</g>
	</g>
	<g id="g351" transform="translate(445.71,425.71)" class="st0">
		<g id="path353">
			<path class="st1" d="M-209.71-340.49c-1.73,0-3.47-0.66-4.79-1.98c-2.65-2.65-2.65-6.94,0-9.58l23.96-23.96
				c2.65-2.65,6.94-2.65,9.58,0c2.65,2.65,2.65,6.94,0,9.58l-23.96,23.96C-206.24-341.15-207.97-340.49-209.71-340.49z"/>
		</g>
	</g>
	<g id="g355" transform="translate(108.7197,118.7202)" class="st0">
		<g id="path357">
			<path class="st1" d="M-63,139.85c-1.73,0-3.47-0.66-4.79-1.98c-2.65-2.65-2.65-6.94,0-9.58l23.96-23.96
				c2.65-2.65,6.94-2.65,9.58,0c2.65,2.65,2.65,6.94,0,9.58l-23.96,23.96C-59.53,139.19-61.27,139.85-63,139.85z"/>
		</g>
	</g>
	<g id="g359" transform="translate(476,256)" class="st0">
		<g id="path361">
			<path class="st1" d="M-323.16-25.5c-18.05,0-36.14-4.06-53.79-12.08c-13.98-6.35-27.69-15.17-40.77-26.23
				c-22.17-18.75-34.77-37.31-35.29-38.1c-1.54-2.29-1.54-5.28,0-7.56c0.53-0.78,13.13-19.35,35.29-38.1
				c13.08-11.06,26.79-19.88,40.77-26.23c17.65-8.01,35.74-12.08,53.79-12.08c18.05,0,36.14,4.06,53.79,12.08
				c13.98,6.35,27.69,15.17,40.77,26.23c22.17,18.75,34.77,37.31,35.29,38.1c1.54,2.29,1.54,5.28,0,7.56
				c-0.53,0.78-13.13,19.35-35.29,38.1c-13.08,11.06-26.79,19.88-40.77,26.23C-287.02-29.56-305.11-25.5-323.16-25.5z M-439-105.68
				c4.7,6.19,15.23,19.06,30.32,31.77c12.1,10.19,24.73,18.3,37.53,24.09c15.81,7.15,31.96,10.77,47.99,10.77
				c16.03,0,32.18-3.62,47.99-10.77c12.81-5.79,25.43-13.89,37.53-24.09c15.09-12.71,25.62-25.58,30.32-31.77
				c-4.7-6.19-15.23-19.06-30.32-31.77c-12.1-10.19-24.73-18.3-37.53-24.09c-15.81-7.15-31.96-10.77-47.99-10.77
				c-16.03,0-32.18,3.62-47.99,10.77c-12.81,5.79-25.43,13.89-37.53,24.09C-423.77-124.74-434.3-111.87-439-105.68z"/>
		</g>
	</g>
	<g id="g363" transform="translate(227.4102,330.7402)" class="st0">
		<g id="path365">
			<path class="st1" d="M-74.57-128.47c-28.64,0-51.95-23.3-51.95-51.95c0-0.44,0.01-0.89,0.02-1.32c0.01-0.37,0.02-0.73,0.04-1.1
				c0.01-0.33,0.03-0.65,0.05-0.97l0.02-0.29c0-0.04,0.01-0.08,0.01-0.12l0.02-0.22c0.02-0.22,0.03-0.45,0.06-0.67l0.01-0.08
				c0-0.03,0-0.06,0.01-0.09c0.03-0.35,0.07-0.71,0.11-1.06c0-0.03,0.01-0.06,0.01-0.09c0.05-0.4,0.09-0.79,0.15-1.19
				c0.04-0.28,0.08-0.57,0.12-0.85c0.05-0.34,0.1-0.69,0.18-1.08c0.02-0.13,0.04-0.25,0.07-0.38c0.69-3.68,4.23-6.11,7.91-5.42
				c3.68,0.69,6.1,4.22,5.41,7.9l0,0.02c-0.01,0.08-0.03,0.16-0.04,0.25c-0.04,0.22-0.08,0.43-0.11,0.64
				c-0.01,0.1-0.03,0.19-0.04,0.29c-0.03,0.16-0.05,0.32-0.07,0.48c0,0.04-0.01,0.07-0.02,0.11c-0.03,0.22-0.06,0.45-0.09,0.67
				c-0.01,0.06-0.01,0.13-0.02,0.19c-0.03,0.23-0.05,0.47-0.08,0.71l-0.01,0.17c0,0.05-0.01,0.11-0.02,0.16
				c-0.01,0.11-0.02,0.22-0.03,0.34l-0.03,0.46c-0.01,0.2-0.03,0.45-0.04,0.69c0,0.04,0,0.08-0.01,0.12
				c-0.01,0.23-0.02,0.46-0.02,0.69c0,0.03,0,0.05,0,0.08c-0.01,0.32-0.01,0.64-0.01,0.96c0,21.17,17.22,38.4,38.4,38.4
				c2.61,0,5.21-0.26,7.74-0.78c1.23-0.25,2.47-0.57,3.68-0.95c1.19-0.37,2.38-0.81,3.52-1.29c0.56-0.24,1.08-0.47,1.58-0.72
				c3.19-1.52,6.14-3.47,8.81-5.82c0.61-0.53,1.21-1.1,1.83-1.72c0.65-0.65,1.28-1.33,1.88-2.02c0.01-0.01,0.02-0.02,0.03-0.04
				c0.76-0.87,1.5-1.82,2.2-2.8c0.05-0.07,0.09-0.13,0.14-0.19c0.34-0.49,0.64-0.94,0.93-1.38c0.18-0.28,0.34-0.53,0.49-0.78
				c0.01-0.02,0.02-0.04,0.03-0.05c0.28-0.46,0.58-0.98,0.91-1.58c3.03-5.57,4.63-11.89,4.63-18.29c0-21.17-17.22-38.4-38.4-38.4
				c-0.32,0-0.65,0-0.97,0.01c-0.03,0-0.06,0-0.08,0c-0.24,0-0.47,0.01-0.71,0.03c-0.02,0-0.04,0-0.05,0
				c-0.19,0.01-0.38,0.02-0.57,0.03c-0.08,0.01-0.16,0.01-0.24,0.01c-0.13,0.01-0.3,0.03-0.44,0.03l-0.09,0.01
				c-0.04,0-0.08,0.01-0.12,0.01c-0.14,0.01-0.28,0.02-0.42,0.04c-0.04,0-0.07,0.01-0.11,0.01l-0.34,0.03
				c-0.21,0.02-0.38,0.04-0.56,0.06c-0.14,0.02-0.29,0.04-0.43,0.06c-0.07,0.01-0.13,0.02-0.2,0.03c-0.05,0.01-0.11,0.02-0.16,0.02
				c-0.16,0.02-0.31,0.04-0.47,0.07c-0.1,0.02-0.21,0.03-0.31,0.05c-0.08,0.01-0.15,0.03-0.23,0.04c-0.19,0.03-0.38,0.07-0.57,0.1
				c-0.01,0-0.05,0.01-0.06,0.01c-0.19,0.03-0.39,0.07-0.58,0.11c-0.06,0.01-0.11,0.02-0.17,0.03c-0.25,0.05-0.5,0.11-0.75,0.16
				l-0.08,0.02c-0.31,0.07-0.62,0.14-0.92,0.22c-0.29,0.07-0.56,0.15-0.82,0.23c-0.05,0.01-0.1,0.03-0.15,0.04
				c-0.28,0.08-0.56,0.16-0.83,0.25c-0.18,0.06-0.4,0.13-0.61,0.2c-0.03,0.01-0.06,0.02-0.09,0.03c-0.14,0.04-0.27,0.09-0.41,0.14
				c-0.02,0.01-0.04,0.02-0.06,0.02c-0.19,0.07-0.36,0.13-0.53,0.19c-0.03,0.01-0.06,0.02-0.09,0.03c-0.17,0.06-0.31,0.11-0.45,0.17
				c-3.49,1.36-7.41-0.37-8.77-3.86c-1.36-3.49,0.37-7.41,3.86-8.77c0.24-0.09,0.49-0.18,0.73-0.27c0.25-0.09,0.5-0.18,0.75-0.27
				c0.25-0.09,0.49-0.17,0.75-0.25c0.3-0.1,0.62-0.21,0.93-0.3c0.43-0.13,0.83-0.25,1.23-0.36c0.4-0.12,0.81-0.23,1.23-0.33
				c0.42-0.11,0.85-0.21,1.29-0.31l0.08-0.02c0.36-0.08,0.72-0.16,1.08-0.23c0.35-0.08,0.69-0.14,1.05-0.21
				c0.24-0.04,0.48-0.09,0.72-0.13c0.2-0.04,0.41-0.07,0.61-0.1c0.26-0.04,0.51-0.08,0.77-0.11c0.08-0.01,0.19-0.03,0.31-0.04
				c0.23-0.03,0.46-0.06,0.69-0.09c0.02,0,0.04,0,0.05-0.01c0.29-0.03,0.58-0.07,0.87-0.1l0.25-0.03c0.31-0.04,0.62-0.06,0.93-0.09
				c0.14-0.01,0.27-0.02,0.41-0.03c0.21-0.02,0.43-0.03,0.65-0.04c0.25-0.02,0.51-0.03,0.76-0.04c0.37-0.02,0.75-0.03,1.13-0.04
				c0.44-0.01,0.89-0.02,1.33-0.02c28.64,0,51.95,23.3,51.95,51.95c0,8.65-2.17,17.21-6.28,24.77c-0.43,0.79-0.83,1.49-1.23,2.14
				c-0.23,0.38-0.46,0.74-0.7,1.12c-0.38,0.59-0.8,1.22-1.26,1.88c-0.05,0.07-0.1,0.14-0.15,0.2c-0.96,1.35-1.99,2.66-3.05,3.87
				c-0.81,0.94-1.67,1.86-2.54,2.73c-0.83,0.83-1.67,1.62-2.49,2.33c-3.58,3.15-7.58,5.79-11.87,7.84
				c-0.67,0.32-1.38,0.65-2.15,0.97c-1.56,0.66-3.16,1.25-4.78,1.75c-1.66,0.52-3.34,0.95-5,1.28
				C-67.53-128.83-71.05-128.47-74.57-128.47z M-112.31-187.62C-112.31-187.62-112.31-187.61-112.31-187.62
				C-112.31-187.61-112.31-187.62-112.31-187.62z M-80.14-218.43c-0.02,0-0.04,0-0.05,0C-80.18-218.42-80.16-218.42-80.14-218.43z
				 M-80.14-218.43C-80.14-218.43-80.14-218.43-80.14-218.43C-80.14-218.43-80.14-218.43-80.14-218.43z"/>
		</g>
	</g>
	<g id="g367" transform="translate(256,226)" class="st0">
		<path id="path369" class="st1" d="M-103.16-58.74c-9.34,0-16.94-7.6-16.94-16.94s7.6-16.94,16.94-16.94s16.94,7.6,16.94,16.94
			S-93.82-58.74-103.16-58.74z"/>
	</g>
</g>
</svg>
