<?xml version="1.0" encoding="utf-8"?>
<!-- Generator: Adobe Illustrator 27.2.0, SVG Export Plug-In . SVG Version: 6.00 Build 0)  -->
<svg version="1.1" id="Layer_1" xmlns="http://www.w3.org/2000/svg" xmlns:xlink="http://www.w3.org/1999/xlink" x="0px" y="0px"
	 viewBox="0 0 30 30" style="enable-background:new 0 0 30 30;" xml:space="preserve">
<style type="text/css">
	.st0{opacity:0.5;}
	.st1{fill:#CFB384;}
</style>
<g class="st0">
	<polygon class="st1" points="12.77,17.37 17.65,14.81 12.77,12.26 	"/>
	<path class="st1" d="M15,0C6.71,0,0,6.71,0,15c0,8.29,6.71,15,15,15c8.28,0,15-6.72,15-15C30,6.71,23.28,0,15,0z M23.64,17.58
		c-0.14,1.74-0.45,3.54-2.69,3.66c-4.11,0.24-8.52,0.24-12.63,0c-2.24-0.13-2.56-1.92-2.69-3.66c-0.13-1.79-0.13-3.38,0-5.18
		c0.12-1.73,0.45-3.53,2.69-3.65c4.11-0.24,8.53-0.24,12.63,0c2.24,0.12,2.56,1.92,2.69,3.65C23.77,14.2,23.77,15.79,23.64,17.58z"
		/>
</g>
</svg>
